CourierBadi-BoldItalicContrast.ufo
<glyph name="exclam" format="2">
  <advance width="1228"/>
  <unicode hex="0021"/>
  <outline>
    <contour>
      <point x="772.7589385190421" y="1289.0" type="line" smooth="yes"/>
      <point x="728.0642871541849" y="1288.0397392408236"/>
      <point x="681.490858770307" y="1261.3689034301995"/>
      <point x="675.218034632466" y="1221.1395281256796" type="curve" smooth="yes"/>
      <point x="598.5598684038786" y="514.1588382769239" type="line" smooth="yes"/>
      <point x="597.145861937299" y="474.84112068755064"/>
      <point x="647.1558087233631" y="444.955611840852"/>
      <point x="695.8157190487277" y="444.0" type="curve" smooth="yes"/>
      <point x="744.3172232843585" y="444.8074930375772"/>
      <point x="794.3402660917935" y="470.2829703471996"/>
      <point x="807.8959201161204" y="507.23282766069855" type="curve" smooth="yes"/>
      <point x="981.5485548933657" y="1214.2149685754857" type="line" smooth="yes"/>
      <point x="992.0683232042894" y="1254.8726285857908"/>
      <point x="949.1257711807178" y="1287.8014423419118"/>
      <point x="902.7589385190421" y="1289.0" type="curve" smooth="yes"/>
    </contour>
    <contour>
      <point x="478.2289128620663" y="210.47296355333862" type="curve" smooth="yes"/>
      <point x="451.0745578329627" y="56.47296355333861" type="line" smooth="yes"/>
      <point x="446.01372732343725" y="0.39750258567400376"/>
      <point x="517.2208217425818" y="-29.785205211114864"/>
      <point x="612.2367301929154" y="-30.0" type="curve" smooth="yes"/>
      <point x="706.9120695091938" y="-29.805652273564366"/>
      <point x="778.5596143639342" y="-4.138193795633912"/>
      <point x="795.6161021221346" y="49.52703644666139" type="curve" smooth="yes"/>
      <point x="822.7704571512382" y="203.52703644666138" type="line" smooth="yes"/>
      <point x="827.8312876607637" y="259.602497414326"/>
      <point x="756.6241932416192" y="289.7852052111149"/>
      <point x="661.6082847912855" y="290.0" type="curve" smooth="yes"/>
      <point x="566.9329454750072" y="289.80565227356436"/>
      <point x="495.2854006202668" y="264.1381937956339"/>
    </contour>
  </outline>
</glyph>
<glyph name="numbersign" format="2">
  <advance width="1228"/>
  <unicode hex="0023"/>
  <outline>
    <contour>
      <point x="1059.366217300776" y="1183.9984862994754" type="curve" smooth="yes"/>
      <point x="938.0713190814367" y="880.7418714924188" type="line"/>
      <point x="749.3372861684762" y="874.0376174896813" type="line"/>
      <point x="871.3565913292838" y="1133.9985229391211" type="line" smooth="yes"/>
      <point x="891.916420658756" y="1189.5058925037692"/>
      <point x="823.073449912001" y="1228.0128103950892"/>
      <point x="769.1793196765342" y="1229.0" type="curve" smooth="yes"/>
      <point x="735.7226978215739" y="1228.6080177013318"/>
      <point x="686.8924102584605" y="1213.7090584479813"/>
      <point x="665.3662173007762" y="1183.9984862994754" type="curve" smooth="yes"/>
      <point x="542.4911434644217" y="880.202892106443" type="line"/>
      <point x="345.5228383128222" y="885.0" type="line" smooth="yes"/>
      <point x="286.7034935347006" y="884.1531914129911"/>
      <point x="234.84153455616246" y="852.8434863669843"/>
      <point x="222.55652355722674" y="796.4729635533386" type="curve" smooth="yes"/>
      <point x="212.78802994128435" y="739.5305221699666"/>
      <point x="259.83203515223374" y="702.0431839847105"/>
      <point x="320.1317530908033" y="701.0" type="curve" smooth="yes"/>
      <point x="465.44123937452537" y="714.5247778193747" type="line"/>
      <point x="373.8441317300844" y="491.57076924073573" type="line"/>
      <point x="206.93164281722932" y="496.0" type="line" smooth="yes"/>
      <point x="148.1122980391077" y="495.1531914129911"/>
      <point x="96.25033906056956" y="463.84348636698434"/>
      <point x="83.96532806163387" y="407.4729635533386" type="curve" smooth="yes"/>
      <point x="74.19683444569147" y="350.5305221699666"/>
      <point x="121.24083965664087" y="313.0431839847105"/>
      <point x="181.54055759521037" y="312.0" type="curve" smooth="yes"/>
      <point x="293.48633622505145" y="329.6202225594139" type="line"/>
      <point x="171.94340776567194" y="53.001355833396524" type="line" smooth="yes"/>
      <point x="151.38370544219185" y="-2.50589250376915"/>
      <point x="220.22667618894695" y="-41.01281039508915"/>
      <point x="274.1208064244138" y="-42.0" type="curve" smooth="yes"/>
      <point x="307.57742827937415" y="-41.608017701331875"/>
      <point x="356.40771584248745" y="-26.70905844798127"/>
      <point x="377.93393918560866" y="3.00154271619874" type="curve" smooth="yes"/>
      <point x="503.9708985837694" y="316.3832958680119" type="line"/>
      <point x="691.7661623901168" y="323.4380763361457" type="line"/>
      <point x="565.9434092618396" y="53.001357261504374" type="line" smooth="yes"/>
      <point x="545.3837054421919" y="-2.5058925037691564"/>
      <point x="614.226676188947" y="-41.01281039508915"/>
      <point x="668.1208064244138" y="-42.0" type="curve" smooth="yes"/>
      <point x="701.5774282793741" y="-41.608017701331875"/>
      <point x="750.4077158424875" y="-26.70905844798127"/>
      <point x="771.9339377550018" y="3.001541350080225" type="curve" smooth="yes"/>
      <point x="899.6531448108378" y="316.9708800446093" type="line"/>
      <point x="1093.5405575952104" y="312.0" type="line" smooth="yes"/>
      <point x="1152.359902373332" y="312.8468085870089"/>
      <point x="1204.22186135187" y="344.1565136330157"/>
      <point x="1216.506872350806" y="400.5270364466614" type="curve" smooth="yes"/>
      <point x="1226.2753659667483" y="457.4694778300333"/>
      <point x="1179.231360755799" y="494.9568160152895"/>
      <point x="1118.9316428172294" y="496.0" type="curve" smooth="yes"/>
      <point x="976.3676282087329" y="482.29462428111464" type="line"/>
      <point x="1067.9754382533506" y="705.4820962730366" type="line"/>
      <point x="1232.1317530908032" y="701.0" type="line" smooth="yes"/>
      <point x="1290.9510978689248" y="701.8468085870089"/>
      <point x="1342.813056847463" y="733.1565136330156"/>
      <point x="1355.0980678463989" y="789.5270364466614" type="curve" smooth="yes"/>
      <point x="1364.8665614623412" y="846.4694778300334"/>
      <point x="1317.8225562513917" y="883.9568160152895"/>
      <point x="1257.5228383128222" y="885.0" type="curve" smooth="yes"/>
      <point x="1148.1137529499724" y="867.5886837976492" type="line"/>
      <point x="1265.3565913292837" y="1133.9985229391211" type="line" smooth="yes"/>
      <point x="1285.9164206587561" y="1189.5058925037692"/>
      <point x="1217.0734499120008" y="1228.0128103950892"/>
      <point x="1163.179319676534" y="1229.0" type="curve" smooth="yes"/>
      <point x="1129.7226978215738" y="1228.6080177013318"/>
      <point x="1080.8924102584606" y="1213.7090584479813"/>
    </contour>
    <contour>
      <point x="670.292169953682" y="704.3513582986802" type="line"/>
      <point x="864.2378507838716" y="710.342971680251" type="line"/>
      <point x="771.3706522238818" y="492.6486417013197" type="line"/>
      <point x="577.4250019112703" y="486.6570283197489" type="line"/>
    </contour>
  </outline>
</glyph>
<glyph name="dollar" format="2">
  <advance width="1228"/>
  <unicode hex="0024"/>
  <outline>
    <contour>
      <point x="281.7883710942299" y="820.4729635533386" type="curve" smooth="yes"/>
      <point x="260.00443836835683" y="690.7613450965551"/>
      <point x="331.11165599771937" y="612.9993796796252"/>
      <point x="423.82080614314697" y="573.7367822109726" type="curve" smooth="yes"/>
      <point x="568.1424674540443" y="513.204092759033"/>
      <point x="778.7938161991926" y="523.1067068498994"/>
      <point x="875.5940511136213" y="481.3879388494275" type="curve" smooth="yes"/>
      <point x="920.7716520404396" y="462.1053266323747"/>
      <point x="929.9321277911803" y="442.7162299916352"/>
      <point x="919.1440963702984" y="391.4729635533386" type="curve" smooth="yes"/>
      <point x="909.1982438649437" y="300.20455510096014"/>
      <point x="841.0366788131705" y="239.39096087300345"/>
      <point x="675.7919357558623" y="240.0" type="curve" smooth="yes"/>
      <point x="551.562986015813" y="239.8000108654976"/>
      <point x="442.81134963948466" y="274.24327538912354"/>
      <point x="355.1261018543452" y="333.74960378285897" type="curve" smooth="yes"/>
      <point x="314.2144433226048" y="354.3492269788741"/>
      <point x="241.01280398208016" y="347.43386574032183"/>
      <point x="196.787628019276" y="292.20455510096014" type="curve" smooth="yes"/>
      <point x="158.41887755288832" y="238.38401485698705"/>
      <point x="170.8322397545308" y="188.01844233919667"/>
      <point x="218.09710631119782" y="162.04667242475932" type="curve" smooth="yes"/>
      <point x="310.64938916348507" y="105.86208625901784"/>
      <point x="425.83482232989024" y="71.65936290705298"/>
      <point x="505.9501442365862" y="73.56605867073051" type="curve"/>
      <point x="462.5169109420596" y="-156.52703644666138" type="line" smooth="yes"/>
      <point x="454.1852940798949" y="-208.90389690269524"/>
      <point x="506.16722086707784" y="-244.23373786561191"/>
      <point x="568.3264293405954" y="-245.0" type="curve" smooth="yes"/>
      <point x="629.3626868154658" y="-244.36100976080778"/>
      <point x="684.6193814598294" y="-214.93573822434752"/>
      <point x="697.0584552312316" y="-163.47296355333862" type="curve" smooth="yes"/>
      <point x="722.0991078944392" y="59.40031095476992" type="line"/>
      <point x="955.9276212709715" y="66.0520895569064"/>
      <point x="1130.1319710506343" y="198.80923626775876"/>
      <point x="1167.6856406594704" y="384.5270364466614" type="curve" smooth="yes"/>
      <point x="1192.5249776909138" y="532.5263402036278"/>
      <point x="1110.020013004488" y="615.4212752334317"/>
      <point x="1006.6691994238871" y="656.5112443672441" type="curve" smooth="yes"/>
      <point x="856.7531515615917" y="713.8224198753642"/>
      <point x="650.4372962981638" y="703.898503586271"/>
      <point x="561.7583857374656" y="743.5537232343855" type="curve" smooth="yes"/>
      <point x="525.2144031365124" y="759.7569371466839"/>
      <point x="521.6939586008646" y="774.2144901287851"/>
      <point x="530.3299153834018" y="813.5270364466614" type="curve" smooth="yes"/>
      <point x="539.7527533000803" y="907.1731916437324"/>
      <point x="609.7033008667274" y="955.5113339803266"/>
      <point x="743.9188061907533" y="955.0" type="curve" smooth="yes"/>
      <point x="860.629012500801" y="955.1724514067328"/>
      <point x="959.8712170633486" y="925.5593594265531"/>
      <point x="1047.403599645712" y="871.7647778644292" type="curve" smooth="yes"/>
      <point x="1090.5454625808745" y="852.457836244061"/>
      <point x="1163.3874636295318" y="861.0649987362607"/>
      <point x="1204.293133722603" y="917.3719243921413" type="curve" smooth="yes"/>
      <point x="1241.2891979366152" y="972.0697770394659"/>
      <point x="1226.842750562363" y="1022.351540194497"/>
      <point x="1178.553692924468" y="1047.3356603235427" type="curve" smooth="yes"/>
      <point x="1091.4660696490332" y="1095.305759139574"/>
      <point x="986.8859335165097" y="1123.999458502104"/>
      <point x="921.1663996835332" y="1120.3432576220655" type="curve"/>
      <point x="962.7832151588883" y="1343.5270364466614" type="line" smooth="yes"/>
      <point x="971.1148320210531" y="1395.9038969026951"/>
      <point x="919.1329052338701" y="1431.2337378656118"/>
      <point x="856.9736967603526" y="1432.0" type="curve" smooth="yes"/>
      <point x="795.9374392854821" y="1431.3610097608077"/>
      <point x="740.6807446411186" y="1401.9357382243475"/>
      <point x="728.2416708697164" y="1350.4729635533386" type="curve" smooth="yes"/>
      <point x="702.3298194982659" y="1134.760984259587" type="line"/>
      <point x="515.0619652889163" y="1130.0696259666697"/>
      <point x="322.5222971289696" y="1016.1913307084966"/>
    </contour>
  </outline>
</glyph>
<glyph name="percent" format="2">
  <advance width="1228"/>
  <unicode hex="0025"/>
  <outline>
    <contour>
      <point x="627.1636269939472" y="255.47296355333862" type="curve" smooth="yes"/>
      <point x="601.4986087837416" y="95.7403305794456"/>
      <point x="728.0873739848602" y="-39.97758403526234"/>
      <point x="900.1208064244138" y="-42.0" type="curve" smooth="yes"/>
      <point x="1069.5563622586697" y="-40.46604560986547"/>
      <point x="1236.5086976859877" y="90.39719108684123"/>
      <point x="1269.7051712831192" y="248.52703644666138" type="curve" smooth="yes"/>
      <point x="1295.370189493325" y="408.2596694205544"/>
      <point x="1168.781424292206" y="543.9775840352623"/>
      <point x="996.7479918526526" y="546.0" type="curve" smooth="yes"/>
      <point x="827.3124360183969" y="544.4660456098654"/>
      <point x="660.3601005910787" y="413.60280891315875"/>
    </contour>
    <contour>
      <point x="167.59495481782878" y="938.4729635533386" type="curve" smooth="yes"/>
      <point x="141.92993660762318" y="778.7403305794456"/>
      <point x="268.5187018087418" y="643.0224159647377"/>
      <point x="440.5521342482954" y="641.0" type="curve" smooth="yes"/>
      <point x="609.9876900825511" y="642.5339543901346"/>
      <point x="776.9400255098693" y="773.3971910868412"/>
      <point x="810.1364991070008" y="931.5270364466614" type="curve" smooth="yes"/>
      <point x="835.8015173172063" y="1091.2596694205545"/>
      <point x="709.2127521160878" y="1226.9775840352622"/>
      <point x="537.1793196765342" y="1229.0" type="curve" smooth="yes"/>
      <point x="367.74376384227844" y="1227.4660456098654"/>
      <point x="200.7914284149602" y="1096.6028089131587"/>
    </contour>
    <contour>
      <point x="139.09537678832692" y="244.5171808851095" type="line" smooth="yes"/>
      <point x="91.15248862047343" y="209.20455510096014"/>
      <point x="82.21127605979464" y="160.31039174902298"/>
      <point x="115.7470005419295" y="121.71685419242861" type="curve" smooth="yes"/>
      <point x="152.7382041658276" y="84.20718418766523"/>
      <point x="227.34297537189855" y="79.47013243301825"/>
      <point x="278.02968230530354" y="113.4828191148905" type="curve" smooth="yes"/>
      <point x="1298.3810762933297" y="943.4828191148905" type="line" smooth="yes"/>
      <point x="1346.323964461183" y="978.7954448990399"/>
      <point x="1355.2651770218617" y="1027.689608250977"/>
      <point x="1321.729452539727" y="1066.2831458075714" type="curve" smooth="yes"/>
      <point x="1284.738248915829" y="1103.7928158123348"/>
      <point x="1210.133477709758" y="1108.5298675669817"/>
      <point x="1159.4467707763527" y="1074.5171808851094" type="curve" smooth="yes"/>
    </contour>
    <contour>
      <point x="1045.163626993947" y="255.47296355333862" type="curve" smooth="yes"/>
      <point x="1037.850349676989" y="183.63304074817324"/>
      <point x="983.5273036722797" y="126.45206517271416"/>
      <point x="923.0433139165142" y="128.0" type="curve" smooth="yes"/>
      <point x="865.1787318157984" y="125.95680634566935"/>
      <point x="836.7856939132755" y="178.3042395413582"/>
      <point x="851.7051712831192" y="248.52703644666138" type="curve" smooth="yes"/>
      <point x="859.0184486000772" y="320.36695925182676"/>
      <point x="913.3414946047866" y="377.54793482728587"/>
      <point x="973.8254843605521" y="376.0" type="curve" smooth="yes"/>
      <point x="1031.6900664612679" y="378.04319365433065"/>
      <point x="1060.0831043637907" y="325.6957604586418"/>
    </contour>
    <contour>
      <point x="585.5949548178288" y="938.4729635533386" type="curve" smooth="yes"/>
      <point x="578.2816775008707" y="866.6330407481732"/>
      <point x="523.9586314961613" y="809.4520651727141"/>
      <point x="463.4746417403958" y="811.0" type="curve" smooth="yes"/>
      <point x="405.61005963968" y="808.9568063456693"/>
      <point x="377.2170217371571" y="861.3042395413582"/>
      <point x="392.13649910700076" y="931.5270364466614" type="curve" smooth="yes"/>
      <point x="399.4497764239589" y="1003.3669592518268"/>
      <point x="453.7728224286682" y="1060.5479348272859"/>
      <point x="514.2568121844337" y="1059.0" type="curve" smooth="yes"/>
      <point x="572.1213942851494" y="1061.0431936543307"/>
      <point x="600.5144321876725" y="1008.6957604586418"/>
    </contour>
  </outline>
</glyph>
<glyph name="ampersand" format="2">
  <advance width="1228"/>
  <unicode hex="0026"/>
  <outline>
    <contour>
      <point x="378.95005010720183" y="923.4729635533386" type="curve" smooth="yes"/>
      <point x="359.6871419128372" y="814.787328925679"/>
      <point x="382.9273536678958" y="727.9666654599646"/>
      <point x="430.3865050784594" y="671.0651694672564" type="curve"/>
      <point x="310.19476650929465" y="592.1888707633544"/>
      <point x="197.2964015884566" y="481.3684550460484"/>
      <point x="166.1538616821228" y="323.4729635533386" type="curve" smooth="yes"/>
      <point x="133.9742670263722" y="131.95131750183143"/>
      <point x="263.4505015708215" y="-40.05055832306106"/>
      <point x="512.1208064244138" y="-42.0" type="curve" smooth="yes"/>
      <point x="652.3419972424465" y="-41.41900248335157"/>
      <point x="784.053150249187" y="21.885735350549318"/>
      <point x="849.3778132354356" y="116.23958862605363" type="curve"/>
      <point x="916.1125952478258" y="-7.892184411062271" type="line" smooth="yes"/>
      <point x="951.2257284079753" y="-41.18803999911057"/>
      <point x="1016.7167119843709" y="-43.005392912623066"/>
      <point x="1070.8089195479529" y="-17.81643975997014" type="curve" smooth="yes"/>
      <point x="1133.1256583967265" y="11.860329404635763"/>
      <point x="1160.899889425129" y="60.009428259741846"/>
      <point x="1127.5194828778203" y="101.85980957028633" type="curve" smooth="yes"/>
      <point x="1011.7436643210295" y="262.49609873419246" type="line"/>
      <point x="1077.0046328167055" y="343.91707271341323"/>
      <point x="1143.547676777174" y="460.02816639321463"/>
      <point x="1200.7867979599853" y="582.6147768635201" type="curve" smooth="yes"/>
      <point x="1224.9433958941481" y="632.2440517849519"/>
      <point x="1199.2850813048817" y="681.2711626643813"/>
      <point x="1123.9345246327177" y="692.7694983871396" type="curve" smooth="yes"/>
      <point x="1064.0786738624647" y="701.0"/>
      <point x="1003.1954512086099" y="686.0020628212156"/>
      <point x="975.0067939775358" y="636.2494616111929" type="curve" smooth="yes"/>
      <point x="935.1325196973437" y="546.2867470557374"/>
      <point x="890.9985101323064" y="459.28249678727866"/>
      <point x="912.1365512897369" y="387.4707906277461" type="curve"/>
      <point x="678.9411181075367" y="710.8379937569254" type="line" smooth="yes"/>
      <point x="631.3320139541406" y="778.8782438071772"/>
      <point x="612.6118094981855" y="833.2392862661416"/>
      <point x="627.4915943963738" y="916.5270364466614" type="curve" smooth="yes"/>
      <point x="641.5082277184898" y="1018.5036855732943"/>
      <point x="707.6892412004908" y="1102.6383511943116"/>
      <point x="814.6625453741892" y="1101.0" type="curve" smooth="yes"/>
      <point x="890.7917915126648" y="1101.2707069097182"/>
      <point x="948.4044310904644" y="1077.3719600569718"/>
      <point x="1002.4256159903199" y="1033.9743428546935" type="curve" smooth="yes"/>
      <point x="1041.5298093106596" y="1012.0380890051122"/>
      <point x="1116.55177565762" y="1014.9870952726685"/>
      <point x="1162.7297357395914" y="1069.4109388643542" type="curve" smooth="yes"/>
      <point x="1204.104665943717" y="1124.505495334356"/>
      <point x="1194.425105624743" y="1171.725254202111"/>
      <point x="1150.9399674924775" y="1198.3860138031678" type="curve" smooth="yes"/>
      <point x="1068.7405670229023" y="1253.8182458433146"/>
      <point x="960.3809917553177" y="1288.746238673406"/>
      <point x="841.7589385190421" y="1289.0" type="curve" smooth="yes"/>
      <point x="606.8708435204469" y="1287.5592896462613"/>
      <point x="419.0594614858626" y="1125.8893241277215"/>
    </contour>
    <contour>
      <point x="733.5526651542802" y="236.26991247297127" type="line"/>
      <point x="676.5974318538694" y="187.20039498642083"/>
      <point x="613.421225675756" y="145.30594731383178"/>
      <point x="538.2171995692665" y="146.0" type="curve" smooth="yes"/>
      <point x="436.3443431410642" y="144.5189780000938"/>
      <point x="393.40556546260063" y="209.0656051338235"/>
      <point x="414.69540597129475" y="316.5270364466614" type="curve" smooth="yes"/>
      <point x="428.28903030799074" y="409.4541321300378"/>
      <point x="474.45018049420526" y="470.72283418663164"/>
      <point x="520.7024386180786" y="538.5735799442306" type="curve"/>
    </contour>
  </outline>
</glyph>
<glyph name="quotesingle" format="2">
  <advance width="1228"/>
  <unicode hex="0027"/>
  <outline>
    <contour>
      <point x="755.7589385190421" y="1289.0" type="line" smooth="yes"/>
      <point x="711.3446236030654" y="1288.0769072400187"/>
      <point x="663.490858770307" y="1261.3689034301995"/>
      <point x="658.0141800876679" y="1220.0919189255399" type="curve" smooth="yes"/>
      <point x="633.6663835601263" y="770.086914443257" type="line" smooth="yes"/>
      <point x="634.4479616227649" y="728.2137859846819"/>
      <point x="686.0019392447688" y="696.0115199468328"/>
      <point x="740.0737912065524" y="695.0" type="curve" smooth="yes"/>
      <point x="793.7051039502744" y="695.8234295837069"/>
      <point x="847.0186811577418" y="723.5876402839039"/>
      <point x="863.5934850087325" y="763.2842109744223" type="curve" smooth="yes"/>
      <point x="997.943791593748" y="1213.2886351659265" type="line" smooth="yes"/>
      <point x="1010.0683232042894" y="1254.8726285857908"/>
      <point x="965.7828771854195" y="1287.8526513645968"/>
      <point x="919.7589385190421" y="1289.0" type="curve" smooth="yes"/>
    </contour>
  </outline>
</glyph>
<glyph name="parenleft" format="2">
  <advance width="1228"/>
  <unicode hex="0028"/>
  <outline>
    <contour>
      <point x="340.8902768816904" y="520.4729635533386" type="curve" smooth="yes"/>
      <point x="266.2606719739664" y="90.63093815391053"/>
      <point x="475.94145719322967" y="-216.56849020213045"/>
      <point x="684.9419917963886" y="-353.6381700222836" type="curve" smooth="yes"/>
      <point x="740.7888505908638" y="-373.9552662689258"/>
      <point x="803.2915527960996" y="-347.9039746807687"/>
      <point x="832.488473387359" y="-315.2645263839728" type="curve" smooth="yes"/>
      <point x="860.1220958133473" y="-282.48451187811145"/>
      <point x="879.555437355438" y="-232.25025571560042"/>
      <point x="841.8542030974675" y="-203.95211847230172" type="curve" smooth="yes"/>
      <point x="673.1799097568609" y="-76.3352141518022"/>
      <point x="518.080455284719" y="149.31335965644206"/>
      <point x="583.4318211708623" y="513.5270364466614" type="curve" smooth="yes"/>
      <point x="644.1928286102573" y="878.7954667656231"/>
      <point x="882.5004713559634" y="1112.2566996752944"/>
      <point x="1098.1865408502263" y="1240.768731954549" type="curve" smooth="yes"/>
      <point x="1141.2152984389195" y="1263.9378997068832"/>
      <point x="1144.3553777896893" y="1314.6571196635925"/>
      <point x="1128.6514495126835" y="1348.8021095992508" type="curve" smooth="yes"/>
      <point x="1109.8708243867504" y="1383.150441647885"/>
      <point x="1048.7330411346322" y="1411.9530828445759"/>
      <point x="990.6421818350569" y="1392.598047488027" type="curve" smooth="yes"/>
      <point x="736.0689531649152" y="1256.6943965212722"/>
      <point x="420.18939953209826" y="949.2498108275499"/>
    </contour>
  </outline>
</glyph>
<glyph name="parenright" format="2">
  <advance width="1228"/>
  <unicode hex="0029"/>
  <outline>
    <contour>
      <point x="578.5389325880277" y="1353.2645263839727" type="curve" smooth="yes"/>
      <point x="550.9053101620394" y="1320.4845118781116"/>
      <point x="531.4719686199486" y="1270.2502557156004"/>
      <point x="569.1732028779192" y="1241.9521184723017" type="curve" smooth="yes"/>
      <point x="737.6367463495135" y="1114.42967006604"/>
      <point x="892.224317306434" y="884.7299032761579"/>
      <point x="826.8902768816904" y="520.4729635533386" type="curve" smooth="yes"/>
      <point x="766.168548721454" y="155.23603635530915"/>
      <point x="528.6990133715095" y="-74.20078581736375"/>
      <point x="312.8408651251603" y="-202.76873195454885" type="curve" smooth="yes"/>
      <point x="269.81210753646707" y="-225.9378997068832"/>
      <point x="266.6720281856974" y="-276.65711966359265"/>
      <point x="282.3759564627033" y="-310.8021095992509" type="curve" smooth="yes"/>
      <point x="301.1565815886362" y="-345.150441647885"/>
      <point x="362.2943648407543" y="-373.95308284457593"/>
      <point x="420.3852241403297" y="-354.59804748802696" type="curve" smooth="yes"/>
      <point x="674.8125948447548" y="-218.74221155103305"/>
      <point x="990.0991991195697" y="84.72347971932746"/>
      <point x="1069.4318211708623" y="513.5270364466614" type="curve" smooth="yes"/>
      <point x="1144.0764197912872" y="943.3322986910093"/>
      <point x="935.264061699922" y="1254.4876801086843"/>
      <point x="726.085414178998" y="1391.6381700222837" type="curve" smooth="yes"/>
      <point x="670.2385553845228" y="1411.9552662689257"/>
      <point x="607.735853179287" y="1385.9039746807687"/>
    </contour>
  </outline>
</glyph>
<glyph name="asterisk" format="2">
  <advance width="1228"/>
  <unicode hex="002A"/>
  <outline>
    <contour>
      <point x="1173.4363832754589" y="627.3833411584375" type="line" smooth="yes"/>
      <point x="1248.186362632109" y="642.6341578229093"/>
      <point x="1305.247930739607" y="696.277548336993"/>
      <point x="1297.4001816048026" y="767.8503158238287" type="curve" smooth="yes"/>
      <point x="1280.9913351869009" y="839.5247084603684"/>
      <point x="1196.1254405435163" y="867.9749877116639"/>
      <point x="1121.6771557588118" y="842.4345419239488" type="curve" smooth="yes"/>
      <point x="814.3148782849805" y="689.0180946915453" type="line"/>
      <point x="934.6988015245183" y="1024.4028742214568" type="line" smooth="yes"/>
      <point x="952.8194705751615" y="1090.8266189085664"/>
      <point x="897.9941512310404" y="1145.493964555863"/>
      <point x="812.72050725844" y="1147.0" type="curve" smooth="yes"/>
      <point x="729.6166928343506" y="1145.8408316608545"/>
      <point x="662.1558868156814" y="1097.1216059318656"/>
      <point x="654.7043363896566" y="1031.207383003188" type="curve" smooth="yes"/>
      <point x="655.1577727778322" y="690.4229504402214" type="line"/>
      <point x="399.5910899629779" y="841.9234956448404" type="line" smooth="yes"/>
      <point x="330.94355218511834" y="867.9746017460528"/>
      <point x="244.74701836562468" y="842.9362976980505"/>
      <point x="204.90000296582187" y="773.8960831051728" type="curve" smooth="yes"/>
      <point x="167.94254046737703" y="703.3669307955844"/>
      <point x="207.4466217341555" y="643.7341925419073"/>
      <point x="281.07311176548" y="627.4397698519153" type="curve" smooth="yes"/>
      <point x="583.9979642236932" y="573.1891881196387" type="line"/>
      <point x="298.9682030862524" y="312.6884522073358" type="line" smooth="yes"/>
      <point x="242.12040996839343" y="263.92935856357"/>
      <point x="236.5986970927276" y="198.0295117730755"/>
      <point x="296.9594807023238" y="151.55219808088836" type="curve" smooth="yes"/>
      <point x="364.1266157153343" y="108.5766628576147"/>
      <point x="453.6746876884093" y="126.89470187315548"/>
      <point x="503.57206801270905" y="181.98037717804817" type="curve" smooth="yes"/>
      <point x="704.2962836671421" y="494.1590576171875" type="line"/>
      <point x="786.6180054917596" y="186.59571677133906" type="line" smooth="yes"/>
      <point x="818.0668542367293" y="128.94455021117062"/>
      <point x="907.8772331855549" y="107.4828605630352"/>
      <point x="985.3968522722143" y="150.17479204506822" type="curve" smooth="yes"/>
      <point x="1057.0230266650753" y="193.10933853184991"/>
      <point x="1079.714908828798" y="258.20351119544307"/>
      <point x="1039.3243812899775" y="309.7865399036433" type="curve" smooth="yes"/>
      <point x="841.8260445107092" y="566.8824028035751" type="line"/>
    </contour>
  </outline>
</glyph>
<glyph name="plus" format="2">
  <advance width="1228"/>
  <unicode hex="002B"/>
  <outline>
    <contour>
      <point x="348.3178453833361" y="674.0" type="line" smooth="yes"/>
      <point x="289.4985006052145" y="673.1531914129911"/>
      <point x="237.63654162667632" y="641.8434863669843"/>
      <point x="225.35153062774066" y="585.4729635533386" type="curve" smooth="yes"/>
      <point x="215.58303701179827" y="528.5305221699666"/>
      <point x="262.6270422227476" y="491.0431839847105"/>
      <point x="322.92676016131713" y="490.0" type="curve" smooth="yes"/>
      <point x="594.876719952671" y="497.28453396519654" type="line"/>
      <point x="530.1709509778154" y="204.47296355333862" type="line" smooth="yes"/>
      <point x="521.9780308270737" y="153.20503196641116"/>
      <point x="574.188218552499" y="118.65077302112586"/>
      <point x="638.3331233377681" y="118.0" type="curve" smooth="yes"/>
      <point x="701.5105203740228" y="118.54980632641625"/>
      <point x="756.5459364622486" y="147.14496845318882"/>
      <point x="768.7124952669874" y="197.52703644666138" type="curve" smooth="yes"/>
      <point x="807.0160874405807" y="494.76199396221944" type="line"/>
      <point x="1084.9267601613171" y="490.0" type="line" smooth="yes"/>
      <point x="1143.7461049394387" y="490.8468085870089"/>
      <point x="1195.6080639179768" y="522.1565136330157"/>
      <point x="1207.8930749169126" y="578.5270364466614" type="curve" smooth="yes"/>
      <point x="1217.661568532855" y="635.4694778300333"/>
      <point x="1170.6175633219057" y="672.9568160152895"/>
      <point x="1110.3178453833361" y="674.0" type="curve" smooth="yes"/>
      <point x="838.3678855919823" y="666.7154660348035" type="line"/>
      <point x="903.0736545668377" y="959.5270364466614" type="line" smooth="yes"/>
      <point x="911.2665747175795" y="1010.7949680335888"/>
      <point x="859.0563869921541" y="1045.3492269788742"/>
      <point x="794.911482206885" y="1046.0" type="curve" smooth="yes"/>
      <point x="731.7340851706304" y="1045.4501936735837"/>
      <point x="676.6986690824045" y="1016.8550315468112"/>
      <point x="664.5321102776658" y="966.4729635533386" type="curve" smooth="yes"/>
      <point x="626.2285181040726" y="669.2380060377806" type="line"/>
    </contour>
  </outline>
</glyph>
<glyph name="comma" format="2">
  <advance width="1228"/>
  <unicode hex="002C"/>
  <outline>
    <contour>
      <point x="571.8401323282887" y="314.0" type="line" smooth="yes"/>
      <point x="530.7691214987262" y="313.2441760485363"/>
      <point x="484.45600605634627" y="292.2645263839728"/>
      <point x="467.7874139517862" y="260.9601105082702" type="curve" smooth="yes"/>
      <point x="288.7945007190937" y="-221.0436043096104" type="line" smooth="yes"/>
      <point x="270.4224351405179" y="-270.71542646310996"/>
      <point x="321.30954953178946" y="-313.01875924773896"/>
      <point x="392.1598676717113" y="-314.0" type="curve" smooth="yes"/>
      <point x="446.2227260620853" y="-313.71582096390335"/>
      <point x="499.9185099463815" y="-296.1030384887081"/>
      <point x="526.2972883864387" y="-263.4626845961666" type="curve" smooth="yes"/>
      <point x="823.6417433598134" y="220.53880640891003" type="line" smooth="yes"/>
      <point x="850.4068673988331" y="261.045551845355"/>
      <point x="827.2831904644974" y="310.1104717274602"/>
      <point x="765.8401323282887" y="314.0" type="curve" smooth="yes"/>
    </contour>
  </outline>
</glyph>
<glyph name="slash" format="2">
  <advance width="1228"/>
  <unicode hex="002F"/>
  <outline>
    <contour>
      <point x="1071.0312452692292" y="1368.1063595581404" type="curve" smooth="yes"/>
      <point x="109.31769048848547" y="-274.8995667100814" type="line" smooth="yes"/>
      <point x="80.58200256151403" y="-328.8298221718961"/>
      <point x="150.57445794570498" y="-374.15192335207047"/>
      <point x="227.40392184849492" y="-375.0" type="curve" smooth="yes"/>
      <point x="271.2982917016632" y="-374.3762274064447"/>
      <point x="318.44995051766847" y="-354.755926106044"/>
      <point x="340.172487686866" y="-329.10635955814035" type="curve" smooth="yes"/>
      <point x="1301.8860424676097" y="1313.8995667100814" type="line" smooth="yes"/>
      <point x="1330.621730394581" y="1367.8298221718962"/>
      <point x="1260.62927501039" y="1413.1519233520705"/>
      <point x="1183.7998111076001" y="1414.0" type="curve" smooth="yes"/>
      <point x="1139.905441254432" y="1413.3762274064447"/>
      <point x="1092.7537824384267" y="1393.755926106044"/>
    </contour>
  </outline>
</glyph>
<glyph name="zero" format="2">
  <advance width="1228"/>
  <unicode hex="0030"/>
  <outline>
    <contour>
      <point x="247.29112741553377" y="596.4729635533386" type="curve" smooth="yes"/>
      <point x="181.51559609602043" y="221.20053431236963"/>
      <point x="324.1494370038502" y="-38.81954865883483"/>
      <point x="610.1208064244138" y="-42.0" type="curve" smooth="yes"/>
      <point x="892.4128551036214" y="-39.71232585229532"/>
      <point x="1121.2074690899092" y="214.8993900354929"/>
      <point x="1189.8326717047057" y="589.5270364466614" type="curve" smooth="yes"/>
      <point x="1255.6100531286252" y="964.7909121013622"/>
      <point x="1113.2340380688472" y="1225.7971540325518"/>
      <point x="827.1793196765342" y="1229.0" type="curve" smooth="yes"/>
      <point x="544.8226083308756" y="1226.6981708967755"/>
      <point x="315.9092962372851" y="971.09399095333"/>
    </contour>
    <contour>
      <point x="402.21269286880477" y="428.3032623296891" type="line"/>
      <point x="479.8264737942379" y="465.54967283724466"/>
      <point x="484.40527006158914" y="523.776871111369"/>
      <point x="495.8326717047057" y="589.5270364466614" type="curve" smooth="yes"/>
      <point x="545.3975062278613" y="883.2901897947661"/>
      <point x="667.7489877507356" y="1043.5999004913049"/>
      <point x="801.0829265316813" y="1041.0" type="curve" smooth="yes"/>
      <point x="869.4619610243775" y="1041.9993530159977"/>
      <point x="907.4523643770813" y="1001.7083382918569"/>
      <point x="942.9249169172283" y="936.5130872294162" type="curve"/>
    </contour>
    <contour>
      <point x="941.2911274155338" y="596.4729635533386" type="curve" smooth="yes"/>
      <point x="891.7344409028967" y="302.71793147798815"/>
      <point x="769.6462190098467" y="143.422491427647"/>
      <point x="636.2171995692665" y="146.0" type="curve" smooth="yes"/>
      <point x="567.897395275501" y="145.0165511401715"/>
      <point x="529.9492800675853" y="184.87666044928565"/>
      <point x="494.47890235414536" y="249.37280076946064" type="curve"/>
      <point x="1034.947254285171" y="757.5610348379278" type="line"/>
      <point x="957.2902683343098" y="720.3086154185288"/>
      <point x="952.699593248247" y="662.114265373538"/>
    </contour>
  </outline>
</glyph>
<glyph name="one" format="2">
  <advance width="1228"/>
  <unicode hex="0031"/>
  <outline>
    <contour>
      <point x="398.4164105083688" y="985.4930303836196" type="line" smooth="yes"/>
      <point x="354.3592380384714" y="964.0539777436693"/>
      <point x="321.34377513990916" y="915.2765131827915"/>
      <point x="342.833904037533" y="862.5760293096193" type="curve" smooth="yes"/>
      <point x="373.83313000394463" y="808.1995627498202"/>
      <point x="451.1437590635462" y="803.6379541738047"/>
      <point x="491.40330326739473" y="821.5526817298637" type="curve" smooth="yes"/>
      <point x="697.0443291992627" y="990.4198490433023" type="line"/>
      <point x="551.3352541782086" y="152.84075369468457" type="line"/>
      <point x="325.39108522201894" y="164.0" type="line" smooth="yes"/>
      <point x="266.57174044389734" y="163.15319141299105"/>
      <point x="214.70978146535919" y="131.8434863669843"/>
      <point x="202.42477046642347" y="75.4729635533386" type="curve" smooth="yes"/>
      <point x="192.6562768504811" y="18.530522169966645"/>
      <point x="239.7002820614305" y="-18.95681601528952"/>
      <point x="300.0" y="-20.0" type="curve" smooth="yes"/>
      <point x="974.0" y="-20.0" type="line" smooth="yes"/>
      <point x="1032.8193447781216" y="-19.15319141299105"/>
      <point x="1084.6813037566596" y="12.156513633015702"/>
      <point x="1096.9663147555955" y="68.5270364466614" type="curve" smooth="yes"/>
      <point x="1106.7348083715378" y="125.46947783003331"/>
      <point x="1059.6908031605885" y="162.95681601528952"/>
      <point x="999.391085222019" y="164.0" type="curve" smooth="yes"/>
      <point x="792.2552184041322" y="145.50374271062108" type="line"/>
      <point x="970.2810888242799" y="1153.5270364466614" type="line" smooth="yes"/>
      <point x="973.9656757810789" y="1221.0971696281213"/>
      <point x="878.1824931285497" y="1243.8613722863804"/>
      <point x="816.3332076695206" y="1217.495093801482" type="curve" smooth="yes"/>
    </contour>
  </outline>
</glyph>
<glyph name="two" format="2">
  <advance width="1228"/>
  <unicode hex="0032"/>
  <outline>
    <contour>
      <point x="408.53739446622194" y="1111.9336697582773" type="curve" smooth="yes"/>
      <point x="363.2210193156005" y="1085.774317631997"/>
      <point x="335.8624511345323" y="1040.5305221699666"/>
      <point x="359.7390960400757" y="987.8956516925836" type="curve" smooth="yes"/>
      <point x="391.9586981930124" y="935.3018116507998"/>
      <point x="469.7785824125815" y="926.632209777805"/>
      <point x="516.2211393032443" y="950.1116603348645" type="curve" smooth="yes"/>
      <point x="604.4486131679458" y="1007.9230702011427"/>
      <point x="697.597849968449" y="1041.3172025948543"/>
      <point x="778.0829265316813" y="1041.0" type="curve" smooth="yes"/>
      <point x="909.267740675366" y="1042.2673713589986"/>
      <point x="945.0950082692358" y="976.7081189876699"/>
      <point x="923.1941042839854" y="862.4729635533386" type="curve" smooth="yes"/>
      <point x="909.5176828016873" y="768.4630359985068"/>
      <point x="856.968952898298" y="701.4572214658141"/>
      <point x="720.8461986821659" y="583.1602481450641" type="curve" smooth="yes"/>
      <point x="202.18643465082965" y="137.15381635110066" type="line" smooth="yes"/>
      <point x="182.47162363568253" y="122.60053810648915"/>
      <point x="167.50638599810844" y="99.61661583358094"/>
      <point x="161.71946254358966" y="71.4729635533386" type="curve" smooth="yes"/>
      <point x="152.36025451510704" y="16.23928491517533"/>
      <point x="201.17053609721006" y="-19.151923352070455"/>
      <point x="260.0" y="-20.0" type="curve" smooth="yes"/>
      <point x="954.0" y="-20.0" type="line" smooth="yes"/>
      <point x="1012.8193447781216" y="-19.153191412991053"/>
      <point x="1064.6813037566599" y="12.156513633015702"/>
      <point x="1076.9663147555955" y="68.52703644666143" type="curve" smooth="yes"/>
      <point x="1086.7348083715378" y="125.46947783003331"/>
      <point x="1039.6908031605885" y="162.95681601528952"/>
      <point x="979.391085222019" y="164.0" type="curve" smooth="yes"/>
      <point x="511.15487375096814" y="151.0917478623981" type="line"/>
      <point x="884.4259323783298" y="461.8434945908509" type="line" smooth="yes"/>
      <point x="1038.524488624783" y="593.6027834161619"/>
      <point x="1142.2525702483288" y="705.4169217090976"/>
      <point x="1171.7356485731575" y="855.5270364466614" type="curve" smooth="yes"/>
      <point x="1209.9752962204218" y="1084.8916669619834"/>
      <point x="1052.3610548557178" y="1227.8292374168416"/>
      <point x="803.1793196765342" y="1229.0" type="curve" smooth="yes"/>
      <point x="676.2155594921406" y="1228.7228123510738"/>
      <point x="527.6887618418224" y="1184.19861354205"/>
    </contour>
  </outline>
</glyph>
<glyph name="three" format="2">
  <advance width="1228"/>
  <unicode hex="0033"/>
  <outline>
    <contour>
      <point x="420.5513609158921" y="1130.6220160233233" type="curve" smooth="yes"/>
      <point x="373.72635857064495" y="1107.524069644001"/>
      <point x="342.43998402998903" y="1062.729096114837"/>
      <point x="362.71018916223323" y="1007.1368855613924" type="curve" smooth="yes"/>
      <point x="390.897647527671" y="953.1424012654364"/>
      <point x="466.9891475257515" y="943.4555350118295"/>
      <point x="513.002590608595" y="963.4513993482288" type="curve" smooth="yes"/>
      <point x="607.0334619795523" y="1016.5512515226133"/>
      <point x="687.9605941957492" y="1041.2063698890474"/>
      <point x="768.0829265316813" y="1041.0" type="curve" smooth="yes"/>
      <point x="898.1384247413923" y="1041.99405307688"/>
      <point x="935.3846355259485" y="985.8095862868219"/>
      <point x="914.7206438981548" y="882.4729635533386" type="curve" smooth="yes"/>
      <point x="899.2570681179973" y="767.2461806771709"/>
      <point x="837.291374935822" y="710.3042310797364"/>
      <point x="696.8419436695493" y="711.0" type="curve" smooth="yes"/>
      <point x="641.8419436695493" y="711.0" type="line" smooth="yes"/>
      <point x="584.2432060494873" y="710.2987829314587"/>
      <point x="531.7496746947604" y="681.0706043073109"/>
      <point x="519.5809368367877" y="626.4729635533387" type="curve" smooth="yes"/>
      <point x="510.22172880830504" y="571.2392849151753"/>
      <point x="559.0320103904081" y="535.8480766479296"/>
      <point x="617.8614742931981" y="535.0" type="curve" smooth="yes"/>
      <point x="690.8614742931981" y="535.0" type="line" smooth="yes"/>
      <point x="832.1651238920252" y="535.8314766040262"/>
      <point x="883.1297884668679" y="478.5928352832099"/>
      <point x="857.5620361998344" y="348.4729635533386" type="curve" smooth="yes"/>
      <point x="839.9207490631056" y="222.95099746603432"/>
      <point x="764.5618286687353" y="145.0449947117559"/>
      <point x="610.2171995692665" y="146.0" type="curve" smooth="yes"/>
      <point x="513.8245001286427" y="145.59529677113682"/>
      <point x="429.66779661416496" y="185.06174853085395"/>
      <point x="362.41606845259076" y="247.08789508674" type="curve" smooth="yes"/>
      <point x="318.8714837503573" y="273.24259270614624"/>
      <point x="243.15870641221355" y="265.31993490189933"/>
      <point x="196.23753566227947" y="215.4546654469471" type="curve" smooth="yes"/>
      <point x="153.52857182873854" y="164.8434863669843"/>
      <point x="160.1840973258595" y="116.74472575548003"/>
      <point x="198.56998671243133" y="88.6491891415494" type="curve" smooth="yes"/>
      <point x="296.22654680304015" y="10.61043257995502"/>
      <point x="442.19467835444425" y="-41.65114252084952"/>
      <point x="584.1208064244138" y="-42.0" type="curve" smooth="yes"/>
      <point x="861.721904335778" y="-40.91412310340709"/>
      <point x="1062.0986169856938" y="117.97086011378559"/>
      <point x="1106.1035804890064" y="341.5270364466614" type="curve" smooth="yes"/>
      <point x="1130.956978188519" y="486.52894646544036"/>
      <point x="1060.6516396039624" y="596.8961776307856"/>
      <point x="967.1040684497839" y="632.6227317040394" type="curve"/>
      <point x="1049.128578035506" y="662.8771282012797"/>
      <point x="1138.3435137830852" y="751.3993192785763"/>
      <point x="1163.2621881873267" y="875.5270364466614" type="curve" smooth="yes"/>
      <point x="1197.6767395320092" y="1085.3607599661657"/>
      <point x="1040.4410485738538" y="1227.8172690211663"/>
      <point x="793.1793196765342" y="1229.0" type="curve" smooth="yes"/>
      <point x="672.4145937386011" y="1228.800386162518"/>
      <point x="543.269443404044" y="1194.5250984526042"/>
    </contour>
  </outline>
</glyph>
<glyph name="four" format="2">
  <advance width="1228"/>
  <unicode hex="0034"/>
  <outline>
    <contour>
      <point x="806.7631459203466" y="1160.9101306575185" type="curve" smooth="yes"/>
      <point x="195.29684187761532" y="437.91905005626325" type="line" smooth="yes"/>
      <point x="182.10505861781368" y="425.3514849257803"/>
      <point x="169.08382276725735" y="402.8264591239631"/>
      <point x="164.02817260179685" y="379.4729635533386" type="curve" smooth="yes"/>
      <point x="154.69301218250462" y="324.1293705485618"/>
      <point x="200.61876409832274" y="283.39821012963125"/>
      <point x="263.2507481739564" y="282.0" type="curve" smooth="yes"/>
      <point x="717.5270447881858" y="284.6135334715636" type="line"/>
      <point x="650.4272117943796" y="58.47296355333861" type="line" smooth="yes"/>
      <point x="641.8279847200774" y="6.998181356345454"/>
      <point x="691.7709098540732" y="-29.313762199313114"/>
      <point x="760.2367301929154" y="-30.0" type="curve" smooth="yes"/>
      <point x="762.2367301929154" y="-30.0" type="line" smooth="yes"/>
      <point x="829.6868849125838" y="-29.422629435359"/>
      <point x="883.3058430105613" y="0.7435024883043901"/>
      <point x="894.9687560835515" y="51.52703644666139" type="curve" smooth="yes"/>
      <point x="928.1459725557437" y="289.2066205149349" type="line"/>
      <point x="1053.2507481739565" y="282.0" type="line" smooth="yes"/>
      <point x="1112.070092952078" y="282.8468085870089"/>
      <point x="1163.9320519306161" y="314.1565136330157"/>
      <point x="1176.217062929552" y="370.5270364466614" type="curve" smooth="yes"/>
      <point x="1185.9855565454943" y="427.4694778300333"/>
      <point x="1138.941551334545" y="464.9568160152895"/>
      <point x="1078.6418333959755" y="466.0" type="curve" smooth="yes"/>
      <point x="964.5551801385801" y="447.2012149465149" type="line"/>
      <point x="1084.69658732586" y="1127.5270364466614" type="line" smooth="yes"/>
      <point x="1093.2218812490637" y="1180.8542006314433"/>
      <point x="1043.2380096747545" y="1227.6943669822058"/>
      <point x="964.1793196765342" y="1229.0" type="curve" smooth="yes"/>
      <point x="901.3694698367352" y="1228.4862270913873"/>
      <point x="845.7972856236033" y="1203.960755804667"/>
    </contour>
    <contour>
      <point x="729.8378578724613" y="458.7247083409873" type="line"/>
      <point x="467.79334237613045" y="442.2561346267463" type="line"/>
      <point x="870.9163648627973" y="972.0" type="line"/>
    </contour>
  </outline>
</glyph>
<glyph name="five" format="2">
  <advance width="1228"/>
  <unicode hex="0035"/>
  <outline>
    <contour>
      <point x="560.3001261009479" y="1207.0" type="line" smooth="yes"/>
      <point x="492.7086949035813" y="1206.4080753650235"/>
      <point x="440.4859583689908" y="1176.4869651606552"/>
      <point x="426.92690882079455" y="1126.2341960524914" type="curve" smooth="yes"/>
      <point x="318.76341846656203" y="626.2341960524914" type="line" smooth="yes"/>
      <point x="307.8839566004363" y="573.6958312920813"/>
      <point x="361.22376812813854" y="537.6340466279996"/>
      <point x="429.214128254615" y="537.0" type="curve" smooth="yes"/>
      <point x="455.84657893320883" y="537.0573508823131"/>
      <point x="484.5056089107887" y="541.1091236621139"/>
      <point x="505.9902823406772" y="549.9301088452255" type="curve" smooth="yes"/>
      <point x="575.0774447409822" y="594.0493118644075"/>
      <point x="632.898692138494" y="618.2392380118384"/>
      <point x="720.4966136920007" y="618.0" type="curve" smooth="yes"/>
      <point x="851.551892909954" y="619.8082736252402"/>
      <point x="901.0966920748536" y="530.0652876303038"/>
      <point x="874.7914424088815" y="389.4729635533386" type="curve" smooth="yes"/>
      <point x="852.7605132186919" y="239.83548433261572"/>
      <point x="758.7289355340397" y="144.78301329356458"/>
      <point x="610.2171995692665" y="146.0" type="curve" smooth="yes"/>
      <point x="516.5881090888538" y="145.61516054990528"/>
      <point x="433.4625389633731" y="183.2740098007324"/>
      <point x="366.5527424232673" y="241.37344912131576" type="curve" smooth="yes"/>
      <point x="323.8135218661065" y="267.24259270614624"/>
      <point x="248.10074452796275" y="259.31993490189933"/>
      <point x="201.17957377802867" y="209.4546654469471" type="curve" smooth="yes"/>
      <point x="158.01411601811208" y="158.38141968138095"/>
      <point x="167.36334787835492" y="109.46158338240329"/>
      <point x="206.04107191695843" y="81.40843932162514" type="curve" smooth="yes"/>
      <point x="303.41112154651216" y="7.4448510113453565"/>
      <point x="445.50891496754576" y="-41.67547174684661"/>
      <point x="584.1208064244138" y="-42.0" type="curve" smooth="yes"/>
      <point x="859.4090170090428" y="-40.65772560599117"/>
      <point x="1076.4422188298963" y="142.0516325975141"/>
      <point x="1123.3329866980537" y="382.5270364466614" type="curve" smooth="yes"/>
      <point x="1164.3775105582886" y="622.5654177968994"/>
      <point x="1023.9056661456108" y="804.1209088860153"/>
      <point x="759.5930068368534" y="806.0" type="curve" smooth="yes"/>
      <point x="674.4318715991077" y="805.8345605913285"/>
      <point x="587.8637083426818" y="784.6714330173933"/>
      <point x="582.7167700804935" y="730.179155335405" type="curve"/>
      <point x="626.85117389169" y="1025.7439824260546" type="line"/>
      <point x="1068.9090408789289" y="1023.0" type="line" smooth="yes"/>
      <point x="1127.7283856570505" y="1023.8468085870089"/>
      <point x="1179.5903446355887" y="1055.1565136330157"/>
      <point x="1191.8753556345246" y="1111.5270364466614" type="curve" smooth="yes"/>
      <point x="1201.643849250467" y="1168.4694778300334"/>
      <point x="1154.5998440395174" y="1205.9568160152896"/>
      <point x="1094.3001261009479" y="1207.0" type="curve" smooth="yes"/>
    </contour>
  </outline>
</glyph>
<glyph name="six" format="2">
  <advance width="1228"/>
  <unicode hex="0036"/>
  <outline>
    <contour>
      <point x="246.0086419781481" y="515.4729635533386" type="curve" smooth="yes"/>
      <point x="220.01767063597708" y="369.4672393117801"/>
      <point x="227.7258296641856" y="254.82567264783705"/>
      <point x="265.0459068869268" y="165.4604344313006" type="curve" smooth="yes"/>
      <point x="326.45757449166746" y="29.830290868114194"/>
      <point x="468.4596268058016" y="-41.40082011574825"/>
      <point x="622.1208064244138" y="-42.0" type="curve" smooth="yes"/>
      <point x="885.4792537710077" y="-40.80270924816308"/>
      <point x="1099.0372482206367" y="125.63897434651062"/>
      <point x="1143.5141963346741" y="349.5270364466614" type="curve" smooth="yes"/>
      <point x="1182.899408274581" y="586.0359576931597"/>
      <point x="1016.3762019594415" y="749.458126506059"/>
      <point x="776.8950228978879" y="751.0" type="curve" smooth="yes"/>
      <point x="652.6480514658649" y="750.5389549312149"/>
      <point x="520.38609945919" y="697.3358911842778"/>
      <point x="509.8528048485596" y="589.25121834307" type="curve"/>
      <point x="586.1457299951682" y="850.1535630802094"/>
      <point x="770.6399788903443" y="1024.1045567419856"/>
      <point x="1127.677203167117" y="1042.0253914677005" type="curve" smooth="yes"/>
      <point x="1171.8446781718762" y="1044.897913276662"/>
      <point x="1215.9008345493482" y="1077.2019741834301"/>
      <point x="1223.1780826239387" y="1140.2347625253801" type="curve" smooth="yes"/>
      <point x="1226.7859236209" y="1201.5834356829548"/>
      <point x="1170.5821576255344" y="1229.4452822554174"/>
      <point x="1128.0286607238506" y="1228.979914680424" type="curve" smooth="yes"/>
      <point x="581.1519946477836" y="1203.0255803761656"/>
      <point x="306.42674165957214" y="842.3377755708983"/>
    </contour>
    <contour>
      <point x="894.9726520455022" y="356.4729635533386" type="curve" smooth="yes"/>
      <point x="877.3143392961786" y="226.5542619704529"/>
      <point x="786.031657618414" y="144.97274779699976"/>
      <point x="648.2171995692665" y="146.0" type="curve" smooth="yes"/>
      <point x="513.0898474786264" y="144.38922899987801"/>
      <point x="458.733512155129" y="231.6103237712348"/>
      <point x="484.1591010453011" y="364.5270364466614" type="curve" smooth="yes"/>
      <point x="499.1707955506434" y="483.8751368789449"/>
      <point x="595.6970773048891" y="563.987776864165"/>
      <point x="728.7986297530351" y="563.0" type="curve" smooth="yes"/>
      <point x="868.6531556293635" y="564.3194214923362"/>
      <point x="920.13614706578" y="487.2332036271085"/>
    </contour>
  </outline>
</glyph>
<glyph name="seven" format="2">
  <advance width="1228"/>
  <unicode hex="0037"/>
  <outline>
    <contour>
      <point x="471.3001261009479" y="1207.0" type="line" smooth="yes"/>
      <point x="412.4807813228263" y="1206.153191412991"/>
      <point x="360.61882234428816" y="1174.8434863669843"/>
      <point x="348.3338113453525" y="1118.4729635533386" type="curve" smooth="yes"/>
      <point x="338.56531772941" y="1061.5305221699666"/>
      <point x="385.60932294035945" y="1024.0431839847104"/>
      <point x="445.909040878929" y="1023.0" type="curve" smooth="yes"/>
      <point x="985.63914838025" y="1042.7980797943123" type="line"/>
      <point x="414.4361909381486" y="66.09402164578314" type="line" smooth="yes"/>
      <point x="384.7273319009687" y="16.171583095577695"/>
      <point x="428.52465492712463" y="-29.471889309076044"/>
      <point x="486.90381169651846" y="-39.67867360056034" type="curve" smooth="yes"/>
      <point x="544.0380165685096" y="-47.931296959741594"/>
      <point x="610.7970765300535" y="-28.238006037780593"/>
      <point x="642.7502245529457" y="13.963397110433403" type="curve" smooth="yes"/>
      <point x="1254.7800793938416" y="1068.9669099536684" type="line" smooth="yes"/>
      <point x="1261.647879522226" y="1078.988291049743"/>
      <point x="1269.6520308668946" y="1096.7852976013098"/>
      <point x="1273.580663557358" y="1115.5270364466614" type="curve" smooth="yes"/>
      <point x="1282.939871585841" y="1170.7607150848246"/>
      <point x="1234.1295900037378" y="1206.1519233520705"/>
      <point x="1175.3001261009479" y="1207.0" type="curve" smooth="yes"/>
    </contour>
  </outline>
</glyph>
<glyph name="eight" format="2">
  <advance width="1228"/>
  <unicode hex="0038"/>
  <outline>
    <contour>
      <point x="354.7206438981548" y="882.4729635533386" type="curve" smooth="yes"/>
      <point x="334.7884754579538" y="762.5441400738986"/>
      <point x="403.33589534167464" y="665.7034548474155"/>
      <point x="476.6635711199615" y="637.5765537888938" type="curve"/>
      <point x="367.8054230811482" y="593.5542699060782"/>
      <point x="251.4594576828128" y="485.31800722604123"/>
      <point x="222.68040129629213" y="343.4729635533386" type="curve" smooth="yes"/>
      <point x="187.03893801833044" y="125.37136014982546"/>
      <point x="358.07143488200916" y="-40.532161360034245"/>
      <point x="610.1208064244138" y="-42.0" type="curve" smooth="yes"/>
      <point x="860.179219770099" y="-40.84755805367507"/>
      <point x="1081.4187600192329" y="120.14822400023382"/>
      <point x="1125.2219455854643" y="336.5270364466614" type="curve" smooth="yes"/>
      <point x="1149.2220389646475" y="479.42626781634965"/>
      <point x="1068.5689572262895" y="591.9708049017202"/>
      <point x="975.9805584456922" y="631.3249125360481" type="curve"/>
      <point x="1058.0380153851556" y="663.796090160887"/>
      <point x="1158.4233198316222" y="756.5912917381255"/>
      <point x="1183.2621881873267" y="875.5270364466614" type="curve" smooth="yes"/>
      <point x="1214.6707625635236" y="1069.6301190877057"/>
      <point x="1057.9421395806685" y="1227.408730328284"/>
      <point x="827.1793196765342" y="1229.0" type="curve" smooth="yes"/>
      <point x="598.5481118161811" y="1227.7611213550128"/>
      <point x="394.2935202584293" y="1074.852768242856"/>
    </contour>
    <contour>
      <point x="876.8567282770006" y="344.4729635533386" type="curve" smooth="yes"/>
      <point x="861.7642955601501" y="225.9631505498808"/>
      <point x="767.9711201138697" y="144.96431710164902"/>
      <point x="636.2171995692665" y="146.0" type="curve" smooth="yes"/>
      <point x="506.2615235046918" y="144.69664176983383"/>
      <point x="447.85113668040873" y="220.7951069431071"/>
      <point x="471.3982725661725" y="337.5270364466614" type="curve" smooth="yes"/>
      <point x="486.40788432057155" y="455.98437614174156"/>
      <point x="579.64006555599" y="534.9954755920071"/>
      <point x="711.6851473124896" y="534.0" type="curve" smooth="yes"/>
      <point x="841.9990393325638" y="535.2473437044433"/>
      <point x="900.4614922171385" y="461.12616376192193"/>
    </contour>
    <contour>
      <point x="936.1916629560293" y="879.4729635533386" type="curve" smooth="yes"/>
      <point x="925.5909210670968" y="784.2355540170306"/>
      <point x="843.3707604820944" y="711.8819715688651"/>
      <point x="736.1945976309662" y="713.0" type="curve" smooth="yes"/>
      <point x="630.9529104778009" y="711.580915037129"/>
      <point x="580.9315054838445" y="779.2058819201175"/>
      <point x="600.7332072452012" y="872.5270364466614" type="curve" smooth="yes"/>
      <point x="613.3738262299076" y="978.8262249185394"/>
      <point x="692.3818224941252" y="1041.9080188159946"/>
      <point x="801.0829265316813" y="1041.0" type="curve" smooth="yes"/>
      <point x="908.1998569818867" y="1042.1266644328584"/>
      <point x="957.8602423456175" y="983.8877263451872"/>
    </contour>
  </outline>
</glyph>
<glyph name="nine" format="2">
  <advance width="1228"/>
  <unicode hex="0039"/>
  <outline>
    <contour>
      <point x="293.78592976627385" y="837.4729635533386" type="curve" smooth="yes"/>
      <point x="254.400717826367" y="600.9640423068403"/>
      <point x="420.9239241415064" y="437.54187349394095"/>
      <point x="660.40510320306" y="436.0" type="curve" smooth="yes"/>
      <point x="784.652074635083" y="436.46104506878515"/>
      <point x="916.914026641758" y="489.6641088157222"/>
      <point x="927.4473212523884" y="597.74878165693" type="curve"/>
      <point x="851.1543961057798" y="336.84643691979056"/>
      <point x="666.6601472106038" y="162.8954432580144"/>
      <point x="309.6229229338306" y="144.9746085322995" type="curve" smooth="yes"/>
      <point x="265.4554479290717" y="142.1020867233381"/>
      <point x="221.3992915515996" y="109.79802581656986"/>
      <point x="214.12204347700936" y="46.765237474619894" type="curve" smooth="yes"/>
      <point x="210.51420248004806" y="-14.58343568295475"/>
      <point x="266.7179684754135" y="-42.44528225541741"/>
      <point x="309.27146537709723" y="-41.979914680423974" type="curve" smooth="yes"/>
      <point x="856.1481314531643" y="-16.025580376165678"/>
      <point x="1130.8733844413757" y="344.6622244291016"/>
      <point x="1191.2914841228" y="671.5270364466614" type="curve" smooth="yes"/>
      <point x="1217.2824554649708" y="817.5327606882199"/>
      <point x="1209.5742964367623" y="932.1743273521629"/>
      <point x="1172.2542192140213" y="1021.5395655686995" type="curve" smooth="yes"/>
      <point x="1110.8425516092807" y="1157.1697091318858"/>
      <point x="968.8404992951464" y="1228.4008201157483"/>
      <point x="815.1793196765342" y="1229.0" type="curve" smooth="yes"/>
      <point x="551.8208723299402" y="1227.8027092481632"/>
      <point x="338.2628778803114" y="1061.3610256534894"/>
    </contour>
    <contour>
      <point x="953.1410250556469" y="822.4729635533386" type="curve" smooth="yes"/>
      <point x="938.1293305503045" y="703.1248631210551"/>
      <point x="841.6030487960588" y="623.012223135835"/>
      <point x="708.5014963479128" y="624.0" type="curve" smooth="yes"/>
      <point x="568.6469704715845" y="622.6805785076638"/>
      <point x="517.1639790351679" y="699.7667963728915"/>
      <point x="542.3274740554458" y="830.5270364466614" type="curve" smooth="yes"/>
      <point x="559.9857868047693" y="960.4457380295471"/>
      <point x="651.2684684825339" y="1042.0272522030002"/>
      <point x="789.0829265316813" y="1041.0" type="curve" smooth="yes"/>
      <point x="924.2102786223215" y="1042.610771000122"/>
      <point x="978.566613945819" y="955.3896762287652"/>
    </contour>
  </outline>
</glyph>
<glyph name="less" format="2">
  <advance width="1228"/>
  <unicode hex="003C"/>
  <outline>
    <contour>
      <point x="490.06940189762105" y="579.5270364466614" type="line"/>
      <point x="1190.9694128297433" y="886.7050954816548" type="line" smooth="yes"/>
      <point x="1247.2706562670755" y="909.443875344496"/>
      <point x="1280.2157245111307" y="953.940127320784"/>
      <point x="1262.9943964919378" y="1006.1588793124494" type="curve" smooth="yes"/>
      <point x="1242.3533841570552" y="1055.5019842496013"/>
      <point x="1172.515288138007" y="1077.929081059424"/>
      <point x="1112.285621876561" y="1056.2301164542823" type="curve" smooth="yes"/>
      <point x="268.0893640455501" y="675.227167434455" type="line" smooth="yes"/>
      <point x="227.10607766101998" y="657.8334294545567"/>
      <point x="190.83500339576548" y="630.977068146476"/>
      <point x="180.5278576084491" y="586.4729635533386" type="curve" smooth="yes"/>
      <point x="172.9072637232452" y="541.3596708122718"/>
      <point x="201.93370510815453" y="509.60409381212315"/>
      <point x="239.0345546590959" y="491.381409444595" type="curve" smooth="yes"/>
      <point x="948.8740070929136" y="110.37692802865666" type="line" smooth="yes"/>
      <point x="1004.8816226435358" y="88.07531400224586"/>
      <point x="1073.5222870620294" y="107.4804143619134"/>
      <point x="1110.0305323574078" y="154.79544489903986" type="curve" smooth="yes"/>
      <point x="1146.6913179694268" y="205.39870493723987"/>
      <point x="1132.4416040366093" y="254.253848029786"/>
      <point x="1080.27262632023" y="278.7212224883727" type="curve" smooth="yes"/>
    </contour>
  </outline>
</glyph>
<glyph name="greater" format="2">
  <advance width="1228"/>
  <unicode hex="003E"/>
  <outline>
    <contour>
      <point x="943.5278576084492" y="586.4729635533386" type="line"/>
      <point x="242.6278466763269" y="279.2949045183453" type="line" smooth="yes"/>
      <point x="186.32660323899447" y="256.5561246555041"/>
      <point x="153.38153499493944" y="212.05987267921603"/>
      <point x="170.60286301413245" y="159.8411206875506" type="curve" smooth="yes"/>
      <point x="191.2438753490149" y="110.49801575039865"/>
      <point x="261.0819713680631" y="88.07091894057584"/>
      <point x="321.3116376295094" y="109.76988354571776" type="curve" smooth="yes"/>
      <point x="1165.50789546052" y="490.77283256554495" type="line" smooth="yes"/>
      <point x="1206.49118184505" y="508.1665705454432"/>
      <point x="1242.7622561103046" y="535.0229318535239"/>
      <point x="1253.0694018976212" y="579.5270364466614" type="curve" smooth="yes"/>
      <point x="1260.6899957828248" y="624.6403291877283"/>
      <point x="1231.6635543979157" y="656.3959061878768"/>
      <point x="1194.5627048469742" y="674.618590555405" type="curve" smooth="yes"/>
      <point x="484.72325241315656" y="1055.6230719713433" type="line" smooth="yes"/>
      <point x="428.7156368625344" y="1077.924685997754"/>
      <point x="360.07497244404095" y="1058.5195856380865"/>
      <point x="323.5667271486624" y="1011.2045551009601" type="curve" smooth="yes"/>
      <point x="286.90594153664347" y="960.6012950627602"/>
      <point x="301.1556554694607" y="911.746151970214"/>
      <point x="353.3246331858402" y="887.2787775116273" type="curve" smooth="yes"/>
    </contour>
  </outline>
</glyph>
<glyph name="question" format="2">
  <advance width="1228"/>
  <unicode hex="003F"/>
  <outline>
    <contour>
      <point x="488.7573953206553" y="1208.9337169417151" type="curve" smooth="yes"/>
      <point x="439.3490848969363" y="1186.5690363266517"/>
      <point x="403.7542059002693" y="1144.7759549450402"/>
      <point x="420.04723650774275" y="1085.7634414603535" type="curve" smooth="yes"/>
      <point x="443.49587644855256" y="1026.113386638555"/>
      <point x="522.0384933612662" y="1018.5333442379252"/>
      <point x="564.67664006321" y="1035.9809402791298" type="curve" smooth="yes"/>
      <point x="652.2043562994377" y="1079.2336710561224"/>
      <point x="731.711510702602" y="1101.1594462615442"/>
      <point x="816.6625453741892" y="1101.0" type="curve" smooth="yes"/>
      <point x="924.7822156663296" y="1102.2775458406504"/>
      <point x="950.9535010344556" y="1048.4099892440386"/>
      <point x="933.2978214127065" y="959.4729635533386" type="curve" smooth="yes"/>
      <point x="922.0734936384465" y="866.4935836481139"/>
      <point x="867.6636018103098" y="824.0929041917839"/>
      <point x="708.1385397851058" y="762.6959437153293" type="curve" smooth="yes"/>
      <point x="634.3748171767384" y="734.7232411640783" type="line" smooth="yes"/>
      <point x="598.9779513981122" y="723.338054027263"/>
      <point x="570.4384400411222" y="697.4887972138017"/>
      <point x="564.6733382417372" y="667.6270842663498" type="curve" smooth="yes"/>
      <point x="534.9810738107695" y="442.56761518735544" type="line" smooth="yes"/>
      <point x="533.8562394327478" y="402.3411894064506"/>
      <point x="586.16591495842" y="369.9245318181097"/>
      <point x="642.5911954955928" y="369.0" type="curve" smooth="yes"/>
      <point x="697.6867138418602" y="369.75871680383113"/>
      <point x="752.334845719529" y="397.4679023164531"/>
      <point x="767.3033209136737" y="435.41111987951376" type="curve" smooth="yes"/>
      <point x="794.2823868495988" y="596.6953683768961" type="line"/>
      <point x="1002.7720688600162" y="677.0615097449318"/>
      <point x="1144.9430702147952" y="769.8845600355403"/>
      <point x="1181.8393657018787" y="952.5270364466614" type="curve" smooth="yes"/>
      <point x="1213.94084548506" y="1145.5313891829016"/>
      <point x="1079.3283777596532" y="1287.6120611505726"/>
      <point x="841.7589385190421" y="1289.0" type="curve" smooth="yes"/>
      <point x="721.4444169902753" y="1288.8770345784271"/>
      <point x="601.0979962524106" y="1262.8186130733222"/>
    </contour>
    <contour>
      <point x="441.1758336337277" y="170.47296355333862" type="curve" smooth="yes"/>
      <point x="421.0745578329627" y="56.47296355333861" type="line" smooth="yes"/>
      <point x="415.2964642662451" y="1.1698009313407427"/>
      <point x="483.60863703264306" y="-29.74583374981627"/>
      <point x="572.2367301929154" y="-30.0" type="curve" smooth="yes"/>
      <point x="660.4646246513473" y="-29.77195308428011"/>
      <point x="729.4379775176748" y="-3.6433177137083277"/>
      <point x="745.6161021221346" y="49.5270364466614" type="curve" smooth="yes"/>
      <point x="765.7173779228996" y="163.52703644666138" type="line" smooth="yes"/>
      <point x="771.4954714896173" y="218.83019906865925"/>
      <point x="703.1832987232192" y="249.74583374981626"/>
      <point x="614.555205562947" y="250.0" type="curve" smooth="yes"/>
      <point x="526.327311104515" y="249.7719530842801"/>
      <point x="457.3539582381876" y="223.64331771370834"/>
    </contour>
  </outline>
</glyph>
<glyph name="at" format="2">
  <advance width="1228"/>
  <unicode hex="0040"/>
  <outline>
    <contour>
      <point x="71.3204233510069" y="392.4729635533386" type="curve" smooth="yes"/>
      <point x="12.263787269797952" y="50.49668429603694"/>
      <point x="195.86282483642813" y="-171.3377223999002"/>
      <point x="535.0219719516049" y="-173.0" type="curve" smooth="yes"/>
      <point x="649.5891706777812" y="-172.9092589771712"/>
      <point x="767.7024049456461" y="-151.25515249566018"/>
      <point x="848.3216128534781" y="-119.51838411419298" type="curve" smooth="yes"/>
      <point x="883.3439733297765" y="-107.42069906617327"/>
      <point x="912.8368538244302" y="-74.7848576509662"/>
      <point x="908.2563792833889" y="-33.436743109412916" type="curve" smooth="yes"/>
      <point x="900.510283441514" y="7.486500210982529"/>
      <point x="848.7901223040717" y="33.69715105554423"/>
      <point x="802.655804156641" y="26.183076096170097" type="curve" smooth="yes"/>
      <point x="735.0602824091915" y="5.518310625029841"/>
      <point x="646.6995549102967" y="-10.06993650732537"/>
      <point x="554.710190578746" y="-10.0" type="curve" smooth="yes"/>
      <point x="325.58841016491846" y="-11.79564123239799"/>
      <point x="243.89914445304137" y="136.0253540403516"/>
      <point x="288.8619676401789" y="385.5270364466614" type="curve" smooth="yes"/>
      <point x="340.4537766472789" y="700.5172356106071"/>
      <point x="566.6844172865408" y="936.8751023970115"/>
      <point x="823.392266576584" y="935.0" type="curve" smooth="yes"/>
      <point x="1046.8312224469519" y="936.736090001582"/>
      <point x="1141.4085646242995" y="788.4606562727213"/>
      <point x="1095.3588546116089" y="534.4729635533386" type="curve" smooth="yes"/>
      <point x="1070.0299461777684" y="379.43113611990094"/>
      <point x="1010.5328638315378" y="280.113378844049"/>
      <point x="934.3739959263263" y="283.0" type="curve" smooth="yes"/>
      <point x="901.4978046677776" y="279.500731251458"/>
      <point x="901.7323792401569" y="315.62513408900605"/>
      <point x="935.308489949434" y="396.0764891172713" type="curve" smooth="yes"/>
      <point x="1065.5671914981967" y="698.0841738319243" type="line" smooth="yes"/>
      <point x="1076.801438062604" y="730.4658886684492"/>
      <point x="1039.4412962321553" y="759.6949583927191"/>
      <point x="1008.4842079069625" y="770.5595869093997" type="curve" smooth="yes"/>
      <point x="977.5557418387291" y="780.6151605499053"/>
      <point x="924.5609664541935" y="780.8854087655805"/>
      <point x="891.012551936452" y="759.1304078338288" type="curve" smooth="yes"/>
      <point x="885.4064480949068" y="704.9504258263968" type="line"/>
      <point x="917.7338893412707" y="752.4130794911855"/>
      <point x="861.3074672303602" y="803.385995162675"/>
      <point x="778.416679856145" y="805.0" type="curve" smooth="yes"/>
      <point x="571.1581011469434" y="801.4621297665396"/>
      <point x="374.5173733251942" y="544.892935377669"/>
      <point x="338.67795996833604" y="360.4729635533386" type="curve" smooth="yes"/>
      <point x="313.4155515381406" y="210.64158116653292"/>
      <point x="402.5487127865686" y="114.1660756118078"/>
      <point x="522.2751614535174" y="112.0" type="curve" smooth="yes"/>
      <point x="628.0822257943626" y="113.11558955647882"/>
      <point x="712.8396905762023" y="172.42386959020482"/>
      <point x="752.2729968503638" y="246.03004337629005" type="curve"/>
      <point x="729.0750014969921" y="172.32998466649298"/>
      <point x="811.6622885886391" y="117.93364454038579"/>
      <point x="913.1567963570596" y="117.0" type="curve" smooth="yes"/>
      <point x="1103.1168411020387" y="119.21581717313987"/>
      <point x="1265.748440108181" y="287.5950471318294"/>
      <point x="1310.900398900781" y="527.5270364466614" type="curve" smooth="yes"/>
      <point x="1367.3929723618232" y="855.720006443801"/>
      <point x="1180.8760990575927" y="1096.0255530642191"/>
      <point x="850.0804852037252" y="1098.0" type="curve" smooth="yes"/>
      <point x="479.4416220473077" y="1096.249405688209"/>
      <point x="145.6927095828263" y="790.6683907790408"/>
    </contour>
    <contour>
      <point x="763.6486640328628" y="564.4729635533386" type="curve" smooth="yes"/>
      <point x="744.2871124810665" y="438.4248651903678"/>
      <point x="644.955002390458" y="281.9535718180513"/>
      <point x="570.9029768684517" y="286.0" type="curve" smooth="yes"/>
      <point x="552.9099981215222" y="284.1798456620236"/>
      <point x="557.470944546647" y="296.47577595227875"/>
      <point x="568.5721582189249" y="355.5270364466614" type="curve" smooth="yes"/>
      <point x="590.0294844149234" y="498.66870501592916"/>
      <point x="707.4173111851969" y="641.8745596617999"/>
      <point x="752.02315330617" y="638.0" type="curve" smooth="yes"/>
      <point x="777.5147683150002" y="640.1202445376236"/>
      <point x="774.2086731280242" y="620.5653993498371"/>
    </contour>
  </outline>
</glyph>
<glyph name="A" format="2">
  <advance width="1228"/>
  <unicode hex="0041"/>
  <outline>
    <contour>
      <point x="659.6171195417347" y="1153.6060447654977" type="curve" smooth="yes"/>
      <point x="78.71234861101934" y="93.60743602266648" type="line" smooth="yes"/>
      <point x="50.1785225445172" y="44.30551841663403"/>
      <point x="78.16968548703984" y="-0.3479526013352654"/>
      <point x="140.48218359577612" y="-20.83170864672534" type="curve" smooth="yes"/>
      <point x="202.74171222402825" y="-39.93946592387369"/>
      <point x="269.1174884426285" y="-21.448421309147207"/>
      <point x="299.4729709260767" y="26.412432484963883" type="curve" smooth="yes"/>
      <point x="437.62948753053394" y="311.70876952102356" type="line"/>
      <point x="899.8830395429342" y="312.2843277984531" type="line"/>
      <point x="932.2226054434682" y="32.19898719464819" type="line" smooth="yes"/>
      <point x="945.6344723180366" y="-17.716335872090962"/>
      <point x="1014.1059110644245" y="-39.942649117686884"/>
      <point x="1081.1772236165336" y="-21.061681027807126" type="curve" smooth="yes"/>
      <point x="1147.416382525438" y="-1.416810491411482"/>
      <point x="1188.6389964107282" y="37.37862399925386"/>
      <point x="1179.9236533425844" y="87.82884337491863" type="curve" smooth="yes"/>
      <point x="972.8311653551037" y="1147.8268936535712" type="line" smooth="yes"/>
      <point x="958.5716130232477" y="1201.0021938859436"/>
      <point x="897.4126844084703" y="1228.6264816130697"/>
      <point x="825.1793196765342" y="1229.0" type="curve" smooth="yes"/>
      <point x="753.522905326583" y="1228.6720794572905"/>
      <point x="691.8594290839063" y="1204.6216123258316"/>
    </contour>
    <contour>
      <point x="543.0946213035919" y="477.49806790453067" type="line"/>
      <point x="836.3049753478591" y="1033.6219010630505" type="line"/>
      <point x="750.64893211279" y="1039.5019320954693" type="line"/>
      <point x="852.591196476726" y="483.37809893694947" type="line"/>
    </contour>
  </outline>
</glyph>
<glyph name="B" format="2">
  <advance width="1228"/>
  <unicode hex="0042"/>
  <outline>
    <contour>
      <point x="477.3001261009479" y="1207.0" type="line" smooth="yes"/>
      <point x="419.7013884808859" y="1206.2987829314586"/>
      <point x="367.20785712615896" y="1177.0706043073108"/>
      <point x="355.03911926818637" y="1122.4729635533386" type="curve" smooth="yes"/>
      <point x="169.71946254358966" y="71.4729635533386" type="line" smooth="yes"/>
      <point x="160.36025451510704" y="16.23928491517533"/>
      <point x="209.17053609721006" y="-19.151923352070455"/>
      <point x="268.0" y="-20.0" type="curve" smooth="yes"/>
      <point x="690.0" y="-20.0" type="line" smooth="yes"/>
      <point x="950.2202230307187" y="-19.102179817423732"/>
      <point x="1137.6116256927598" y="115.87490152734227"/>
      <point x="1180.5166376626303" y="332.5270364466614" type="curve" smooth="yes"/>
      <point x="1206.2241220857015" y="482.61742038378014"/>
      <point x="1131.958977287159" y="591.4794110465654"/>
      <point x="1030.118102100328" y="628.3265071511232" type="curve"/>
      <point x="1105.5738402659197" y="655.4743321953616"/>
      <point x="1184.0329514771638" y="741.80705829429"/>
      <point x="1206.5593215924491" y="854.5270364466614" type="curve" smooth="yes"/>
      <point x="1240.354572398268" y="1054.9903683424955"/>
      <point x="1110.1259958282876" y="1205.5696809364226"/>
      <point x="853.3001261009479" y="1207.0" type="curve" smooth="yes"/>
    </contour>
    <contour>
      <point x="931.9750933734582" y="339.4729635533386" type="curve" smooth="yes"/>
      <point x="916.643355004865" y="218.1451359500568"/>
      <point x="839.1327662604218" y="163.44208928565763"/>
      <point x="695.391085222019" y="164.0" type="curve" smooth="yes"/>
      <point x="420.86366971449564" y="154.75266362752458" type="line"/>
      <point x="482.95710508360963" y="517.0206983881272" type="line"/>
      <point x="758.6296267561949" y="511.0" type="line" smooth="yes"/>
      <point x="913.4380981717707" y="511.65586405081143"/>
      <point x="956.0623095356526" y="461.69767586086505"/>
    </contour>
    <contour>
      <point x="958.017777303277" y="861.4729635533386" type="curve" smooth="yes"/>
      <point x="943.5231512398069" y="752.1837507999327"/>
      <point x="884.3018179430393" y="694.2850948783154"/>
      <point x="741.0207119782139" y="695.0" type="curve" smooth="yes"/>
      <point x="516.0929874059689" y="684.6278282310382" type="line"/>
      <point x="574.5539888550938" y="1029.6053643369992" type="line"/>
      <point x="805.909040878929" y="1023.0" type="line" smooth="yes"/>
      <point x="949.5412874735894" y="1023.7912456260262"/>
      <point x="979.8360640453288" y="974.5341113315508"/>
    </contour>
  </outline>
</glyph>
<glyph name="C" format="2">
  <advance width="1228"/>
  <unicode hex="0043"/>
  <outline>
    <contour>
      <point x="207.4674543962422" y="597.4729635533386" type="curve" smooth="yes"/>
      <point x="142.0742238973669" y="220.90831101704896"/>
      <point x="328.88515607957555" y="-39.724629040067455"/>
      <point x="660.1208064244138" y="-42.0" type="curve" smooth="yes"/>
      <point x="799.0370976528898" y="-41.84749799731563"/>
      <point x="935.2722080652148" y="-8.621956691486936"/>
      <point x="1073.0702060408246" y="61.25467679898972" type="curve" smooth="yes"/>
      <point x="1125.9671220213086" y="86.53896155622652"/>
      <point x="1155.450737081844" y="132.888096283848"/>
      <point x="1139.436284861853" y="188.47206392280134" type="curve" smooth="yes"/>
      <point x="1112.6561654958691" y="249.02526115407022"/>
      <point x="1030.870056998564" y="252.2271996167305"/>
      <point x="989.3220837377368" y="233.60768225317395" type="curve" smooth="yes"/>
      <point x="886.3154522714163" y="176.44714790058478"/>
      <point x="790.2660856668929" y="145.7891753498503"/>
      <point x="686.2171995692665" y="146.0" type="curve" smooth="yes"/>
      <point x="492.29576760411305" y="143.53656743709732"/>
      <point x="405.5602066856839" y="308.56325689058707"/>
      <point x="456.00899868541416" y="590.5270364466614" type="curve" smooth="yes"/>
      <point x="502.7506286778751" y="873.3082587514309"/>
      <point x="654.0393937789479" y="1042.8105102510292"/>
      <point x="851.0829265316813" y="1041.0" type="curve" smooth="yes"/>
      <point x="954.7620929636741" y="1041.2339841842786"/>
      <point x="1037.2692842628824" y="1011.0505088252462"/>
      <point x="1118.6329661680606" y="954.3464879345958" type="curve" smooth="yes"/>
      <point x="1156.6478761354272" y="934.9433796544298"/>
      <point x="1233.6219441816513" y="935.9870952726685"/>
      <point x="1278.514325267917" y="993.2535155154673" type="curve" smooth="yes"/>
      <point x="1315.1952709333823" y="1047.4425237300406"/>
      <point x="1305.9242673145627" y="1097.4034701582416"/>
      <point x="1258.1461882082" y="1124.8716730773272" type="curve" smooth="yes"/>
      <point x="1143.4000662506523" y="1195.2072029121477"/>
      <point x="1016.3622194195161" y="1228.8333847634497"/>
      <point x="877.1793196765342" y="1229.0" type="curve" smooth="yes"/>
      <point x="548.8589694115857" y="1227.3083355410772"/>
      <point x="277.21322953611104" y="973.0817178038515"/>
    </contour>
  </outline>
</glyph>
<glyph name="D" format="2">
  <advance width="1228"/>
  <unicode hex="0044"/>
  <outline>
    <contour>
      <point x="447.3001261009479" y="1207.0" type="line" smooth="yes"/>
      <point x="389.7013884808859" y="1206.2987829314586"/>
      <point x="337.20785712615896" y="1177.0706043073108"/>
      <point x="325.03911926818637" y="1122.4729635533386" type="curve" smooth="yes"/>
      <point x="139.71946254358966" y="71.4729635533386" type="line" smooth="yes"/>
      <point x="130.36025451510704" y="16.23928491517533"/>
      <point x="179.17053609721006" y="-19.151923352070455"/>
      <point x="238.0" y="-20.0" type="curve" smooth="yes"/>
      <point x="574.0" y="-20.0" type="line" smooth="yes"/>
      <point x="906.6135381515828" y="-18.604823494297044"/>
      <point x="1181.6947505959743" y="213.60457594400395"/>
      <point x="1251.8326717047057" y="589.5270364466614" type="curve" smooth="yes"/>
      <point x="1317.0527835639477" y="966.5219264106953"/>
      <point x="1118.3750336193054" y="1205.1668486617862"/>
      <point x="783.3001261009479" y="1207.0" type="curve" smooth="yes"/>
    </contour>
    <contour>
      <point x="1003.2911274155337" y="596.4729635533386" type="curve" smooth="yes"/>
      <point x="955.4180522555962" y="304.21743250013674"/>
      <point x="801.0699047287768" y="162.80833087481065"/>
      <point x="580.391085222019" y="164.0" type="curve" smooth="yes"/>
      <point x="398.24006593054565" y="145.58525350425407" type="line"/>
      <point x="552.9704413649067" y="1035.0658855950164" type="line"/>
      <point x="738.909040878929" y="1023.0" type="line" smooth="yes"/>
      <point x="957.4215231270517" y="1024.5429755572516"/>
      <point x="1055.7545211605882" y="887.7268302973303"/>
    </contour>
  </outline>
</glyph>
<glyph name="E" format="2">
  <advance width="1228"/>
  <unicode hex="0045"/>
  <outline>
    <contour>
      <point x="497.2572533401097" y="1207.0000190333196" type="line" smooth="yes"/>
      <point x="433.855755364139" y="1206.7802264954641"/>
      <point x="377.4757542355961" y="1175.7433680419479"/>
      <point x="363.22537028416275" y="1122.4609499479338" type="curve" smooth="yes"/>
      <point x="177.89711012662778" y="71.48723540406034" type="line" smooth="yes"/>
      <point x="169.26199828427582" y="18.76843599000054"/>
      <point x="221.15366489693733" y="-20.152762102808428"/>
      <point x="287.9496032192184" y="-20.000026300096586" type="curve" smooth="yes"/>
      <point x="977.0503219117378" y="-20.00002622201214" type="line" smooth="yes"/>
      <point x="1041.770899321971" y="-19.633358336349517"/>
      <point x="1097.5718329829751" y="13.425267931588657"/>
      <point x="1111.7898270038559" y="68.50919846563372" type="curve" smooth="yes"/>
      <point x="1120.973688725037" y="123.054164908478"/>
      <point x="1070.7848496120814" y="163.96744617257454"/>
      <point x="1002.1892317332067" y="164.00042192028764" type="curve" smooth="yes"/>
      <point x="434.92324217892565" y="159.5615567592616" type="line"/>
      <point x="504.9799005591125" y="524.5019644833409" type="line"/>
      <point x="926.9317879303369" y="519.9991601758073" type="line" smooth="yes"/>
      <point x="991.9874689045421" y="520.3666416636505"/>
      <point x="1047.7884025655464" y="553.4252679315887"/>
      <point x="1062.0063965864272" y="608.5091984656337" type="curve" smooth="yes"/>
      <point x="1071.1902583076082" y="663.054164908478"/>
      <point x="1021.0014191946523" y="703.9674461725745"/>
      <point x="952.230727150275" y="704.001471262509" type="curve" smooth="yes"/>
      <point x="534.5444646440374" y="698.0997701048005" type="line"/>
      <point x="586.7239724399357" y="1025.9008044879333" type="line"/>
      <point x="1140.7896245348654" y="1022.9998523337736" type="line" smooth="yes"/>
      <point x="1205.6799402008999" y="1023.3666416636505"/>
      <point x="1261.4808738619042" y="1056.4252679315887"/>
      <point x="1275.698867882785" y="1111.5091984656337" type="curve" smooth="yes"/>
      <point x="1284.882729603966" y="1166.054164908478"/>
      <point x="1234.69389049101" y="1206.9674461725747"/>
      <point x="1166.3637384372716" y="1207.0000419019937" type="curve" smooth="yes"/>
    </contour>
  </outline>
</glyph>
<glyph name="F" format="2">
  <advance width="1228"/>
  <unicode hex="0046"/>
  <outline>
    <contour>
      <point x="517.3001261009479" y="1207.0" type="line" smooth="yes"/>
      <point x="462.70138848088584" y="1206.2987829314586"/>
      <point x="407.94028491802044" y="1177.7298701481225"/>
      <point x="395.03911926818637" y="1122.4729635533386" type="curve" smooth="yes"/>
      <point x="207.42721179437956" y="58.47296355333861" type="line" smooth="yes"/>
      <point x="198.82798472007738" y="6.99818135634548"/>
      <point x="248.77090985407318" y="-29.313762199313114"/>
      <point x="317.23673019291533" y="-30.0" type="curve" smooth="yes"/>
      <point x="319.23673019291533" y="-30.0" type="line" smooth="yes"/>
      <point x="386.68688491258365" y="-29.422629435359"/>
      <point x="440.3058430105612" y="0.7435024883043635"/>
      <point x="451.96875608355157" y="51.52703644666139" type="curve" smooth="yes"/>
      <point x="513.5061866135958" y="484.502908070114" type="line"/>
      <point x="950.1634903542325" y="480.0" type="line" smooth="yes"/>
      <point x="1008.9828351323541" y="480.8468085870089"/>
      <point x="1060.8447941108923" y="512.1565136330157"/>
      <point x="1073.129805109828" y="568.5270364466613" type="curve" smooth="yes"/>
      <point x="1082.8982987257705" y="625.4694778300334"/>
      <point x="1035.854293514821" y="662.9568160152895"/>
      <point x="975.5545755762514" y="664.0" type="curve" smooth="yes"/>
      <point x="542.5959902228327" y="658.1002246390419" type="line"/>
      <point x="603.9541296624361" y="1025.9383087909118" type="line"/>
      <point x="1160.9090408789289" y="1023.0" type="line" smooth="yes"/>
      <point x="1219.7283856570505" y="1023.8468085870089"/>
      <point x="1271.5903446355887" y="1055.1565136330157"/>
      <point x="1283.8753556345246" y="1111.5270364466614" type="curve" smooth="yes"/>
      <point x="1293.643849250467" y="1168.4694778300334"/>
      <point x="1246.5998440395174" y="1205.9568160152896"/>
      <point x="1186.3001261009479" y="1207.0" type="curve" smooth="yes"/>
    </contour>
  </outline>
</glyph>
<glyph name="G" format="2">
  <advance width="1228"/>
  <unicode hex="0047"/>
  <outline>
    <contour>
      <point x="155.64887740478343" y="597.4756644939961" type="curve" smooth="yes"/>
      <point x="90.35788388777402" y="221.03181346449975"/>
      <point x="287.3838890475645" y="-39.915963769878715"/>
      <point x="629.9321579694538" y="-42.00036852212384" type="curve" smooth="yes"/>
      <point x="790.5514683935407" y="-41.890002510643754"/>
      <point x="958.6126781187231" y="-7.881406882138812"/>
      <point x="1087.7703965663761" y="56.227451604264594" type="curve" smooth="yes"/>
      <point x="1125.3765559930089" y="71.59594635328125"/>
      <point x="1157.7630430327274" y="103.88193487156532"/>
      <point x="1167.2950689541276" y="139.5518081207936" type="curve" smooth="yes"/>
      <point x="1234.848110913372" y="522.4911756202806" type="line" smooth="yes"/>
      <point x="1243.4762282565523" y="575.2315640099995"/>
      <point x="1191.584561643891" y="614.1527621028084"/>
      <point x="1124.8299220726224" y="614.00008706609" type="curve" smooth="yes"/>
      <point x="770.646666506931" y="614.0000868089653" type="line" smooth="yes"/>
      <point x="705.9673272188572" y="613.6333583363495"/>
      <point x="650.1663935578529" y="580.5747320684113"/>
      <point x="635.9483995369723" y="525.4908015343663" type="curve" smooth="yes"/>
      <point x="626.7645378157912" y="470.94583509152204"/>
      <point x="676.953376928747" y="430.0325538274255"/>
      <point x="746.2783753656922" y="429.9910172691946" type="curve" smooth="yes"/>
      <point x="966.3980763011216" y="437.54569023851303" type="line"/>
      <point x="910.9839573257177" y="190.69647882274094" type="line"/>
      <point x="856.0476337866895" y="161.60927754727635"/>
      <point x="764.7023831468497" y="145.93732809718165"/>
      <point x="655.8981156780859" y="146.00105433216697" type="curve" smooth="yes"/>
      <point x="461.7196860563018" y="143.46697901207983"/>
      <point x="377.4693303532966" y="309.16641176720304"/>
      <point x="427.82632945606423" y="590.5281424617119" type="curve" smooth="yes"/>
      <point x="472.77813475463216" y="872.5508161157643"/>
      <point x="637.7433976519342" y="1042.721788760151"/>
      <point x="830.8668480345103" y="1040.9995165161804" type="curve" smooth="yes"/>
      <point x="935.1005276628794" y="1041.1520211498655"/>
      <point x="1015.556479313243" y="1017.636601056854"/>
      <point x="1095.811188633561" y="963.1570024899801" type="curve" smooth="yes"/>
      <point x="1141.0442377275194" y="944.2214836742601"/>
      <point x="1223.6328457611107" y="947.0649963894394"/>
      <point x="1272.2162889038364" y="1004.7766469188915" type="curve" smooth="yes"/>
      <point x="1308.603142312239" y="1057.403934008687"/>
      <point x="1297.4071939189037" y="1110.0253019632132"/>
      <point x="1243.1765127327471" y="1135.2604812420163" type="curve" smooth="yes"/>
      <point x="1124.4361241481365" y="1202.4840115405927"/>
      <point x="996.4017003292663" y="1228.9031827170327"/>
      <point x="857.0361291742224" y="1229.0002123161657" type="curve" smooth="yes"/>
      <point x="524.5661739606077" y="1227.4493781792846"/>
      <point x="227.32950484986344" y="973.4377320190932"/>
    </contour>
  </outline>
</glyph>
<glyph name="H" format="2">
  <advance width="1228"/>
  <unicode hex="0048"/>
  <outline>
    <contour>
      <point x="1188.0633959080326" y="1217.0" type="line" smooth="yes"/>
      <point x="1120.6132411883643" y="1216.4226294353589"/>
      <point x="1066.9942830903867" y="1186.2564975116957"/>
      <point x="1055.3313700173962" y="1135.4729635533386" type="curve" smooth="yes"/>
      <point x="996.5654593673063" y="700.5239707294799" type="line"/>
      <point x="477.67424168290324" y="698.882257834739" type="line"/>
      <point x="571.8729143065683" y="1128.5270364466614" type="line" smooth="yes"/>
      <point x="580.4721413808705" y="1180.0018186436546"/>
      <point x="530.5292162468747" y="1216.313762199313"/>
      <point x="462.0633959080326" y="1217.0" type="curve" smooth="yes"/>
      <point x="460.0633959080326" y="1217.0" type="line" smooth="yes"/>
      <point x="392.61324118836427" y="1216.4226294353589"/>
      <point x="338.9942830903867" y="1186.2564975116957"/>
      <point x="327.33137001739635" y="1135.4729635533386" type="curve" smooth="yes"/>
      <point x="137.4272117943796" y="58.47296355333861" type="line" smooth="yes"/>
      <point x="128.82798472007738" y="6.998181356345472"/>
      <point x="178.7709098540732" y="-29.313762199313118"/>
      <point x="247.23673019291536" y="-30.0" type="curve" smooth="yes"/>
      <point x="249.23673019291536" y="-30.0" type="line" smooth="yes"/>
      <point x="316.68688491258365" y="-29.422629435359"/>
      <point x="370.3058430105612" y="0.7435024883043635"/>
      <point x="381.96875608355157" y="51.52703644666139" type="curve" smooth="yes"/>
      <point x="448.54197362498394" y="523.853580731954" type="line"/>
      <point x="964.536208015497" y="525.750041150698" type="line"/>
      <point x="865.4272117943796" y="58.47296355333861" type="line" smooth="yes"/>
      <point x="856.8279847200774" y="6.998181356345454"/>
      <point x="906.7709098540732" y="-29.313762199313114"/>
      <point x="975.2367301929154" y="-30.0" type="curve" smooth="yes"/>
      <point x="977.2367301929154" y="-30.0" type="line" smooth="yes"/>
      <point x="1044.6868849125835" y="-29.422629435359"/>
      <point x="1098.3058430105611" y="0.7435024883043635"/>
      <point x="1109.9687560835516" y="51.52703644666139" type="curve" smooth="yes"/>
      <point x="1299.8729143065684" y="1128.5270364466614" type="line" smooth="yes"/>
      <point x="1308.4721413808707" y="1180.0018186436546"/>
      <point x="1258.5292162468747" y="1216.313762199313"/>
      <point x="1190.0633959080326" y="1217.0" type="curve" smooth="yes"/>
    </contour>
  </outline>
</glyph>
<glyph name="J" format="2">
  <advance width="1228"/>
  <unicode hex="004A"/>
  <outline>
    <contour>
      <point x="652.3001261009479" y="1207.0" type="line" smooth="yes"/>
      <point x="593.4807813228263" y="1206.153191412991"/>
      <point x="541.6188223442881" y="1174.8434863669843"/>
      <point x="529.3338113453525" y="1118.4729635533386" type="curve" smooth="yes"/>
      <point x="519.5653177294101" y="1061.5305221699666"/>
      <point x="566.6093229403594" y="1024.0431839847106"/>
      <point x="626.909040878929" y="1023.0" type="curve" smooth="yes"/>
      <point x="942.6684707350202" y="1036.3165470052527" type="line"/>
      <point x="820.7359218525868" y="366.4729635533386" type="line" smooth="yes"/>
      <point x="797.6157404155481" y="218.53218881328422"/>
      <point x="740.1705959619518" y="144.84930421953854"/>
      <point x="604.2171995692665" y="146.0" type="curve" smooth="yes"/>
      <point x="508.30087180761933" y="145.71434124046857"/>
      <point x="429.1264334532786" y="177.34111919544145"/>
      <point x="364.5953377117033" y="237.1086944396956" type="curve" smooth="yes"/>
      <point x="329.64560127905565" y="260.3710285499828"/>
      <point x="252.42049681994166" y="263.0843548324558"/>
      <point x="199.5910242350704" y="209.66707736515278" type="curve" smooth="yes"/>
      <point x="156.14191600925457" y="159.46960326372724"/>
      <point x="157.1955809174597" y="108.79268067559686"/>
      <point x="199.03869206070252" y="76.79539898623266" type="curve" smooth="yes"/>
      <point x="295.50349488548596" y="-0.6679298603344712"/>
      <point x="437.9769055413743" y="-41.777252120023576"/>
      <point x="577.1208064244138" y="-42.0" type="curve" smooth="yes"/>
      <point x="827.7007511688648" y="-41.055042763811535"/>
      <point x="1014.1782351125054" y="94.19818586727948"/>
      <point x="1059.987656720505" y="329.5270364466614" type="curve" smooth="yes"/>
      <point x="1198.5806635573583" y="1115.5270364466614" type="line" smooth="yes"/>
      <point x="1207.7103798861967" y="1171.6269726035632"/>
      <point x="1156.1295900037378" y="1206.1519233520705"/>
      <point x="1100.3001261009479" y="1207.0" type="curve" smooth="yes"/>
    </contour>
  </outline>
</glyph>
<glyph name="K" format="2">
  <advance width="1228"/>
  <unicode hex="004B"/>
  <outline>
    <contour>
      <point x="500.0633959080326" y="1217.0" type="line" smooth="yes"/>
      <point x="432.61324118836427" y="1216.4226294353589"/>
      <point x="378.9942830903867" y="1186.2564975116957"/>
      <point x="367.33137001739635" y="1135.4729635533386" type="curve" smooth="yes"/>
      <point x="177.4272117943796" y="58.47296355333861" type="line" smooth="yes"/>
      <point x="168.82798472007738" y="6.998181356345472"/>
      <point x="218.77090985407318" y="-29.313762199313114"/>
      <point x="287.23673019291533" y="-30.0" type="curve" smooth="yes"/>
      <point x="289.23673019291533" y="-30.0" type="line" smooth="yes"/>
      <point x="356.68688491258365" y="-29.422629435359"/>
      <point x="410.3058430105612" y="0.7435024883043635"/>
      <point x="421.96875608355157" y="51.52703644666139" type="curve" smooth="yes"/>
      <point x="471.91080945473624" y="356.2501921930908" type="line"/>
      <point x="608.7575758465426" y="533.2668722529764" type="line"/>
      <point x="912.624674132836" y="-4.0974648402154585" type="line" smooth="yes"/>
      <point x="947.7748105773733" y="-43.953604591215566"/>
      <point x="1019.1574778239457" y="-43.91919250381197"/>
      <point x="1074.0729184486438" y="-17.75990662102185" type="curve" smooth="yes"/>
      <point x="1137.3070229823963" y="12.862141533185847"/>
      <point x="1162.9134863115828" y="58.60112674548429"/>
      <point x="1135.6325548285454" y="102.11370047439281" type="curve" smooth="yes"/>
      <point x="807.9779740438951" y="657.9562113353858" type="line"/>
      <point x="1277.8287451126005" y="1079.0657408839072" type="line" smooth="yes"/>
      <point x="1323.7781129725763" y="1115.9808545365383"/>
      <point x="1327.2567814531258" y="1166.7851324072499"/>
      <point x="1273.8712014648868" y="1203.0710966648771" type="curve" smooth="yes"/>
      <point x="1227.8422984884214" y="1231.5476210300694"/>
      <point x="1157.7833965420032" y="1234.9099495822516"/>
      <point x="1113.9739493212928" y="1205.8953757957368" type="curve" smooth="yes"/>
      <point x="463.1116414484165" y="603.8000922121915" type="line"/>
      <point x="611.8729143065683" y="1128.5270364466614" type="line" smooth="yes"/>
      <point x="620.4721413808705" y="1180.0018186436546"/>
      <point x="570.5292162468747" y="1216.313762199313"/>
      <point x="502.0633959080326" y="1217.0" type="curve" smooth="yes"/>
    </contour>
  </outline>
</glyph>
<glyph name="L" format="2">
  <advance width="1228"/>
  <unicode hex="004C"/>
  <outline>
    <contour>
      <point x="530.0633959080326" y="1217.0" type="line" smooth="yes"/>
      <point x="462.61324118836427" y="1216.4226294353589"/>
      <point x="408.9942830903867" y="1186.2564975116957"/>
      <point x="397.33137001739635" y="1135.4729635533386" type="curve" smooth="yes"/>
      <point x="209.71946254358966" y="71.4729635533386" type="line" smooth="yes"/>
      <point x="200.30362288906417" y="16.53052216996665"/>
      <point x="248.17053609721006" y="-19.151923352070455"/>
      <point x="308.0" y="-20.0" type="curve" smooth="yes"/>
      <point x="977.0" y="-20.0" type="line" smooth="yes"/>
      <point x="1035.8193447781216" y="-19.15319141299105"/>
      <point x="1087.6813037566596" y="12.156513633015702"/>
      <point x="1099.9663147555955" y="68.5270364466614" type="curve" smooth="yes"/>
      <point x="1109.7348083715378" y="125.46947783003331"/>
      <point x="1062.6908031605885" y="162.95681601528952"/>
      <point x="1002.391085222019" y="164.0" type="curve" smooth="yes"/>
      <point x="464.7603544450306" y="151.63043918724617" type="line"/>
      <point x="641.8729143065683" y="1128.5270364466614" type="line" smooth="yes"/>
      <point x="650.4721413808705" y="1180.0018186436546"/>
      <point x="600.5292162468747" y="1216.313762199313"/>
      <point x="532.0633959080326" y="1217.0" type="curve" smooth="yes"/>
    </contour>
  </outline>
</glyph>
<glyph name="M" format="2">
  <advance width="1228"/>
  <unicode hex="004D"/>
  <outline>
    <contour>
      <point x="1187.0633959080326" y="1217.0" type="line" smooth="yes"/>
      <point x="1128.3564884153786" y="1216.3960383848741"/>
      <point x="1072.659613847871" y="1190.7410195380492"/>
      <point x="1038.1982225426489" y="1142.7974025891715" type="curve" smooth="yes"/>
      <point x="713.0957631581573" y="582.0" type="line"/>
      <point x="594.7185768855627" y="1137.5476854593478" type="line" smooth="yes"/>
      <point x="577.1030352933291" y="1187.0021938859436"/>
      <point x="523.9980943717924" y="1216.260159546921"/>
      <point x="464.0633959080326" y="1217.0" type="curve" smooth="yes"/>
      <point x="462.0633959080326" y="1217.0" type="line" smooth="yes"/>
      <point x="405.95875356062015" y="1216.6369190969217"/>
      <point x="343.6685018918464" y="1192.5692029323145"/>
      <point x="327.569263440139" y="1135.9945344416617" type="curve" smooth="yes"/>
      <point x="107.6660072200377" y="58.996377828522135" type="line" smooth="yes"/>
      <point x="97.76026345026372" y="7.301924094658328"/>
      <point x="147.7709098540732" y="-29.313762199313118"/>
      <point x="216.23673019291536" y="-30.0" type="curve" smooth="yes"/>
      <point x="218.23673019291536" y="-30.0" type="line" smooth="yes"/>
      <point x="285.8281613902819" y="-29.408075365023446"/>
      <point x="338.3058430105612" y="0.7435024883043635"/>
      <point x="350.748238014957" y="51.04114934554485" type="curve" smooth="yes"/>
      <point x="505.57777307018324" y="855.5291813519353" type="line"/>
      <point x="550.2869486668609" y="416.4618519915287" type="line" smooth="yes"/>
      <point x="568.2074957439518" y="365.25389549058946"/>
      <point x="620.320433456616" y="338.6142466509179"/>
      <point x="677.1250590936305" y="338.0" type="curve" smooth="yes"/>
      <point x="733.0121805627165" y="338.5212429360473"/>
      <point x="785.6112694684132" y="361.5335060840179"/>
      <point x="820.8237759451375" y="411.2090124821862" type="curve" smooth="yes"/>
      <point x="1022.1967132514584" y="859.8698768563855" type="line"/>
      <point x="896.2340347276066" y="57.98065304591607" type="line" smooth="yes"/>
      <point x="888.8279847200774" y="6.998181356345454"/>
      <point x="937.6042459504254" y="-29.294952662293483"/>
      <point x="1006.2367301929154" y="-30.0" type="curve" smooth="yes"/>
      <point x="1008.2367301929154" y="-30.0" type="line" smooth="yes"/>
      <point x="1075.6868849125835" y="-29.422629435359"/>
      <point x="1129.5565923182478" y="0.9780041582496697"/>
      <point x="1140.1757905838717" y="52.05791208785383" type="curve" smooth="yes"/>
      <point x="1300.079271762006" y="1129.056015875595" type="line" smooth="yes"/>
      <point x="1306.936302999361" y="1186.931706959497"/>
      <point x="1245.9379515306084" y="1216.5722182608085"/>
      <point x="1189.0633959080326" y="1217.0" type="curve" smooth="yes"/>
    </contour>
  </outline>
</glyph>
<glyph name="N" format="2">
  <advance width="1228"/>
  <unicode hex="004E"/>
  <outline>
    <contour>
      <point x="1189.6462622314095" y="1217.001801896327" type="line" smooth="yes"/>
      <point x="1118.8035778434396" y="1216.8230169202068"/>
      <point x="1061.3860606198043" y="1184.8915376211523"/>
      <point x="1047.518961801173" y="1135.4568798136256" type="curve" smooth="yes"/>
      <point x="898.2948106595139" y="291.58109390057723" type="line"/>
      <point x="1008.6182495715466" y="296.303999945599" type="line"/>
      <point x="599.5366986443534" y="1177.3866607493967" type="line" smooth="yes"/>
      <point x="577.74554881412" y="1200.6807405257525"/>
      <point x="530.8793730570353" y="1216.7962188151387"/>
      <point x="488.3559765010727" y="1217.0008864538395" type="curve" smooth="yes"/>
      <point x="460.78982759247396" y="1217.0007749879635" type="line" smooth="yes"/>
      <point x="388.386662494688" y="1216.8424775021333"/>
      <point x="329.7007575392792" y="1185.1630180076077"/>
      <point x="315.5183081578297" y="1135.4588631889296" type="curve" smooth="yes"/>
      <point x="125.60452452866612" y="58.4882644055565" type="line" smooth="yes"/>
      <point x="117.84439171672341" y="9.602136576493393"/>
      <point x="170.8411048486312" y="-30.166401021257066"/>
      <point x="244.74459606610134" y="-30.002508171408728" type="curve" smooth="yes"/>
      <point x="247.65386386953836" y="-30.00180189632688" type="line" smooth="yes"/>
      <point x="318.4965482575084" y="-29.823016920206797"/>
      <point x="375.91406548114355" y="2.108462378847708"/>
      <point x="389.7812852362371" y="51.54275334921473" type="curve" smooth="yes"/>
      <point x="542.7040923061571" y="916.4466096017126" type="line"/>
      <point x="432.41451093366595" y="911.6838012134608" type="line"/>
      <point x="845.4102670929367" y="24.576669671296553" type="line" smooth="yes"/>
      <point x="866.8008759293359" y="-11.220308533335178"/>
      <point x="914.5610702316163" y="-41.07312229197112"/>
      <point x="973.9919424943807" y="-42.00017195577089" type="curve" smooth="yes"/>
      <point x="1045.1931213178175" y="-41.44887873663005"/>
      <point x="1104.5802246353414" y="-6.990916490071086"/>
      <point x="1118.6049159239874" y="33.55027569948154" type="curve" smooth="yes"/>
      <point x="1311.6955236505153" y="1128.5119750909853" type="line" smooth="yes"/>
      <point x="1319.4557343842246" y="1177.3978634235066"/>
      <point x="1266.4590212523167" y="1217.166401021257"/>
      <point x="1192.5555300348467" y="1217.0025081714086" type="curve" smooth="yes"/>
    </contour>
  </outline>
</glyph>
<glyph name="O" format="2">
  <advance width="1228"/>
  <unicode hex="004F"/>
  <outline>
    <contour>
      <point x="147.29112741553377" y="596.4729635533386" type="curve" smooth="yes"/>
      <point x="81.94998625169576" y="219.7726497406344"/>
      <point x="273.3278345588949" y="-39.8198273295112"/>
      <point x="610.1208064244138" y="-42.0" type="curve" smooth="yes"/>
      <point x="944.1544940778804" y="-40.36039070741326"/>
      <point x="1219.9740937610404" y="213.82664556056483"/>
      <point x="1289.8326717047057" y="589.5270364466614" type="curve" smooth="yes"/>
      <point x="1355.1779682703582" y="966.2167433303837"/>
      <point x="1164.0491737142079" y="1226.8034674192338"/>
      <point x="827.1793196765342" y="1229.0" type="curve" smooth="yes"/>
      <point x="493.0852184827558" y="1227.3494971339749"/>
      <point x="217.14011655504154" y="972.1656098686242"/>
    </contour>
    <contour>
      <point x="1041.2911274155335" y="596.4729635533386" type="curve" smooth="yes"/>
      <point x="994.3058496857761" y="311.78524562181593"/>
      <point x="840.8428688564787" y="144.2984294134368"/>
      <point x="636.2171995692665" y="146.0" type="curve" smooth="yes"/>
      <point x="434.4440475761391" y="143.72654567229938"/>
      <point x="344.98728469615753" y="305.701159356586"/>
      <point x="395.8326717047057" y="589.5270364466614" type="curve" smooth="yes"/>
      <point x="442.829313398978" y="874.2244447709544"/>
      <point x="596.5416115215451" y="1042.7171168656098"/>
      <point x="801.0829265316813" y="1041.0" type="curve" smooth="yes"/>
      <point x="1002.7484996814112" y="1043.2969450157316"/>
      <point x="1092.1322726337557" y="880.311838921648"/>
    </contour>
  </outline>
</glyph>
<glyph name="P" format="2">
  <advance width="1228"/>
  <unicode hex="0050"/>
  <outline>
    <contour>
      <point x="507.3001261009479" y="1207.0" type="line" smooth="yes"/>
      <point x="449.7013884808859" y="1206.2987829314586"/>
      <point x="397.20785712615896" y="1177.0706043073108"/>
      <point x="385.03911926818637" y="1122.4729635533386" type="curve" smooth="yes"/>
      <point x="197.42721179437956" y="58.47296355333861" type="line" smooth="yes"/>
      <point x="188.82798472007738" y="6.998181356345472"/>
      <point x="238.77090985407318" y="-29.313762199313114"/>
      <point x="307.23673019291533" y="-30.0" type="curve" smooth="yes"/>
      <point x="309.23673019291533" y="-30.0" type="line" smooth="yes"/>
      <point x="376.68688491258365" y="-29.422629435359"/>
      <point x="430.3058430105612" y="0.7435024883043635"/>
      <point x="441.96875608355157" y="51.52703644666139" type="curve" smooth="yes"/>
      <point x="489.43213860598496" y="379.3737440693093" type="line"/>
      <point x="709.2965034184267" y="373.0" type="line" smooth="yes"/>
      <point x="1005.059003132475" y="374.1091236621139"/>
      <point x="1211.3688013977671" y="543.2128380472448"/>
      <point x="1258.2164329428565" y="784.5270364466614" type="curve" smooth="yes"/>
      <point x="1299.584406750923" y="1028.0094282597418"/>
      <point x="1147.2881591830676" y="1205.5425124612175"/>
      <point x="849.3001261009479" y="1207.0" type="curve" smooth="yes"/>
    </contour>
    <contour>
      <point x="525.8357451011299" y="542.5016988424318" type="line"/>
      <point x="609.3605041679145" y="1032.2335468466422" type="line"/>
      <point x="802.909040878929" y="1023.0" type="line" smooth="yes"/>
      <point x="984.7506829606351" y="1024.0234785724638"/>
      <point x="1038.4917618792206" y="944.6344112573742"/>
      <point x="1009.6748886536844" y="791.4729635533386" type="curve" smooth="yes"/>
      <point x="987.4368831183963" y="639.0692728800137"/>
      <point x="897.2394755001031" y="556.1990137051565"/>
      <point x="713.6875886404457" y="557.0" type="curve" smooth="yes"/>
    </contour>
  </outline>
</glyph>
<glyph name="Q" format="2">
  <advance width="1228"/>
  <unicode hex="0051"/>
  <outline>
    <contour>
      <point x="606.3405847415731" y="291.5967168216958" type="curve" smooth="yes"/>
      <point x="701.1747502545768" y="86.61365866452182" type="line"/>
      <point x="720.0329459503413" y="45.53508040837333" type="line"/>
      <point x="808.7756384529375" y="-143.5257429706657" type="line" smooth="yes"/>
      <point x="836.2605517626444" y="-187.01866905057736"/>
      <point x="909.6816824761108" y="-198.09907658401684"/>
      <point x="971.443191552806" y="-166.3883119132263" type="curve" smooth="yes"/>
      <point x="1033.20669921654" y="-133.83607777247005"/>
      <point x="1058.3690378349095" y="-89.39507372990798"/>
      <point x="1035.9799255360135" y="-45.54657038190919" type="curve" smooth="yes"/>
      <point x="833.7047415323333" y="389.43322764708483" type="line" smooth="yes"/>
      <point x="806.7357454118302" y="433.82810918004714"/>
      <point x="732.87108175888" y="445.09907658401687"/>
      <point x="670.6714815979872" y="413.2833019454171" type="curve" smooth="yes"/>
      <point x="610.1697380377425" y="379.83607777247005"/>
      <point x="584.0944621725301" y="336.69583129208127"/>
    </contour>
    <component base="O"/>
  </outline>
</glyph>
<glyph name="R" format="2">
  <advance width="1228"/>
  <unicode hex="0052"/>
  <outline>
    <contour>
      <point x="507.21767956952647" y="1207.0000703877713" type="line" smooth="yes"/>
      <point x="443.855755364139" y="1206.7802264954641"/>
      <point x="387.4757542355961" y="1175.7433680419479"/>
      <point x="373.2253244747309" y="1122.461089134019" type="curve" smooth="yes"/>
      <point x="185.60446669789624" y="58.48844216721303" type="line" smooth="yes"/>
      <point x="177.8588941394946" y="9.628199108010422"/>
      <point x="231.2569174089415" y="-30.186073578853424"/>
      <point x="306.7829353343188" y="-30.002132571322733" type="curve" smooth="yes"/>
      <point x="309.6227045336803" y="-30.001542737874367" type="line" smooth="yes"/>
      <point x="382.14787544676506" y="-29.844866757930678"/>
      <point x="439.89566737200687" y="2.1251305757711965"/>
      <point x="453.8073853808885" y="51.462211560315545" type="curve" smooth="yes"/>
      <point x="518.5280735479738" y="460.5123060262347" type="line"/>
      <point x="645.693491014204" y="458.5104081179103" type="line"/>
      <point x="853.041576624786" y="4.509423109942507" type="line" smooth="yes"/>
      <point x="886.3133689493383" y="-34.39803999154899"/>
      <point x="960.7246770260166" y="-41.08728159571447"/>
      <point x="1025.1979247294582" y="-18.484537921838815" type="curve" smooth="yes"/>
      <point x="1095.1908469521882" y="5.713366346694999"/>
      <point x="1128.451246709704" y="52.924487140197854"/>
      <point x="1104.6203787523082" y="96.60920236471291" type="curve" smooth="yes"/>
      <point x="917.376395459368" y="490.48203937970317" type="line"/>
      <point x="1065.9189526437024" y="517.0345792557019"/>
      <point x="1201.863102064167" y="648.9765342116208"/>
      <point x="1237.101193799739" y="824.4839246088299" type="curve" smooth="yes"/>
      <point x="1274.5025024032063" y="1047.8465708071742"/>
      <point x="1120.831657323719" y="1205.9100146183619"/>
      <point x="829.3909733790595" y="1207.0000854626803" type="curve" smooth="yes"/>
    </contour>
    <contour>
      <point x="618.6101812572829" y="1031.7250145092803" type="line"/>
      <point x="781.9331650314718" y="1022.9901350810815" type="line" smooth="yes"/>
      <point x="955.5174630406246" y="1023.9529119377888"/>
      <point x="990.2498820121871" y="963.0315081908911"/>
      <point x="964.9209715038463" y="831.4405217360309" type="curve" smooth="yes"/>
      <point x="947.8552625355601" y="699.8701378359775"/>
      <point x="881.2479782583584" y="636.3143501350341"/>
      <point x="706.1763842873617" y="637.0271135883875" type="curve" smooth="yes"/>
      <point x="551.0431909710061" y="623.5528884638954" type="line"/>
    </contour>
  </outline>
</glyph>
<glyph name="S" format="2">
  <advance width="1228"/>
  <unicode hex="0053"/>
  <outline>
    <contour>
      <point x="276.8994122068193" y="866.4729635533386" type="curve" smooth="yes"/>
      <point x="252.18584906370495" y="721.0497382072678"/>
      <point x="325.6194065973646" y="635.4442991570056"/>
      <point x="422.02231561889766" y="590.0532353554108" type="curve" smooth="yes"/>
      <point x="559.767132210203" y="526.3962457563075"/>
      <point x="751.5397613378315" y="524.3073083187794"/>
      <point x="853.6869876339649" y="473.8314212400773" type="curve" smooth="yes"/>
      <point x="912.0538932339008" y="444.82546116065066"/>
      <point x="933.8373380204554" y="410.2792170984784"/>
      <point x="918.3881505470821" y="330.4729635533386" type="curve" smooth="yes"/>
      <point x="904.2227912545993" y="219.64939888593483"/>
      <point x="826.4431444865623" y="145.2787642092207"/>
      <point x="644.2171995692665" y="146.0" type="curve" smooth="yes"/>
      <point x="521.7514486161938" y="145.68134424576525"/>
      <point x="417.4289395749715" y="188.7156069288386"/>
      <point x="339.06457488418323" y="248.19756165284113" type="curve" smooth="yes"/>
      <point x="300.8747864564144" y="269.02650713893144"/>
      <point x="223.99095529332874" y="267.1641434036503"/>
      <point x="176.6980845912907" y="210.4287522302286" type="curve" smooth="yes"/>
      <point x="137.81021613009642" y="158.16377869742277"/>
      <point x="143.70983624723002" y="106.54574127798652"/>
      <point x="190.17335730425648" y="77.57908031324779" type="curve" smooth="yes"/>
      <point x="302.33539863111656" y="2.889774945676212"/>
      <point x="458.20695162888563" y="-41.791441278832224"/>
      <point x="618.1208064244138" y="-42.0" type="curve" smooth="yes"/>
      <point x="926.2240428864269" y="-41.11723118034807"/>
      <point x="1124.592009622474" y="110.77759685982863"/>
      <point x="1166.9296948362542" y="323.5270364466614" type="curve" smooth="yes"/>
      <point x="1198.044636356156" y="506.27481085516223"/>
      <point x="1104.453686203077" y="603.2596742424245"/>
      <point x="986.8941478004608" y="652.3479176191638" type="curve" smooth="yes"/>
      <point x="835.9749836581539" y="714.6893113462485"/>
      <point x="639.9246254699035" y="713.6798781614443"/>
      <point x="558.2229316613851" y="765.4786316197918" type="curve" smooth="yes"/>
      <point x="522.9544572346708" y="786.9701630879487"/>
      <point x="515.816788482737" y="809.8186701674792"/>
      <point x="525.4409564959913" y="859.5270364466614" type="curve" smooth="yes"/>
      <point x="540.0932329607002" y="974.2073006211398"/>
      <point x="618.2970560381896" y="1041.7728003832694"/>
      <point x="765.0829265316813" y="1041.0" type="curve" smooth="yes"/>
      <point x="889.4048458432189" y="1041.1945081693866"/>
      <point x="986.8428750714029" y="1008.8659378850153"/>
      <point x="1067.2803122066437" y="952.3464879345958" type="curve" smooth="yes"/>
      <point x="1106.9777687560047" y="932.734117956905"/>
      <point x="1183.9752148437283" y="936.0983077763582"/>
      <point x="1228.514325267917" y="993.2535155154673" type="curve" smooth="yes"/>
      <point x="1265.053580655514" y="1047.2748253665272"/>
      <point x="1257.7280044311385" y="1098.0172703630662"/>
      <point x="1209.3225151889087" y="1125.8716730773272" type="curve" smooth="yes"/>
      <point x="1093.2162764705295" y="1196.4543145652503"/>
      <point x="949.3962808922552" y="1228.8815210985815"/>
      <point x="791.1793196765342" y="1229.0" type="curve" smooth="yes"/>
      <point x="537.3496298280182" y="1228.1518950265129"/>
      <point x="322.30000036994255" y="1090.9713260305655"/>
    </contour>
  </outline>
</glyph>
<glyph name="T" format="2">
  <advance width="1228"/>
  <unicode hex="0054"/>
  <outline>
    <contour>
      <point x="394.3001261009479" y="1207.0" type="line" smooth="yes"/>
      <point x="335.4807813228263" y="1206.153191412991"/>
      <point x="283.61882234428816" y="1174.8434863669843"/>
      <point x="271.3338113453525" y="1118.4729635533386" type="curve" smooth="yes"/>
      <point x="261.56531772941" y="1061.5305221699666"/>
      <point x="308.60932294035945" y="1024.0431839847104"/>
      <point x="368.909040878929" y="1023.0" type="curve" smooth="yes"/>
      <point x="675.6845692895542" y="1039.4193497665224" type="line"/>
      <point x="501.42721179437956" y="58.47296355333861" type="line" smooth="yes"/>
      <point x="492.82798472007744" y="6.998181356345454"/>
      <point x="542.7709098540732" y="-29.313762199313114"/>
      <point x="611.2367301929154" y="-30.0" type="curve" smooth="yes"/>
      <point x="613.2367301929154" y="-30.0" type="line" smooth="yes"/>
      <point x="680.6868849125838" y="-29.422629435359"/>
      <point x="734.3058430105613" y="0.7435024883043901"/>
      <point x="745.9687560835515" y="51.52703644666139" type="curve" smooth="yes"/>
      <point x="915.239229870337" y="1033.5704816685138" type="line"/>
      <point x="1226.9090408789289" y="1023.0" type="line" smooth="yes"/>
      <point x="1285.7283856570505" y="1023.8468085870089"/>
      <point x="1337.5903446355887" y="1055.1565136330157"/>
      <point x="1349.8753556345246" y="1111.5270364466614" type="curve" smooth="yes"/>
      <point x="1359.643849250467" y="1168.4694778300334"/>
      <point x="1312.5998440395174" y="1205.9568160152896"/>
      <point x="1252.3001261009479" y="1207.0" type="curve" smooth="yes"/>
    </contour>
  </outline>
</glyph>
<glyph name="U" format="2">
  <advance width="1228"/>
  <unicode hex="0055"/>
  <outline>
    <contour>
      <point x="1188.0633959080326" y="1217.0" type="line" smooth="yes"/>
      <point x="1120.6132411883643" y="1216.4226294353589"/>
      <point x="1066.9942830903867" y="1186.2564975116957"/>
      <point x="1055.3313700173962" y="1135.4729635533386" type="curve" smooth="yes"/>
      <point x="932.0788105021794" y="436.4729635533386" type="line" smooth="yes"/>
      <point x="900.1720433744534" y="234.2947507815656"/>
      <point x="803.4617485039628" y="145.03157402050124"/>
      <point x="636.2171995692665" y="146.0" type="curve" smooth="yes"/>
      <point x="470.6585370658403" y="144.79015340046888"/>
      <point x="411.97729138858574" y="228.3941842922358"/>
      <point x="448.6203547913513" y="429.5270364466614" type="curve" smooth="yes"/>
      <point x="571.8729143065683" y="1128.5270364466614" type="line" smooth="yes"/>
      <point x="580.4721413808705" y="1180.0018186436546"/>
      <point x="530.5292162468747" y="1216.313762199313"/>
      <point x="462.0633959080326" y="1217.0" type="curve" smooth="yes"/>
      <point x="460.0633959080326" y="1217.0" type="line" smooth="yes"/>
      <point x="392.61324118836427" y="1216.4226294353589"/>
      <point x="338.9942830903867" y="1186.2564975116957"/>
      <point x="327.33137001739635" y="1135.4729635533386" type="curve" smooth="yes"/>
      <point x="200.55227088801007" y="416.4729635533386" type="line" smooth="yes"/>
      <point x="150.84450838120387" y="123.4215533500934"/>
      <point x="333.71892879201044" y="-40.796139573595454"/>
      <point x="610.1208064244138" y="-42.0" type="curve" smooth="yes"/>
      <point x="884.8440612051849" y="-41.03590252225759"/>
      <point x="1116.9501817492348" y="117.8649018418925"/>
      <point x="1173.093815177182" y="409.5270364466614" type="curve" smooth="yes"/>
      <point x="1299.8729143065684" y="1128.5270364466614" type="line" smooth="yes"/>
      <point x="1308.4721413808707" y="1180.0018186436546"/>
      <point x="1258.5292162468747" y="1216.313762199313"/>
      <point x="1190.0633959080326" y="1217.0" type="curve" smooth="yes"/>
    </contour>
  </outline>
</glyph>
<glyph name="V" format="2">
  <advance width="1228"/>
  <unicode hex="0056"/>
  <outline>
    <contour>
      <point x="1133.8671651898765" y="1160.6180243107913" type="curve" smooth="yes"/>
      <point x="644.0915104889407" y="202.0" type="line"/>
      <point x="501.05757940993" y="1154.8436865175142" type="line" smooth="yes"/>
      <point x="487.66565378291125" y="1204.716335872091"/>
      <point x="419.19421503652336" y="1226.9426491176869"/>
      <point x="352.12290248441417" y="1208.061681027807" type="curve" smooth="yes"/>
      <point x="286.12218409097414" y="1188.4725185166435"/>
      <point x="243.66112969021992" y="1149.621376000746"/>
      <point x="253.42517847385517" y="1099.06854006349" type="curve" smooth="yes"/>
      <point x="465.5175104003931" y="39.07076142385269" type="line" smooth="yes"/>
      <point x="481.00633475369955" y="-14.200009782894139"/>
      <point x="541.268290843701" y="-41.574146500886364"/>
      <point x="608.1208064244138" y="-42.0" type="curve" smooth="yes"/>
      <point x="674.3206158197532" y="-41.629217111878084"/>
      <point x="735.1719345231586" y="-17.741019538049066"/>
      <point x="768.5867316716202" y="33.321060484083475" type="curve" smooth="yes"/>
      <point x="1354.4912351260566" y="1093.3194813742007" type="line" smooth="yes"/>
      <point x="1384.1216035564307" y="1142.694481583366"/>
      <point x="1354.823028766531" y="1187.4374779059356"/>
      <point x="1292.817942505172" y="1207.8317086467252" type="curve" smooth="yes"/>
      <point x="1230.5584138769198" y="1226.9394659238737"/>
      <point x="1164.1826376583194" y="1208.4484213091473"/>
    </contour>
  </outline>
</glyph>
<glyph name="W" format="2">
  <advance width="1228"/>
  <unicode hex="0057"/>
  <outline>
    <contour>
      <point x="1157.9050237290603" y="1144.8080676594568" type="curve" smooth="yes"/>
      <point x="906.6725500542586" y="273.67231100563" type="line"/>
      <point x="880.2694016443452" y="848.4674512805493" type="line" smooth="yes"/>
      <point x="870.2161567908579" y="880.9521169693485"/>
      <point x="820.5363556721029" y="904.5168343368008"/>
      <point x="766.0493779269915" y="905.0" type="curve" smooth="yes"/>
      <point x="712.2969329845291" y="904.582844930276"/>
      <point x="663.367329070006" y="884.5913284955836"/>
      <point x="642.5618625110068" y="854.3478182376939" type="curve" smooth="yes"/>
      <point x="410.0162713003036" y="271.4503446271597" type="line"/>
      <point x="465.77850724325185" y="1138.017750591268" type="line" smooth="yes"/>
      <point x="466.8365790134194" y="1190.6006527814925"/>
      <point x="409.3529575580893" y="1221.82098037404"/>
      <point x="340.4623597296749" y="1215.8718661493356" type="curve" smooth="yes"/>
      <point x="273.0871277207076" y="1207.919192503812"/>
      <point x="221.68816169271972" y="1175.4466426314182"/>
      <point x="217.8730978775842" y="1122.7551304605254" type="curve" smooth="yes"/>
      <point x="176.61673168219602" y="43.7600327812454" type="line" smooth="yes"/>
      <point x="177.8102249998233" y="-12.809912159720906"/>
      <point x="238.25452710870027" y="-41.57294286615385"/>
      <point x="299.1208064244138" y="-42.0" type="curve" smooth="yes"/>
      <point x="360.81331475489947" y="-41.497463624230996"/>
      <point x="421.7933509784586" y="-15.621612325831723"/>
      <point x="452.9982221648594" y="33.63779389957277" type="curve" smooth="yes"/>
      <point x="720.9096708656244" y="609.0" type="line"/>
      <point x="777.3173895942897" y="39.51264896460812" type="line" smooth="yes"/>
      <point x="791.0811670391173" y="-12.002193885943607"/>
      <point x="850.5435940727866" y="-41.40954874077113"/>
      <point x="913.1208064244138" y="-42.0" type="curve" smooth="yes"/>
      <point x="973.3326490925699" y="-41.6282373243577"/>
      <point x="1033.9919559870436" y="-17.630180403721987"/>
      <point x="1056.369314818735" y="36.99757988948987" type="curve" smooth="yes"/>
      <point x="1395.6229061187048" y="1115.993316044776" type="line" smooth="yes"/>
      <point x="1413.1226991386104" y="1168.757060400129"/>
      <point x="1368.091516259225" y="1207.6333896086671"/>
      <point x="1301.5353907019532" y="1215.8610470813712" type="curve" smooth="yes"/>
      <point x="1234.822863767675" y="1221.8366553182843"/>
      <point x="1176.7652445117303" y="1196.1505162079236"/>
    </contour>
  </outline>
</glyph>
<glyph name="X" format="2">
  <advance width="1228"/>
  <unicode hex="0058"/>
  <outline>
    <contour>
      <point x="1085.8850374319932" y="1184.8557270235467" type="curve" smooth="yes"/>
      <point x="748.5190394853662" y="744.7474975585938" type="line"/>
      <point x="573.7684438076295" y="1180.7920621237647" type="line" smooth="yes"/>
      <point x="539.8355017376763" y="1226.8404766830622"/>
      <point x="468.20259970127853" y="1229.2344695458648"/>
      <point x="407.7124363173212" y="1205.4395492670365" type="curve" smooth="yes"/>
      <point x="348.1625239912978" y="1182.1130221243573"/>
      <point x="311.7433380056983" y="1136.8227022896806"/>
      <point x="337.88158961374916" y="1088.8852113202524" type="curve" smooth="yes"/>
      <point x="585.6580471665671" y="608.5602995402272" type="line"/>
      <point x="143.59828258224212" y="102.1838236249667" type="line" smooth="yes"/>
      <point x="101.25322946426236" y="56.61272513273369"/>
      <point x="117.53935813248961" y="6.951135069943398"/>
      <point x="172.7736715212759" y="-17.938179813450173" type="curve" smooth="yes"/>
      <point x="225.87262748192174" y="-41.98848005316718"/>
      <point x="294.47018444504795" y="-42.10398779504561"/>
      <point x="340.23306330857076" y="2.0544231437559226" type="curve" smooth="yes"/>
      <point x="704.057229756347" y="466.63836669921875" type="line"/>
      <point x="898.736425556672" y="6.035734360588984" type="line" smooth="yes"/>
      <point x="931.2882973825632" y="-40.84047668306211"/>
      <point x="1004.4288544357445" y="-42.19459754303923"/>
      <point x="1064.5876897836267" y="-18.439549267036565" type="curve" smooth="yes"/>
      <point x="1124.4615251420705" y="4.9870952726685225"/>
      <point x="1160.733115075958" y="51.177297710319486"/>
      <point x="1134.1117393474312" y="98.36025826859196" type="curve" smooth="yes"/>
      <point x="866.823772991414" y="601.0443273195552" type="line"/>
      <point x="1282.8952595316553" y="1084.9086806395592" type="line" smooth="yes"/>
      <point x="1326.0468966366855" y="1130.3872748672663"/>
      <point x="1308.413940766134" y="1180.1937979692134"/>
      <point x="1253.526454579672" y="1204.9381798134502" type="curve" smooth="yes"/>
      <point x="1199.8501544256633" y="1229.0663554596142"/>
      <point x="1131.6536146751914" y="1228.1039877950457"/>
    </contour>
  </outline>
</glyph>
<glyph name="Y" format="2">
  <advance width="1228"/>
  <unicode hex="0059"/>
  <outline>
    <contour>
      <point x="1124.6359702244204" y="1184.731025117443" type="curve" smooth="yes"/>
      <point x="728.1103014335271" y="666.019775390625" type="line"/>
      <point x="523.0689455030293" y="1180.53148334709" type="line" smooth="yes"/>
      <point x="496.1354627683559" y="1220.0320982934954"/>
      <point x="426.0848760415691" y="1229.5367854198612"/>
      <point x="363.48202035887306" y="1205.3989304503086" type="curve" smooth="yes"/>
      <point x="297.266293235135" y="1178.9993795513328"/>
      <point x="266.58117847837235" y="1133.867130643393"/>
      <point x="289.9520326779353" y="1087.3707990477187" type="curve" smooth="yes"/>
      <point x="577.8219370205961" y="482.6893730831617" type="line"/>
      <point x="501.42721179437956" y="58.4729635533386" type="line" smooth="yes"/>
      <point x="492.82798472007744" y="6.998181356345454"/>
      <point x="542.7709098540732" y="-29.313762199313114"/>
      <point x="611.2367301929154" y="-30.0" type="curve" smooth="yes"/>
      <point x="613.2367301929154" y="-30.0" type="line" smooth="yes"/>
      <point x="680.6868849125838" y="-29.422629435359"/>
      <point x="734.3058430105613" y="0.7435024883043901"/>
      <point x="745.9687560835515" y="51.5270364466614" type="curve" smooth="yes"/>
      <point x="816.8383696556109" y="477.68633147344275" type="line"/>
      <point x="1318.1597397493742" y="1083.211701401069" type="line" smooth="yes"/>
      <point x="1357.9164971917858" y="1127.6432515375327"/>
      <point x="1346.3413143004973" y="1177.0024738724549"/>
      <point x="1285.818990940776" y="1204.8775661328448" type="curve" smooth="yes"/>
      <point x="1229.5821576255346" y="1229.4452822554174"/>
      <point x="1162.7512488779064" y="1221.6139475807524"/>
    </contour>
  </outline>
</glyph>
<glyph name="Z" format="2">
  <advance width="1228"/>
  <unicode hex="005A"/>
  <outline>
    <contour>
      <point x="465.3001261009479" y="1207.0" type="line" smooth="yes"/>
      <point x="406.4807813228263" y="1206.153191412991"/>
      <point x="354.61882234428816" y="1174.8434863669843"/>
      <point x="342.3338113453525" y="1118.4729635533386" type="curve" smooth="yes"/>
      <point x="332.56531772941" y="1061.5305221699666"/>
      <point x="379.60932294035945" y="1024.0431839847104"/>
      <point x="439.909040878929" y="1023.0" type="curve" smooth="yes"/>
      <point x="958.9196638597157" y="1047.9745741678908" type="line"/>
      <point x="164.23873810078464" y="124.06947682714843" type="line" smooth="yes"/>
      <point x="151.80418453542518" y="110.85860325983836"/>
      <point x="137.14492613481224" y="92.93812125636771"/>
      <point x="131.71946254358966" y="71.4729635533386" type="curve" smooth="yes"/>
      <point x="122.36025451510703" y="16.23928491517533"/>
      <point x="171.17053609721006" y="-19.151923352070455"/>
      <point x="230.0" y="-20.0" type="curve" smooth="yes"/>
      <point x="996.0" y="-20.0" type="line" smooth="yes"/>
      <point x="1054.8193447781216" y="-19.15319141299105"/>
      <point x="1106.6813037566596" y="12.156513633015702"/>
      <point x="1118.9663147555955" y="68.5270364466614" type="curve" smooth="yes"/>
      <point x="1128.7348083715378" y="125.46947783003331"/>
      <point x="1081.6908031605885" y="162.95681601528952"/>
      <point x="1021.391085222019" y="164.0" type="curve" smooth="yes"/>
      <point x="459.83103331256217" y="139.81999482371089" type="line"/>
      <point x="1257.754843888938" y="1066.9248050394463" type="line" smooth="yes"/>
      <point x="1271.153964718797" y="1079.5710187186323"/>
      <point x="1281.7136290416806" y="1097.61141556186"/>
      <point x="1285.580663557358" y="1115.5270364466614" type="curve" smooth="yes"/>
      <point x="1294.939871585841" y="1170.7607150848246"/>
      <point x="1246.1295900037378" y="1206.1519233520705"/>
      <point x="1187.3001261009479" y="1207.0" type="curve" smooth="yes"/>
    </contour>
  </outline>
</glyph>
<glyph name="bracketleft" format="2">
  <advance width="1228"/>
  <unicode hex="005B"/>
  <outline>
    <contour>
      <point x="634.9206175320139" y="1392.0" type="line" smooth="yes"/>
      <point x="577.3218799119519" y="1391.2987829314586"/>
      <point x="524.828348557225" y="1362.0706043073108"/>
      <point x="512.6596106992523" y="1307.4729635533386" type="curve" smooth="yes"/>
      <point x="236.0025779676708" y="-261.5270364466614" type="line" smooth="yes"/>
      <point x="226.64336993918818" y="-316.7607150848247"/>
      <point x="275.45365152129125" y="-352.15192335207047"/>
      <point x="334.2831154240812" y="-353.0" type="curve" smooth="yes"/>
      <point x="748.2831154240812" y="-353.0" type="line" smooth="yes"/>
      <point x="807.1024602022028" y="-352.1531914129911"/>
      <point x="858.9644191807408" y="-320.84348636698434"/>
      <point x="871.2494301796767" y="-264.4729635533386" type="curve" smooth="yes"/>
      <point x="881.017923795619" y="-207.53052216996662"/>
      <point x="833.9739185846696" y="-170.04318398471048"/>
      <point x="773.6742006461001" y="-169.0" type="curve" smooth="yes"/>
      <point x="494.6032233812418" y="-187.91276506628554" type="line"/>
      <point x="740.9867980792004" y="1220.459006471958" type="line"/>
      <point x="1023.5295323099949" y="1208.0" type="line" smooth="yes"/>
      <point x="1082.3488770881165" y="1208.846808587009"/>
      <point x="1134.2108360666548" y="1240.1565136330157"/>
      <point x="1146.4958470655906" y="1296.5270364466614" type="curve" smooth="yes"/>
      <point x="1156.264340681533" y="1353.4694778300334"/>
      <point x="1109.2203354705834" y="1390.9568160152896"/>
      <point x="1048.920617532014" y="1392.0" type="curve" smooth="yes"/>
    </contour>
  </outline>
</glyph>
<glyph name="backslash" format="2">
  <advance width="1228"/>
  <unicode hex="005C"/>
  <outline>
    <contour>
      <point x="387.7035955794653" y="1319.4714174366952" type="curve" smooth="yes"/>
      <point x="770.0031236681841" y="-323.5371011270559" type="line" smooth="yes"/>
      <point x="783.4706823486531" y="-351.9003879873453"/>
      <point x="830.4130464214462" y="-374.2535943417378"/>
      <point x="875.403921848495" y="-375.0" type="curve" smooth="yes"/>
      <point x="951.002659468557" y="-374.2987829314587"/>
      <point x="1027.7919309562892" y="-334.60813442219836"/>
      <point x="1023.5001373766298" y="-280.47141743669516" type="curve" smooth="yes"/>
      <point x="641.200609287911" y="1362.5371011270558" type="line" smooth="yes"/>
      <point x="627.733050607442" y="1390.9003879873453"/>
      <point x="580.7906865346489" y="1413.2535943417379"/>
      <point x="535.7998111076001" y="1414.0" type="curve" smooth="yes"/>
      <point x="460.2010734875381" y="1413.2987829314586"/>
      <point x="383.411801999806" y="1373.6081344221984"/>
    </contour>
  </outline>
</glyph>
<glyph name="bracketright" format="2">
  <advance width="1228"/>
  <unicode hex="005D"/>
  <outline>
    <contour>
      <point x="387.67420064610013" y="-169.0" type="line" smooth="yes"/>
      <point x="328.85485586797853" y="-169.84680858700895"/>
      <point x="276.9928968894404" y="-201.15651363301566"/>
      <point x="264.70788589050466" y="-257.5270364466614" type="curve" smooth="yes"/>
      <point x="254.93939227456227" y="-314.4694778300334"/>
      <point x="301.98339748551166" y="-351.9568160152895"/>
      <point x="362.2831154240812" y="-353.0" type="curve" smooth="yes"/>
      <point x="776.2831154240812" y="-353.0" type="line" smooth="yes"/>
      <point x="833.8818530441432" y="-352.2987829314587"/>
      <point x="886.3753843988701" y="-323.0706043073109"/>
      <point x="898.5441222568428" y="-268.4729635533386" type="curve" smooth="yes"/>
      <point x="1175.2011549884244" y="1300.5270364466614" type="line" smooth="yes"/>
      <point x="1184.5603630169069" y="1355.7607150848246"/>
      <point x="1135.7500814348039" y="1391.1519233520705"/>
      <point x="1076.920617532014" y="1392.0" type="curve" smooth="yes"/>
      <point x="662.9206175320139" y="1392.0" type="line" smooth="yes"/>
      <point x="604.1012727538923" y="1391.153191412991"/>
      <point x="552.2393137753542" y="1359.8434863669843"/>
      <point x="539.9543027764186" y="1303.4729635533386" type="curve" smooth="yes"/>
      <point x="530.1858091604761" y="1246.5305221699666"/>
      <point x="577.2298143714254" y="1209.0431839847106"/>
      <point x="637.5295323099949" y="1208.0" type="curve" smooth="yes"/>
      <point x="916.6005095748533" y="1226.9127650662856" type="line"/>
      <point x="670.2169348768946" y="-181.45900647195808" type="line"/>
    </contour>
  </outline>
</glyph>
<glyph name="asciicircum" format="2">
  <advance width="1228"/>
  <unicode hex="005E"/>
  <outline>
    <contour>
      <point x="713.300281322309" y="1183.4502903002015" type="curve" smooth="yes"/>
      <point x="301.08454757835227" y="592.4464178121907" type="line" smooth="yes"/>
      <point x="268.47073330375184" y="547.5754815597242"/>
      <point x="311.83640727473016" y="503.4227243673656"/>
      <point x="357.35977135385565" y="490.05596909215876" type="curve" smooth="yes"/>
      <point x="401.1611571083989" y="477.1304496702752"/>
      <point x="471.7231739389158" y="481.92752144672374"/>
      <point x="509.7755335547252" y="515.851688863955" type="curve" smooth="yes"/>
      <point x="791.5612695734242" y="987.0" type="line"/>
      <point x="898.1784085234756" y="520.943098376417" type="line" smooth="yes"/>
      <point x="929.5910815759025" y="481.53662882691333"/>
      <point x="1005.5523146399446" y="476.16184603129"/>
      <point x="1054.726953006974" y="491.1145912344195" type="curve" smooth="yes"/>
      <point x="1098.3515691431096" y="504.75443847516766"/>
      <point x="1149.4497817934098" y="542.0445860538582"/>
      <point x="1137.8283698353757" y="587.5143846022497" type="curve" smooth="yes"/>
      <point x="934.0219748112327" y="1178.5332706742079" type="line" smooth="yes"/>
      <point x="920.9111550949056" y="1206.3834834301856"/>
      <point x="877.67372877651" y="1228.4180907893438"/>
      <point x="827.1793196765342" y="1229.0" type="curve" smooth="yes"/>
      <point x="777.5577961175969" y="1228.504198431964"/>
      <point x="735.2623935709863" y="1209.8514681361123"/>
    </contour>
  </outline>
</glyph>
<glyph name="underscore" format="2">
  <advance width="1228"/>
  <unicode hex="005F"/>
  <outline>
    <contour>
      <point x="89.09458180359222" y="-229.0" type="line" smooth="yes"/>
      <point x="30.275237025470616" y="-229.84680858700895"/>
      <point x="-21.586721953067567" y="-261.15651363301566"/>
      <point x="-33.87173295200325" y="-317.5270364466614" type="curve" smooth="yes"/>
      <point x="-43.64022656794563" y="-374.4694778300333"/>
      <point x="3.4037786430037524" y="-411.9568160152895"/>
      <point x="63.70349658157326" y="-413.0" type="curve" smooth="yes"/>
      <point x="1025.7034965815733" y="-413.0" type="line" smooth="yes"/>
      <point x="1084.522841359695" y="-412.1531914129911"/>
      <point x="1136.384800338233" y="-380.8434863669843"/>
      <point x="1148.6698113371688" y="-324.4729635533386" type="curve" smooth="yes"/>
      <point x="1158.4383049531111" y="-267.5305221699667"/>
      <point x="1111.3942997421618" y="-230.04318398471048"/>
      <point x="1051.0945818035923" y="-229.0" type="curve" smooth="yes"/>
    </contour>
  </outline>
</glyph>
<glyph name="a" format="2">
  <advance width="1228"/>
  <unicode hex="0061"/>
  <outline>
    <contour>
      <point x="393.89979943908975" y="873.0126789570402" type="curve" smooth="yes"/>
      <point x="346.49635557372164" y="852.2380060377806"/>
      <point x="310.41661790386917" y="808.4177012213688"/>
      <point x="326.23370099942576" y="755.2190817596962" type="curve" smooth="yes"/>
      <point x="346.16918580157005" y="703.8848946352472"/>
      <point x="416.0791329636875" y="683.1141598420512"/>
      <point x="471.68970979087317" y="703.8925411989111" type="curve" smooth="yes"/>
      <point x="571.9810029506009" y="752.1486715250596"/>
      <point x="680.7439637944487" y="781.1845700371891"/>
      <point x="775.2379115474805" y="781.0" type="curve" smooth="yes"/>
      <point x="925.5772319644401" y="781.7082559734471"/>
      <point x="947.4179544458592" y="737.4558723950801"/>
      <point x="924.8176670297031" y="616.4729635533386" type="curve" smooth="yes"/>
      <point x="935.5347914342913" y="546.2148045937744" type="line"/>
      <point x="881.5851879517857" y="580.2835011546983"/>
      <point x="774.4680119373731" y="598.9245979434057"/>
      <point x="662.0933218302013" y="599.0" type="curve" smooth="yes"/>
      <point x="433.48389649229523" y="598.5951158910553"/>
      <point x="207.98771977725954" y="506.1551933664249"/>
      <point x="159.33751264669957" y="273.4729635533386" type="curve" smooth="yes"/>
      <point x="127.87550340039007" y="78.19819075780819"/>
      <point x="280.0827931486176" y="-40.993137268995866"/>
      <point x="495.1208064244138" y="-42.0" type="curve" smooth="yes"/>
      <point x="648.8266516602415" y="-41.61962933953054"/>
      <point x="799.7825825057575" y="16.19974653463178"/>
      <point x="905.1200991224837" y="103.7635621644902" type="curve"/>
      <point x="836.4272117943796" y="58.4729635533386" type="line" smooth="yes"/>
      <point x="827.7035356249025" y="7.606854903448436"/>
      <point x="874.8924606584789" y="-29.21158898020927"/>
      <point x="941.2367301929154" y="-30.0" type="curve" smooth="yes"/>
      <point x="943.2367301929154" y="-30.0" type="line" smooth="yes"/>
      <point x="1008.4286843525172" y="-29.34408938299554"/>
      <point x="1059.8028232913166" y="1.2165159419695426"/>
      <point x="1070.9687560835516" y="51.52703644666139" type="curve" smooth="yes"/>
      <point x="1169.3592113188752" y="609.5270364466614" type="line" smooth="yes"/>
      <point x="1207.7805157138675" y="835.9043730562905"/>
      <point x="1070.4476548262035" y="965.0467359256199"/>
      <point x="804.8053237502079" y="966.0" type="curve" smooth="yes"/>
      <point x="670.1069095403043" y="965.8585627150183"/>
      <point x="521.3626675218801" y="932.8854087655805"/>
    </contour>
    <contour>
      <point x="873.7753321076226" y="295.1921695712662" type="line"/>
      <point x="771.5571439287778" y="199.6601244874783"/>
      <point x="657.6087341372884" y="138.46865658710956"/>
      <point x="525.9829107043073" y="139.0" type="curve" smooth="yes"/>
      <point x="419.3324046298685" y="138.08538937286684"/>
      <point x="390.198900999822" y="181.47659537628056"/>
      <point x="408.4080378779969" y="269.5270364466614" type="curve" smooth="yes"/>
      <point x="419.8333991920458" y="381.44326832632447"/>
      <point x="502.3694562790413" y="418.2895567091654"/>
      <point x="638.2312175503076" y="418.0" type="curve" smooth="yes"/>
      <point x="737.4386265059243" y="418.05438479499765"/>
      <point x="835.4311513033048" y="403.14710815762265"/>
      <point x="890.1363589335303" y="383.90690216080685" type="curve"/>
    </contour>
  </outline>
</glyph>
<glyph name="b" format="2">
  <advance width="1228"/>
  <unicode hex="0062"/>
  <outline>
    <contour>
      <point x="499.1042684965907" y="1342.0" type="line" smooth="yes"/>
      <point x="431.6541137769224" y="1341.4226294353589"/>
      <point x="378.03515567894476" y="1311.2564975116957"/>
      <point x="366.3722426059545" y="1260.4729635533386" type="curve" smooth="yes"/>
      <point x="154.4272117943796" y="58.47296355333861" type="line" smooth="yes"/>
      <point x="145.70353562490254" y="7.606854903448454"/>
      <point x="192.89246065847885" y="-29.21158898020927"/>
      <point x="259.23673019291533" y="-30.0" type="curve" smooth="yes"/>
      <point x="261.23673019291533" y="-30.0" type="line" smooth="yes"/>
      <point x="326.4286843525171" y="-29.34408938299554"/>
      <point x="377.8028232913166" y="1.2165159419695168"/>
      <point x="388.96875608355157" y="51.52703644666139" type="curve" smooth="yes"/>
      <point x="349.7748485706996" y="128.30284894445577" type="line"/>
      <point x="386.6866122588325" y="27.113084532547287"/>
      <point x="509.63667746695626" y="-41.3117090101121"/>
      <point x="655.1208064244138" y="-42.0" type="curve" smooth="yes"/>
      <point x="919.710967165191" y="-40.60866288106467"/>
      <point x="1159.1919782124235" y="150.3022407619701"/>
      <point x="1217.7338372318968" y="458.5270364466614" type="curve" smooth="yes"/>
      <point x="1270.7655818651504" y="767.9557243868554"/>
      <point x="1092.7707727154038" y="964.1877784801998"/>
      <point x="825.8053237502079" y="966.0" type="curve" smooth="yes"/>
      <point x="680.9920015051973" y="965.3848336045914"/>
      <point x="548.3097340336432" y="898.8136106479764"/>
      <point x="527.6775194650793" y="781.7510052245732" type="curve"/>
      <point x="610.9137868951265" y="1253.5270364466614" type="line" smooth="yes"/>
      <point x="619.5130139694287" y="1305.0018186436546"/>
      <point x="569.5700888354329" y="1341.313762199313"/>
      <point x="501.1042684965907" y="1342.0" type="curve" smooth="yes"/>
    </contour>
    <contour>
      <point x="969.1922929427249" y="465.4729635533386" type="curve" smooth="yes"/>
      <point x="938.7794741901872" y="274.7833048382456"/>
      <point x="832.4972776989079" y="144.2342239719393"/>
      <point x="671.2171995692665" y="146.0" type="curve" smooth="yes"/>
      <point x="513.359696368461" y="144.3407410048339"/>
      <point x="433.0516474872164" y="254.12117408811156"/>
      <point x="470.7338372318968" y="458.5270364466614" type="curve" smooth="yes"/>
      <point x="502.66692752361234" y="664.1850902052104"/>
      <point x="629.643743865586" y="779.2860898260093"/>
      <point x="789.708930605355" y="778.0" type="curve" smooth="yes"/>
      <point x="948.0410148125146" y="780.3706881081737"/>
      <point x="1003.4620923756828" y="655.3014444718278"/>
    </contour>
  </outline>
</glyph>
<glyph name="c" format="2">
  <advance width="1228"/>
  <unicode hex="0063"/>
  <outline>
    <contour>
      <point x="181.19229294272486" y="465.4729635533386" type="curve" smooth="yes"/>
      <point x="132.70479355587878" y="180.77299330847882"/>
      <point x="312.8945575447474" y="-40.13768165665306"/>
      <point x="625.1208064244138" y="-42.0" type="curve" smooth="yes"/>
      <point x="784.5531050602169" y="-41.75879259706401"/>
      <point x="957.5668201084242" y="8.781978666276082"/>
      <point x="1085.6970268135567" y="89.18984225927902" type="curve" smooth="yes"/>
      <point x="1135.1108386394774" y="117.77691704256233"/>
      <point x="1161.3466486657812" y="168.29004544619804"/>
      <point x="1138.0297623429851" y="221.70420073567502" type="curve" smooth="yes"/>
      <point x="1102.9504659605118" y="278.75216266190915"/>
      <point x="1020.0331119595407" y="276.6300544136668"/>
      <point x="979.8438757389503" y="253.55133865783105" type="curve" smooth="yes"/>
      <point x="878.3148474654181" y="182.06395642249407"/>
      <point x="765.9386182468767" y="145.7687246589457"/>
      <point x="651.2171995692665" y="146.0" type="curve" smooth="yes"/>
      <point x="476.6826921729589" y="144.09102952820308"/>
      <point x="399.0772190685213" y="271.065350816695"/>
      <point x="433.7338372318968" y="458.5270364466614" type="curve" smooth="yes"/>
      <point x="462.72255217819605" y="647.2245383713488"/>
      <point x="592.6955916233783" y="779.4572564665581"/>
      <point x="769.708930605355" y="778.0" type="curve" smooth="yes"/>
      <point x="875.289289001355" y="778.1796777548367"/>
      <point x="962.7604875365525" y="751.1890985397478"/>
      <point x="1041.8650094223942" y="685.3014494276841" type="curve" smooth="yes"/>
      <point x="1078.630427724868" y="662.3681560545963"/>
      <point x="1157.8370783504647" y="661.5461578048169"/>
      <point x="1204.8363209909674" y="717.5134035543132" type="curve" smooth="yes"/>
      <point x="1245.0701386211267" y="770.1126477192965"/>
      <point x="1237.4529198570349" y="823.3318652341462"/>
      <point x="1192.7717685352268" y="852.1351364992705" type="curve" smooth="yes"/>
      <point x="1086.2426216210408" y="926.9921851821771"/>
      <point x="944.3346357189565" y="965.814101693121"/>
      <point x="795.8053237502079" y="966.0" type="curve" smooth="yes"/>
      <point x="486.0082129163781" y="964.5744693264276"/>
      <point x="235.5844020707784" y="748.8894796312774"/>
    </contour>
  </outline>
</glyph>
<glyph name="d" format="2">
  <advance width="1228"/>
  <unicode hex="0064"/>
  <outline>
    <contour>
      <point x="1193.1042684965907" y="1342.0" type="line" smooth="yes"/>
      <point x="1125.6541137769225" y="1341.4226294353589"/>
      <point x="1072.0351556789449" y="1311.2564975116957"/>
      <point x="1060.3722426059544" y="1260.4729635533386" type="curve" smooth="yes"/>
      <point x="978.995446628947" y="788.270636627885" type="line"/>
      <point x="996.6913734479499" y="896.6890981284537"/>
      <point x="881.7001808162789" y="965.2647970782526"/>
      <point x="735.8053237502079" y="966.0" type="curve" smooth="yes"/>
      <point x="471.21516300943057" y="964.6086628810647"/>
      <point x="231.73415196219833" y="773.6977592380299"/>
      <point x="173.19229294272486" y="465.4729635533386" type="curve" smooth="yes"/>
      <point x="120.16054830947121" y="156.04427561314458"/>
      <point x="298.15535745921784" y="-40.187778480199796"/>
      <point x="565.1208064244138" y="-42.0" type="curve" smooth="yes"/>
      <point x="709.5864933930242" y="-41.421038591929324"/>
      <point x="850.2494355277324" y="25.069171339958572"/>
      <point x="929.9449430133303" y="128.2691712906957" type="curve"/>
      <point x="858.4272117943796" y="58.47296355333861" type="line" smooth="yes"/>
      <point x="849.7035356249025" y="7.606854903448436"/>
      <point x="896.8924606584789" y="-29.21158898020927"/>
      <point x="963.2367301929154" y="-30.0" type="curve" smooth="yes"/>
      <point x="965.2367301929154" y="-30.0" type="line" smooth="yes"/>
      <point x="1030.4286843525172" y="-29.34408938299554"/>
      <point x="1081.8028232913166" y="1.2165159419695426"/>
      <point x="1092.9687560835516" y="51.52703644666139" type="curve" smooth="yes"/>
      <point x="1304.9137868951266" y="1253.5270364466614" type="line" smooth="yes"/>
      <point x="1313.5130139694288" y="1305.0018186436546"/>
      <point x="1263.570088835433" y="1341.313762199313"/>
      <point x="1195.1042684965907" y="1342.0" type="curve" smooth="yes"/>
    </contour>
    <contour>
      <point x="920.1922929427249" y="465.4729635533386" type="curve" smooth="yes"/>
      <point x="888.2592026510092" y="259.81490979478957"/>
      <point x="761.2823863090356" y="144.71391017399068"/>
      <point x="601.2171995692665" y="146.0" type="curve" smooth="yes"/>
      <point x="442.88511536210706" y="143.62931189182626"/>
      <point x="387.4640377989387" y="268.6985555281721"/>
      <point x="421.7338372318968" y="458.5270364466614" type="curve" smooth="yes"/>
      <point x="452.1466559844344" y="649.2166951617544"/>
      <point x="558.4288524757137" y="779.7657760280607"/>
      <point x="719.708930605355" y="778.0" type="curve" smooth="yes"/>
      <point x="877.5664338061607" y="779.6592589951662"/>
      <point x="957.8744826874051" y="669.8788259118885"/>
    </contour>
  </outline>
</glyph>
<glyph name="e" format="2">
  <advance width="1228"/>
  <unicode hex="0065"/>
  <outline>
    <contour>
      <point x="170.3761217000965" y="465.46832092143404" type="curve" smooth="yes"/>
      <point x="117.26269340357597" y="158.19176558426966"/>
      <point x="282.67495141653745" y="-40.50115289710715"/>
      <point x="598.9771255084042" y="-42.000213772992126" type="curve" smooth="yes"/>
      <point x="761.1394950010649" y="-41.86583664663581"/>
      <point x="932.8079317881839" y="-4.052049080192255"/>
      <point x="1051.9722562633258" y="46.69725923811387" type="curve" smooth="yes"/>
      <point x="1111.1812232752795" y="68.77996463002012"/>
      <point x="1149.7050007834955" y="114.50577325975449"/>
      <point x="1140.5216097656842" y="165.72847929744248" type="curve" smooth="yes"/>
      <point x="1123.8807195159766" y="216.78230433012752"/>
      <point x="1047.8221200507423" y="251.09926033763338"/>
      <point x="972.7842730883561" y="226.64435041475943" type="curve" smooth="yes"/>
      <point x="879.3000098960291" y="174.84842857623087"/>
      <point x="751.5932353932117" y="142.85361236158496"/>
      <point x="624.524547326227" y="143.0002773963328" type="curve" smooth="yes"/>
      <point x="459.34287639629775" y="141.48708154315722"/>
      <point x="410.0150521101584" y="228.17168539764816"/>
      <point x="391.34694277637584" y="405.81686153065834" type="curve"/>
      <point x="1100.933455215255" y="404.99999968543926" type="line" smooth="yes"/>
      <point x="1163.0290652971294" y="405.1304287469905"/>
      <point x="1223.0467052928552" y="434.8208368006822"/>
      <point x="1234.4536311692432" y="484.652365454429" type="curve" smooth="yes"/>
      <point x="1265.5697459306953" y="756.4275458996575"/>
      <point x="1112.523948667353" y="964.2822574979544"/>
      <point x="789.8457502795469" y="966.0000169232793" type="curve" smooth="yes"/>
      <point x="489.3073526518707" y="964.747828128654"/>
      <point x="229.0238512916826" y="762.9386866394104"/>
    </contour>
    <contour>
      <point x="1013.8422276073253" y="584.2583120004715" type="curve"/>
      <point x="424.87468741331736" y="584.0879152026154" type="line"/>
      <point x="514.6970877670444" y="701.2739241677493"/>
      <point x="615.2234779123017" y="781.9252810241379"/>
      <point x="764.2580163590264" y="780.9999958144607" type="curve" smooth="yes"/>
      <point x="922.6224719443154" y="782.197537062718"/>
      <point x="970.0891592056257" y="709.7833383478173"/>
    </contour>
  </outline>
</glyph>
<glyph name="f" format="2">
  <advance width="1228"/>
  <unicode hex="0066"/>
  <outline>
    <contour>
      <point x="571.2374182004996" y="970.4729635533386" type="curve" smooth="yes"/>
      <point x="573.3706967886442" y="861.450980478713" type="line"/>
      <point x="398.81997171794444" y="864.0" type="line" smooth="yes"/>
      <point x="340.00062693982284" y="863.1531914129911"/>
      <point x="288.1386679612846" y="831.8434863669843"/>
      <point x="275.85365696234896" y="775.4729635533386" type="curve" smooth="yes"/>
      <point x="266.0851633464066" y="718.5305221699666"/>
      <point x="313.12916855735597" y="681.0431839847105"/>
      <point x="373.4288864959255" y="680.0" type="curve" smooth="yes"/>
      <point x="523.833380120666" y="697.4090243122819" type="line"/>
      <point x="410.4272117943796" y="58.47296355333861" type="line" smooth="yes"/>
      <point x="401.8279847200774" y="6.998181356345489"/>
      <point x="451.7709098540732" y="-29.313762199313118"/>
      <point x="520.2367301929154" y="-30.0" type="curve" smooth="yes"/>
      <point x="522.2367301929154" y="-30.0" type="line" smooth="yes"/>
      <point x="589.6868849125838" y="-29.422629435359"/>
      <point x="643.3058430105613" y="0.7435024883043901"/>
      <point x="654.9687560835515" y="51.5270364466614" type="curve" smooth="yes"/>
      <point x="760.5162593371464" y="688.3916839826389" type="line"/>
      <point x="1067.4288864959256" y="680.0" type="line" smooth="yes"/>
      <point x="1126.2482312740472" y="680.8468085870089"/>
      <point x="1178.1101902525852" y="712.1565136330157"/>
      <point x="1190.395201251521" y="768.5270364466614" type="curve" smooth="yes"/>
      <point x="1200.1636948674634" y="825.4694778300333"/>
      <point x="1153.119689656514" y="862.9568160152895"/>
      <point x="1092.8199717179446" y="864.0" type="curve" smooth="yes"/>
      <point x="762.1407275051025" y="862.9538659668308" type="line"/>
      <point x="813.4867117404616" y="950.5270364466614" type="line" smooth="yes"/>
      <point x="834.0227211701066" y="1082.6804406485553"/>
      <point x="882.1427813249138" y="1152.2439136134258"/>
      <point x="1006.4788944096125" y="1151.0" type="curve" smooth="yes"/>
      <point x="1079.6627590531536" y="1151.1473633436883"/>
      <point x="1147.1661119208725" y="1132.9965212279824"/>
      <point x="1216.4724607960482" y="1103.5219963422583" type="curve" smooth="yes"/>
      <point x="1271.3782486599637" y="1088.0393085399555"/>
      <point x="1336.7426174863963" y="1113.8888295161516"/>
      <point x="1362.1985598351525" y="1165.3672819827882" type="curve" smooth="yes"/>
      <point x="1384.4960336728643" y="1216.278240148171"/>
      <point x="1362.093519832316" y="1264.24813984427"/>
      <point x="1307.565021587531" y="1284.4834076668867" type="curve" smooth="yes"/>
      <point x="1229.028708656919" y="1316.0875912120848"/>
      <point x="1131.4523534494483" y="1336.8809391467873"/>
      <point x="1032.2226335930484" y="1337.0" type="curve" smooth="yes"/>
      <point x="792.3964464380316" y="1335.8816296310283"/>
      <point x="614.9244067097891" y="1195.530755043513"/>
    </contour>
  </outline>
</glyph>
<glyph name="h" format="2">
  <advance width="1228"/>
  <unicode hex="0068"/>
  <outline>
    <contour>
      <point x="509.1042684965907" y="1342.0" type="line" smooth="yes"/>
      <point x="441.6541137769224" y="1341.4226294353589"/>
      <point x="388.03515567894476" y="1311.2564975116957"/>
      <point x="376.3722426059545" y="1260.4729635533386" type="curve" smooth="yes"/>
      <point x="164.4272117943796" y="58.47296355333861" type="line" smooth="yes"/>
      <point x="155.82798472007738" y="6.998181356345472"/>
      <point x="205.77090985407318" y="-29.313762199313114"/>
      <point x="274.23673019291533" y="-30.0" type="curve" smooth="yes"/>
      <point x="276.23673019291533" y="-30.0" type="line" smooth="yes"/>
      <point x="343.68688491258365" y="-29.422629435359"/>
      <point x="397.3058430105612" y="0.7435024883043635"/>
      <point x="408.96875608355157" y="51.52703644666139" type="curve" smooth="yes"/>
      <point x="468.39094858230425" y="388.5270364466614" type="line" smooth="yes"/>
      <point x="501.717896590024" y="609.1969143605928"/>
      <point x="701.5804628359093" y="779.7943737385613"/>
      <point x="852.708930605355" y="778.0" type="curve" smooth="yes"/>
      <point x="961.5199600256027" y="779.8551092527157"/>
      <point x="973.1855957418305" y="718.0437375050427"/>
      <point x="953.4070511840354" y="608.4729635533386" type="curve" smooth="yes"/>
      <point x="856.4272117943796" y="58.47296355333861" type="line" smooth="yes"/>
      <point x="847.8279847200774" y="6.998181356345454"/>
      <point x="897.7709098540732" y="-29.313762199313114"/>
      <point x="966.2367301929154" y="-30.0" type="curve" smooth="yes"/>
      <point x="968.2367301929154" y="-30.0" type="line" smooth="yes"/>
      <point x="1035.6868849125835" y="-29.422629435359"/>
      <point x="1089.3058430105611" y="0.7435024883043635"/>
      <point x="1100.9687560835516" y="51.52703644666139" type="curve" smooth="yes"/>
      <point x="1200.5935001838343" y="616.5270364466614" type="line" smooth="yes"/>
      <point x="1235.9068668443585" y="823.3576351826355"/>
      <point x="1116.6710043726523" y="964.3904701253836"/>
      <point x="893.8053237502079" y="966.0" type="curve" smooth="yes"/>
      <point x="744.8315233010303" y="965.1337257736257"/>
      <point x="564.6020209022493" y="870.5597098265358"/>
      <point x="526.8893403935234" y="721.0491283972461" type="curve"/>
      <point x="620.9137868951265" y="1253.5270364466614" type="line" smooth="yes"/>
      <point x="629.5130139694287" y="1305.0018186436546"/>
      <point x="579.5700888354329" y="1341.313762199313"/>
      <point x="511.1042684965907" y="1342.0" type="curve" smooth="yes"/>
    </contour>
  </outline>
</glyph>
<glyph name="k" format="2">
  <advance width="1228"/>
  <unicode hex="006B"/>
  <outline>
    <contour>
      <point x="1044.6494906202493" y="939.8491060495545" type="curve" smooth="yes"/>
      <point x="489.5522854828154" y="468.96983858113816" type="line"/>
      <point x="650.9137868951265" y="1253.5270364466614" type="line" smooth="yes"/>
      <point x="659.5130139694287" y="1305.0018186436546"/>
      <point x="609.5700888354329" y="1341.313762199313"/>
      <point x="541.1042684965907" y="1342.0" type="curve" smooth="yes"/>
      <point x="539.1042684965907" y="1342.0" type="line" smooth="yes"/>
      <point x="471.6541137769224" y="1341.4226294353589"/>
      <point x="418.03515567894476" y="1311.2564975116957"/>
      <point x="406.3722426059545" y="1260.4729635533386" type="curve" smooth="yes"/>
      <point x="194.4272117943796" y="58.47296355333861" type="line" smooth="yes"/>
      <point x="185.82798472007738" y="6.998181356345472"/>
      <point x="235.77090985407318" y="-29.313762199313114"/>
      <point x="304.23673019291533" y="-30.0" type="curve" smooth="yes"/>
      <point x="306.23673019291533" y="-30.0" type="line" smooth="yes"/>
      <point x="373.68688491258365" y="-29.422629435359"/>
      <point x="427.3058430105612" y="0.7435024883043635"/>
      <point x="438.96875608355157" y="51.52703644666139" type="curve" smooth="yes"/>
      <point x="467.3877771604747" y="247.37470384140923" type="line"/>
      <point x="614.5000238219706" y="399.36603355072344" type="line"/>
      <point x="899.7466605832047" y="-8.784609398564905" type="line" smooth="yes"/>
      <point x="935.808558333313" y="-41.784279426857935"/>
      <point x="1003.280222511924" y="-40.83256484286961"/>
      <point x="1061.0383135938837" y="-12.741789911761579" type="curve" smooth="yes"/>
      <point x="1124.7438188922958" y="18.064998736260733"/>
      <point x="1148.2209522392868" y="66.01738607027757"/>
      <point x="1115.3796042826455" y="106.87197191875269" type="curve" smooth="yes"/>
      <point x="813.4810266400102" y="513.4280987093299" type="line"/>
      <point x="1210.9260802836466" y="817.0772971714065" type="line" smooth="yes"/>
      <point x="1263.5287389599143" y="852.8494837920764"/>
      <point x="1257.5419168532428" y="907.9145587622049"/>
      <point x="1203.5159148743492" y="940.650947533214" type="curve" smooth="yes"/>
      <point x="1152.9923898205254" y="968.1732629529336"/>
      <point x="1085.668112727073" y="964.6818948224674"/>
    </contour>
  </outline>
</glyph>
<glyph name="l" format="2">
  <advance width="1228"/>
  <unicode hex="006C"/>
  <outline>
    <contour>
      <point x="266.76166373752443" y="164.01946530466347" type="line" smooth="yes"/>
      <point x="200.62018590004794" y="163.6333583363495"/>
      <point x="144.81925223904364" y="130.57473206841135"/>
      <point x="130.601258218163" y="75.49080153436631" type="curve" smooth="yes"/>
      <point x="121.41739649698191" y="20.945835091521975"/>
      <point x="171.60623560993778" y="-19.967446172574526"/>
      <point x="239.94509814065688" y="-20.00003121231159" type="curve" smooth="yes"/>
      <point x="1024.0446225423734" y="-20.00002061865278" type="line" smooth="yes"/>
      <point x="1088.770899321971" y="-19.633358336349517"/>
      <point x="1144.5718329829751" y="13.425267931588657"/>
      <point x="1158.7898270038559" y="68.50919846563372" type="curve" smooth="yes"/>
      <point x="1167.973688725037" y="123.054164908478"/>
      <point x="1117.7848496120814" y="163.96744617257454"/>
      <point x="1047.2516062133952" y="164.0474793164066" type="curve" smooth="yes"/>
      <point x="788.0659144300955" y="146.6700112532004" type="line"/>
      <point x="981.4382663814384" y="1240.5299747845634" type="line" smooth="yes"/>
      <point x="990.0790004052303" y="1293.2315640099994"/>
      <point x="938.1873337925687" y="1332.1527621028085"/>
      <point x="871.4313678664954" y="1332.0000845655172" type="curve" smooth="yes"/>
      <point x="511.2507630734012" y="1332.0000843157345" type="line" smooth="yes"/>
      <point x="446.570099367535" y="1331.6333583363496"/>
      <point x="390.76916570653066" y="1298.5747320684113"/>
      <point x="376.5511716856501" y="1243.4908015343663" type="curve" smooth="yes"/>
      <point x="367.367309964469" y="1188.945835091522"/>
      <point x="417.55614907742483" y="1148.0325538274253"/>
      <point x="488.50853868550615" y="1147.9320452231095" type="curve" smooth="yes"/>
      <point x="699.1396828734238" y="1165.828676164202" type="line"/>
      <point x="524.1943509908907" y="152.85126407020266" type="line"/>
    </contour>
  </outline>
</glyph>
<glyph name="m" format="2">
  <advance width="1228"/>
  <unicode hex="006D"/>
  <outline>
    <contour>
      <point x="798.5078382849268" y="785.820645788538" type="curve"/>
      <point x="860.0979544633213" y="895.8433726666877"/>
      <point x="760.2008895717522" y="964.938276275045"/>
      <point x="650.8722403729575" y="966.0000463681845" type="curve" smooth="yes"/>
      <point x="540.802347345614" y="965.0527220633913"/>
      <point x="420.98975468755407" y="898.6436122917003"/>
      <point x="349.86678034909556" y="789.1326071890335" type="curve"/>
      <point x="460.42167318092925" y="869.912404890354" type="line" smooth="yes"/>
      <point x="471.53580024550047" y="912.9288907804842"/>
      <point x="424.3149349475183" y="954.157902024717"/>
      <point x="352.3395030074842" y="954.0043770712366" type="curve" smooth="yes"/>
      <point x="349.147197950094" y="954.0030445341513" type="line" smooth="yes"/>
      <point x="280.59363259393876" y="953.7695537656555"/>
      <point x="227.8174457716449" y="920.7350536369936"/>
      <point x="215.1431244851908" y="872.4624714672245" type="curve" smooth="yes"/>
      <point x="71.60301940745657" y="58.4928952835542" type="line" smooth="yes"/>
      <point x="63.858894139494595" y="9.628199108010422"/>
      <point x="117.2569174089415" y="-30.186073578853424"/>
      <point x="192.7829353343188" y="-30.002132571322733" type="curve" smooth="yes"/>
      <point x="195.6227045336803" y="-30.001542737874367" type="line" smooth="yes"/>
      <point x="268.1478754467651" y="-29.84486675793068"/>
      <point x="325.89566737200687" y="2.1251305757712107"/>
      <point x="339.77599865506556" y="51.5587365421709" type="curve" smooth="yes"/>
      <point x="410.67559000805" y="453.5095817365857" type="line" smooth="yes"/>
      <point x="442.8847208078935" y="651.2681292491068"/>
      <point x="525.1995198039994" y="781.5884165672866"/>
      <point x="585.355951401393" y="777.9987097626924" type="curve" smooth="yes"/>
      <point x="629.48233216776" y="781.8417522421978"/>
      <point x="612.3156029791114" y="746.443869076532"/>
      <point x="597.2914712152095" y="663.4603877007839" type="curve" smooth="yes"/>
      <point x="490.6009727044567" y="58.49920721807008" type="line" smooth="yes"/>
      <point x="482.8588941394947" y="9.628199108010396"/>
      <point x="536.2569174089415" y="-30.186073578853424"/>
      <point x="611.7829353343188" y="-30.002132571322733" type="curve" smooth="yes"/>
      <point x="614.6227045336803" y="-30.001542737874367" type="line" smooth="yes"/>
      <point x="687.147875446765" y="-29.84486675793068"/>
      <point x="744.895667372007" y="2.125130575771238"/>
      <point x="758.7759986550656" y="51.55873654217089" type="curve" smooth="yes"/>
      <point x="829.67559000805" y="453.5095817365857" type="line" smooth="yes"/>
      <point x="861.8847208078935" y="651.2681292491068"/>
      <point x="944.1995198039994" y="781.5884165672866"/>
      <point x="1004.355951401393" y="777.9987097626924" type="curve" smooth="yes"/>
      <point x="1048.48233216776" y="781.8417522421977"/>
      <point x="1031.3156029791116" y="746.4438690765321"/>
      <point x="1016.2914712152096" y="663.4603877007839" type="curve" smooth="yes"/>
      <point x="909.6009727044567" y="58.49920721807008" type="line" smooth="yes"/>
      <point x="901.8588941394946" y="9.628199108010396"/>
      <point x="955.2569174089415" y="-30.186073578853417"/>
      <point x="1030.7829353343188" y="-30.002132571322733" type="curve" smooth="yes"/>
      <point x="1033.6227045336802" y="-30.001542737874367" type="line" smooth="yes"/>
      <point x="1106.147875446765" y="-29.844866757930678"/>
      <point x="1163.8956673720068" y="2.125130575771192"/>
      <point x="1177.7794233831887" y="51.548394645198584" type="curve" smooth="yes"/>
      <point x="1287.6488960511208" y="674.494014093339" type="line" smooth="yes"/>
      <point x="1319.753810464996" y="863.7825661933674"/>
      <point x="1208.2382413868586" y="964.5793966508401"/>
      <point x="1068.9436866171147" y="966.0001982410198" type="curve" smooth="yes"/>
      <point x="957.871028400507" y="965.0601524489248"/>
      <point x="844.156564390019" y="900.9841298358211"/>
    </contour>
  </outline>
</glyph>
<glyph name="n" format="2">
  <advance width="1228"/>
  <unicode hex="006E"/>
  <outline>
    <contour>
      <point x="472.5631567567703" y="724.544409547264" type="curve"/>
      <point x="553.3523375605336" y="867.5633932984299" type="line" smooth="yes"/>
      <point x="562.3203647108314" y="913.6452545235139"/>
      <point x="511.92679292520154" y="954.1805253220039"/>
      <point x="438.2299593358812" y="954.0030261124149" type="curve" smooth="yes"/>
      <point x="435.23389029403984" y="954.002148720409" type="line" smooth="yes"/>
      <point x="364.7413821709265" y="953.813686147974"/>
      <point x="309.4186828074122" y="921.3111041618146"/>
      <point x="296.1440936367711" y="872.4595268497683" type="curve" smooth="yes"/>
      <point x="152.60301940745657" y="58.4928952835542" type="line" smooth="yes"/>
      <point x="144.8588941394946" y="9.628199108010422"/>
      <point x="198.2569174089415" y="-30.186073578853424"/>
      <point x="273.7829353343188" y="-30.002132571322733" type="curve" smooth="yes"/>
      <point x="276.6227045336803" y="-30.001542737874367" type="line" smooth="yes"/>
      <point x="349.14787544676506" y="-29.844866757930678"/>
      <point x="406.89566737200687" y="2.1251305757711965"/>
      <point x="420.7742496701101" y="51.56400082908196" type="curve" smooth="yes"/>
      <point x="480.2295591916296" y="388.46227023977985" type="line" smooth="yes"/>
      <point x="511.903619399847" y="609.1234843447743"/>
      <point x="706.4060456167598" y="779.8289442638207"/>
      <point x="852.7188137946331" y="777.9999989885473" type="curve" smooth="yes"/>
      <point x="958.7734251507868" y="780.359031380176"/>
      <point x="961.1184873295123" y="716.6551748486811"/>
      <point x="941.597907101409" y="608.447000041462" type="curve" smooth="yes"/>
      <point x="844.6002005016068" y="58.501593094884214" type="line" smooth="yes"/>
      <point x="836.8588941394946" y="9.628199108010396"/>
      <point x="890.2569174089415" y="-30.186073578853424"/>
      <point x="965.7829353343188" y="-30.002132571322733" type="curve" smooth="yes"/>
      <point x="968.6227045336803" y="-30.001542737874367" type="line" smooth="yes"/>
      <point x="1041.147875446765" y="-29.84486675793068"/>
      <point x="1098.8956673720068" y="2.125130575771192"/>
      <point x="1112.778762266312" y="51.55039456921483" type="curve" smooth="yes"/>
      <point x="1212.4224699510528" y="616.4923448267829" type="line" smooth="yes"/>
      <point x="1247.559369684616" y="822.85342643715"/>
      <point x="1122.2273699408252" y="964.593332278495"/>
      <point x="893.8766090752331" y="966.000052620192" type="curve" smooth="yes"/>
      <point x="728.95625709292" y="965.003738833069"/>
      <point x="538.7737014127144" y="857.5744715312418"/>
    </contour>
  </outline>
</glyph>
<glyph name="o" format="2">
  <advance width="1228"/>
  <unicode hex="006F"/>
  <outline>
    <contour>
      <point x="168.19229294272486" y="465.4729635533386" type="curve" smooth="yes"/>
      <point x="119.11941615178705" y="175.23781207181074"/>
      <point x="314.25759646762486" y="-40.207202912147665"/>
      <point x="610.1208064244138" y="-42.0" type="curve" smooth="yes"/>
      <point x="903.629744682544" y="-40.621956691486936"/>
      <point x="1166.938186221014" y="169.73768327400845"/>
      <point x="1222.7338372318968" y="458.5270364466614" type="curve" smooth="yes"/>
      <point x="1271.8067140228347" y="748.7621879281893"/>
      <point x="1076.6685337069969" y="964.2072029121476"/>
      <point x="780.8053237502079" y="966.0" type="curve" smooth="yes"/>
      <point x="487.2963854920776" y="964.621956691487"/>
      <point x="223.98794395360784" y="754.2623167259916"/>
    </contour>
    <contour>
      <point x="974.1922929427249" y="465.4729635533386" type="curve" smooth="yes"/>
      <point x="944.9041073616362" y="274.81490979478957"/>
      <point x="814.5226289454075" y="144.59146949337617"/>
      <point x="636.2171995692665" y="146.0" type="curve" smooth="yes"/>
      <point x="460.314172988298" y="144.16261259903703"/>
      <point x="381.6965521978434" y="269.12117408811156"/>
      <point x="416.7338372318968" y="458.5270364466614" type="curve" smooth="yes"/>
      <point x="446.02202281298537" y="649.1850902052104"/>
      <point x="576.403501229214" y="779.4085305066238"/>
      <point x="754.708930605355" y="778.0" type="curve" smooth="yes"/>
      <point x="930.6119571863236" y="779.8373874009629"/>
      <point x="1009.2295779767783" y="654.8788259118885"/>
    </contour>
  </outline>
</glyph>
<glyph name="p" format="2">
  <advance width="1228"/>
  <unicode hex="0070"/>
  <outline>
    <contour>
      <point x="460.9811871612914" y="795.7308287093043" type="curve"/>
      <point x="532.498918380242" y="865.5270364466614" type="line" smooth="yes"/>
      <point x="541.2225945497191" y="916.3931450965515"/>
      <point x="494.03366951614277" y="953.2115889802093"/>
      <point x="427.6893999817063" y="954.0" type="curve" smooth="yes"/>
      <point x="425.6893999817063" y="954.0" type="line" smooth="yes"/>
      <point x="360.4974458221045" y="953.3440893829955"/>
      <point x="309.123306883305" y="922.7834840580305"/>
      <point x="297.95737409107005" y="872.4729635533386" type="curve" smooth="yes"/>
      <point x="86.01234327949518" y="-329.5270364466614" type="line" smooth="yes"/>
      <point x="77.41311620519298" y="-381.00181864365453"/>
      <point x="127.35604133918876" y="-417.3137621993131"/>
      <point x="195.82186167803093" y="-418.0" type="curve" smooth="yes"/>
      <point x="197.82186167803093" y="-418.0" type="line" smooth="yes"/>
      <point x="265.27201639769925" y="-417.422629435359"/>
      <point x="318.8909744956768" y="-387.2564975116956"/>
      <point x="330.55388756866716" y="-336.4729635533386" type="curve" smooth="yes"/>
      <point x="411.93068354567475" y="135.72936337211502" type="line"/>
      <point x="394.2347567266718" y="27.310901871546374"/>
      <point x="509.2259493583428" y="-41.2647970782526"/>
      <point x="655.1208064244138" y="-42.0" type="curve" smooth="yes"/>
      <point x="919.710967165191" y="-40.60866288106467"/>
      <point x="1159.1919782124235" y="150.3022407619701"/>
      <point x="1217.7338372318968" y="458.5270364466614" type="curve" smooth="yes"/>
      <point x="1270.7655818651504" y="767.9557243868554"/>
      <point x="1092.7707727154038" y="964.1877784801998"/>
      <point x="825.8053237502079" y="966.0" type="curve" smooth="yes"/>
      <point x="681.3396367815975" y="965.4210385919293"/>
      <point x="540.6766946468892" y="898.9308286600415"/>
    </contour>
    <contour>
      <point x="969.1922929427249" y="465.4729635533386" type="curve" smooth="yes"/>
      <point x="938.7794741901872" y="274.7833048382456"/>
      <point x="832.4972776989079" y="144.2342239719393"/>
      <point x="671.2171995692665" y="146.0" type="curve" smooth="yes"/>
      <point x="513.359696368461" y="144.3407410048339"/>
      <point x="433.0516474872164" y="254.12117408811156"/>
      <point x="470.7338372318968" y="458.5270364466614" type="curve" smooth="yes"/>
      <point x="502.66692752361234" y="664.1850902052104"/>
      <point x="629.643743865586" y="779.2860898260093"/>
      <point x="789.708930605355" y="778.0" type="curve" smooth="yes"/>
      <point x="948.0410148125146" y="780.3706881081737"/>
      <point x="1003.4620923756828" y="655.3014444718278"/>
    </contour>
  </outline>
</glyph>
<glyph name="q" format="2">
  <advance width="1228"/>
  <unicode hex="0071"/>
  <outline>
    <contour>
      <point x="173.19229294272486" y="465.4729635533386" type="curve" smooth="yes"/>
      <point x="120.16054830947121" y="156.04427561314458"/>
      <point x="298.15535745921784" y="-40.187778480199796"/>
      <point x="565.1208064244138" y="-42.0" type="curve" smooth="yes"/>
      <point x="709.9341286694244" y="-41.38483360459145"/>
      <point x="842.6163961409785" y="25.186389352023642"/>
      <point x="863.2486107095424" y="142.2489947754268" type="curve"/>
      <point x="780.0123432794952" y="-329.5270364466614" type="line" smooth="yes"/>
      <point x="771.413116205193" y="-381.00181864365453"/>
      <point x="821.3560413391888" y="-417.3137621993131"/>
      <point x="889.8218616780309" y="-418.0" type="curve" smooth="yes"/>
      <point x="891.8218616780309" y="-418.0" type="line" smooth="yes"/>
      <point x="959.2720163976993" y="-417.422629435359"/>
      <point x="1012.8909744956768" y="-387.2564975116956"/>
      <point x="1024.5538875686673" y="-336.4729635533386" type="curve" smooth="yes"/>
      <point x="1236.4989183802422" y="865.5270364466614" type="line" smooth="yes"/>
      <point x="1245.2225945497191" y="916.3931450965516"/>
      <point x="1198.0336695161427" y="953.2115889802093"/>
      <point x="1131.6893999817062" y="954.0" type="curve" smooth="yes"/>
      <point x="1129.6893999817062" y="954.0" type="line" smooth="yes"/>
      <point x="1064.4974458221043" y="953.3440893829955"/>
      <point x="1013.1233068833051" y="922.7834840580305"/>
      <point x="1001.9573740910702" y="872.4729635533387" type="curve" smooth="yes"/>
      <point x="1041.151281603922" y="795.6971510555443" type="line"/>
      <point x="1004.2395179157892" y="896.8869154674527"/>
      <point x="881.2894527076654" y="965.311709010112"/>
      <point x="735.8053237502079" y="966.0" type="curve" smooth="yes"/>
      <point x="471.21516300943057" y="964.6086628810647"/>
      <point x="231.73415196219833" y="773.6977592380299"/>
    </contour>
    <contour>
      <point x="920.1922929427249" y="465.4729635533386" type="curve" smooth="yes"/>
      <point x="888.2592026510092" y="259.81490979478957"/>
      <point x="761.2823863090356" y="144.71391017399068"/>
      <point x="601.2171995692665" y="146.0" type="curve" smooth="yes"/>
      <point x="442.88511536210706" y="143.62931189182626"/>
      <point x="387.4640377989387" y="268.6985555281721"/>
      <point x="421.7338372318968" y="458.5270364466614" type="curve" smooth="yes"/>
      <point x="452.1466559844344" y="649.2166951617544"/>
      <point x="558.4288524757137" y="779.7657760280607"/>
      <point x="719.708930605355" y="778.0" type="curve" smooth="yes"/>
      <point x="877.5664338061607" y="779.6592589951662"/>
      <point x="957.8744826874051" y="669.8788259118885"/>
    </contour>
  </outline>
</glyph>
<glyph name="s" format="2">
  <advance width="1228"/>
  <unicode hex="0073"/>
  <outline>
    <contour>
      <point x="1144.113345800831" y="273.5270364466614" type="curve" smooth="yes"/>
      <point x="1166.2433466564344" y="406.6730625630102"/>
      <point x="1088.2148805975175" y="483.5726169005219"/>
      <point x="990.1509490378668" y="520.6013256621806" type="curve" smooth="yes"/>
      <point x="841.5668256115596" y="575.8668741681769"/>
      <point x="630.933430274735" y="561.9508167520816"/>
      <point x="538.4604997181967" y="596.9223534788873" type="curve" smooth="yes"/>
      <point x="501.89224965157314" y="610.4786316197918"/>
      <point x="499.11758220555555" y="622.2391140586196"/>
      <point x="507.64657941217285" y="656.5270364466614" type="curve" smooth="yes"/>
      <point x="514.3776227687111" y="740.5697513112382"/>
      <point x="581.8649230993764" y="781.4063828040134"/>
      <point x="711.2379115474805" y="781.0" type="curve" smooth="yes"/>
      <point x="824.2559767763228" y="781.1559182818906"/>
      <point x="924.3615189404987" y="753.4198478880468"/>
      <point x="1015.1068038514463" y="700.5599266446044" type="curve" smooth="yes"/>
      <point x="1059.8163526798405" y="681.3381188471751"/>
      <point x="1130.6735707764813" y="692.4804143619134"/>
      <point x="1170.6731042118922" y="748.4919113878746" type="curve" smooth="yes"/>
      <point x="1206.929292612897" y="803.6952135954726"/>
      <point x="1188.441509459137" y="853.0727151983281"/>
      <point x="1140.6656097747868" y="876.5085592768511" type="curve" smooth="yes"/>
      <point x="1023.3029169763608" y="938.8440522099861"/>
      <point x="877.300424481051" y="965.9121075213272"/>
      <point x="730.8053237502079" y="966.0" type="curve" smooth="yes"/>
      <point x="507.25062620956123" y="965.411877828372"/>
      <point x="301.1681202087378" y="860.9254806046765"/>
      <point x="259.1050351230009" y="663.4729635533386" type="curve" smooth="yes"/>
      <point x="238.6320522803508" y="540.5723644015438"/>
      <point x="309.083151359101" y="466.78016983726866"/>
      <point x="400.24228901882157" y="429.58939080826167" type="curve" smooth="yes"/>
      <point x="548.2344354133287" y="371.1419858079314"/>
      <point x="766.0403879882889" y="386.0547228793465"/>
      <point x="861.413601749532" y="348.1882399006564" type="curve" smooth="yes"/>
      <point x="900.4559071939376" y="332.74213429876886"/>
      <point x="904.5448601405792" y="319.17979204059503"/>
      <point x="895.5718015116588" y="280.4729635533386" type="curve" smooth="yes"/>
      <point x="887.5161957557204" y="197.49450868102576"/>
      <point x="823.429899665544" y="142.44208928565763"/>
      <point x="665.6882186271412" y="143.0" type="curve" smooth="yes"/>
      <point x="539.8681281870896" y="142.8335465579875"/>
      <point x="430.3359124690814" y="174.39701248483553"/>
      <point x="338.6062073073869" y="233.9850810406919" type="curve" smooth="yes"/>
      <point x="294.9855948328499" y="254.51105358596524"/>
      <point x="223.63017703403048" y="244.93500126373928"/>
      <point x="181.61785407160795" y="190.09008958532263" type="curve" smooth="yes"/>
      <point x="143.124803827808" y="135.98856461014412"/>
      <point x="159.05585024905116" y="86.46393369214647"/>
      <point x="205.85128198527127" y="60.90204226547824" type="curve" smooth="yes"/>
      <point x="329.02637641490037" y="-10.642228326612521"/>
      <point x="483.40240750889495" y="-41.903136581371825"/>
      <point x="650.1208064244138" y="-42.0" type="curve" smooth="yes"/>
      <point x="922.4493843356728" y="-41.21348001758203"/>
      <point x="1105.9321362093742" y="87.36554825714495"/>
    </contour>
  </outline>
</glyph>
<glyph name="u" format="2">
  <advance width="1228"/>
  <unicode hex="0075"/>
  <outline>
    <contour>
      <point x="1114.6893999817062" y="954.0" type="line" smooth="yes"/>
      <point x="1047.239245262038" y="953.422629435359"/>
      <point x="993.6202871640604" y="923.2564975116956"/>
      <point x="981.9573740910702" y="872.4729635533386" type="curve" smooth="yes"/>
      <point x="922.5351815923174" y="535.4729635533386" type="line" smooth="yes"/>
      <point x="889.2082335845977" y="314.8030856394072"/>
      <point x="689.3456673387122" y="144.20562626143874"/>
      <point x="538.2171995692665" y="146.0" type="curve" smooth="yes"/>
      <point x="429.406170149019" y="144.14489074728434"/>
      <point x="417.7405344327911" y="205.95626249495731"/>
      <point x="437.5190789905863" y="315.5270364466614" type="curve" smooth="yes"/>
      <point x="534.498918380242" y="865.5270364466614" type="line" smooth="yes"/>
      <point x="543.0981454545442" y="917.0018186436545"/>
      <point x="493.15522032054844" y="953.3137621993131"/>
      <point x="424.6893999817063" y="954.0" type="curve" smooth="yes"/>
      <point x="422.6893999817063" y="954.0" type="line" smooth="yes"/>
      <point x="355.23924526203797" y="953.422629435359"/>
      <point x="301.6202871640604" y="923.2564975116957"/>
      <point x="289.95737409107005" y="872.4729635533386" type="curve" smooth="yes"/>
      <point x="190.33262999078738" y="307.4729635533386" type="line" smooth="yes"/>
      <point x="155.01926333026324" y="100.64236481736452"/>
      <point x="274.25512580196937" y="-40.39047012538358"/>
      <point x="497.1208064244138" y="-42.0" type="curve" smooth="yes"/>
      <point x="658.1549012477717" y="-40.99367581537504"/>
      <point x="843.6121482630815" y="66.78470669687083"/>
      <point x="909.6293132814192" y="198.97577917786276" type="curve"/>
      <point x="848.4272117943796" y="58.4729635533386" type="line" smooth="yes"/>
      <point x="839.7035356249025" y="7.606854903448436"/>
      <point x="886.8924606584789" y="-29.21158898020927"/>
      <point x="953.2367301929154" y="-30.0" type="curve" smooth="yes"/>
      <point x="955.2367301929154" y="-30.0" type="line" smooth="yes"/>
      <point x="1020.4286843525172" y="-29.34408938299554"/>
      <point x="1071.8028232913166" y="1.2165159419695426"/>
      <point x="1082.9687560835516" y="51.52703644666139" type="curve" smooth="yes"/>
      <point x="1226.4989183802422" y="865.5270364466614" type="line" smooth="yes"/>
      <point x="1235.0981454545442" y="917.0018186436546"/>
      <point x="1185.1552203205483" y="953.3137621993131"/>
      <point x="1116.6893999817062" y="954.0" type="curve" smooth="yes"/>
    </contour>
  </outline>
</glyph>
<glyph name="v" format="2">
  <advance width="1228"/>
  <unicode hex="0076"/>
  <outline>
    <contour>
      <point x="1071.0084920196043" y="904.6505373852096" type="curve" smooth="yes"/>
      <point x="639.2147582413105" y="163.0" type="line"/>
      <point x="477.9003543400103" y="899.3300640418228" type="line" smooth="yes"/>
      <point x="458.91995653366615" y="949.3479893043218"/>
      <point x="387.4773964323125" y="965.6966827199785"/>
      <point x="322.3419592436522" y="942.6096456688985" type="curve" smooth="yes"/>
      <point x="257.8823259776854" y="918.76747197698"/>
      <point x="219.726035699066" y="878.2055031956284"/>
      <point x="233.67324587827534" y="827.5849165008606" type="curve" smooth="yes"/>
      <point x="456.85254720403844" y="34.57515296119997" type="line" smooth="yes"/>
      <point x="475.4536582745594" y="-14.044503062877052"/>
      <point x="534.6737476874208" y="-41.6088179977103"/>
      <point x="610.1208064244138" y="-42.0" type="curve" smooth="yes"/>
      <point x="684.965232902998" y="-41.65755491722636"/>
      <point x="745.1579303077935" y="-17.24727075740254"/>
      <point x="779.5837229148937" y="29.28537050893418" type="curve" smooth="yes"/>
      <point x="1282.4210535353814" y="822.2919635398848" type="line" smooth="yes"/>
      <point x="1315.7112953887581" y="871.3893442983932"/>
      <point x="1292.9978437645268" y="917.2868483873185"/>
      <point x="1233.8840371562799" y="942.1892155019096" type="curve" smooth="yes"/>
      <point x="1174.666678488979" y="965.6562313071527"/>
      <point x="1106.153926282008" y="952.4280448664124"/>
    </contour>
  </outline>
</glyph>
<glyph name="w" format="2">
  <advance width="1228"/>
  <unicode hex="0077"/>
  <outline>
    <contour>
      <point x="1134.3227027702023" y="890.625640261742" type="curve" smooth="yes"/>
      <point x="883.5759152380494" y="228.63111147228113" type="line"/>
      <point x="867.4599952225221" y="746.0215600021901" type="line" smooth="yes"/>
      <point x="858.8136514304246" y="777.7021200571006"/>
      <point x="812.6311166947113" y="808.952174754375"/>
      <point x="753.2983147596874" y="810.0" type="curve" smooth="yes"/>
      <point x="695.4517031852764" y="809.1497722095686"/>
      <point x="646.767383115272" y="781.8269303879886"/>
      <point x="627.1728604000826" y="752.0225254864066" type="curve" smooth="yes"/>
      <point x="420.82118922769894" y="228.22056236103373" type="line"/>
      <point x="408.61117380976026" y="884.1935515490233" type="line" smooth="yes"/>
      <point x="402.92202221235607" y="937.0289880129517"/>
      <point x="338.9236888466655" y="961.0"/>
      <point x="272.9558881331058" y="949.6430451975002" type="curve" smooth="yes"/>
      <point x="204.00339518814596" y="937.1733278473193"/>
      <point x="160.71820257019863" y="899.4729635533386"/>
      <point x="163.82225445101884" y="847.5828655345703" type="curve" smooth="yes"/>
      <point x="220.70270799999605" y="41.582865534570274" type="line" smooth="yes"/>
      <point x="226.32657893411775" y="-9.757431400479982"/>
      <point x="275.63667746695626" y="-41.3117090101121"/>
      <point x="339.1208064244138" y="-42.0" type="curve" smooth="yes"/>
      <point x="405.99880634573105" y="-41.57191651939311"/>
      <point x="465.7087761116029" y="-16.115571770501738"/>
      <point x="495.40997019579504" y="33.96909124191255" type="curve" smooth="yes"/>
      <point x="711.8614742931981" y="535.0" type="line"/>
      <point x="743.1371992283872" y="39.967045290714914" type="line" smooth="yes"/>
      <point x="754.8146492554126" y="-12.17077668538089"/>
      <point x="813.4890142394339" y="-41.503227096464954"/>
      <point x="881.1208064244138" y="-42.0" type="curve" smooth="yes"/>
      <point x="943.5864933930242" y="-41.421038591929324"/>
      <point x="994.4802019171419" y="-14.937994424548785"/>
      <point x="1018.7787711730821" y="35.1976372819152" type="curve" smooth="yes"/>
      <point x="1359.8983176241047" y="841.1976372819151" type="line" smooth="yes"/>
      <point x="1383.2597468593704" y="892.5270364466613"/>
      <point x="1351.1230633059258" y="936.5365674370973"/>
      <point x="1283.6405732111527" y="949.5910993987582" type="curve" smooth="yes"/>
      <point x="1220.9236888466655" y="961.0"/>
      <point x="1159.1791330349483" y="941.77166409422"/>
    </contour>
  </outline>
</glyph>
<glyph name="x" format="2">
  <advance width="1228"/>
  <unicode hex="0078"/>
  <outline>
    <contour>
      <point x="1032.9635835784677" y="923.3972336462442" type="curve" smooth="yes"/>
      <point x="721.6915924884113" y="596.7216796875" type="line"/>
      <point x="533.8918285677928" y="920.296202362051" type="line" smooth="yes"/>
      <point x="497.84372629421983" y="961.1800258262249"/>
      <point x="430.16832848590576" y="966.3848336045914"/>
      <point x="368.33844039099495" y="942.4395492670366" type="curve" smooth="yes"/>
      <point x="308.1113343704743" y="918.9016922236418"/>
      <point x="271.01014776144024" y="869.9491720584739"/>
      <point x="304.7004472774819" y="823.6564461608207" type="curve" smooth="yes"/>
      <point x="547.7156133010596" y="474.90706802923927" type="line"/>
      <point x="166.29684423973146" y="103.36557671508558" type="line" smooth="yes"/>
      <point x="118.49106785630795" y="60.29405306801475"/>
      <point x="133.71228742490507" y="7.309095620290357"/>
      <point x="189.7736715212759" y="-17.93817981345017" type="curve" smooth="yes"/>
      <point x="245.04962237763428" y="-42.2647970782526"/>
      <point x="310.3293048743922" y="-38.31276190371294"/>
      <point x="357.13482884774965" y="0.6723304474435992" type="curve" smooth="yes"/>
      <point x="684.7179318618017" y="347.03363037109375" type="line"/>
      <point x="881.8438374867094" y="3.8206302987967966" type="line" smooth="yes"/>
      <point x="918.0824038804019" y="-37.18002582622486"/>
      <point x="985.7578016887159" y="-42.38483360459145"/>
      <point x="1047.5876897836267" y="-18.439549267036565" type="curve" smooth="yes"/>
      <point x="1108.0865408025302" y="5.185319704230944"/>
      <point x="1143.9159824131814" y="54.05082794152611"/>
      <point x="1111.3907644121423" y="100.24301899212058" type="curve" smooth="yes"/>
      <point x="858.7022607528681" y="467.96411592790895" type="line"/>
      <point x="1223.4804054921124" y="820.5745935139258" type="line" smooth="yes"/>
      <point x="1272.4350623183138" y="863.7059469319853"/>
      <point x="1255.8794752530728" y="916.8377690707895"/>
      <point x="1200.1524586533458" y="941.9381798134502" type="curve" smooth="yes"/>
      <point x="1144.8765077969872" y="966.2647970782526"/>
      <point x="1079.5968253002293" y="962.312761903713"/>
    </contour>
  </outline>
</glyph>
<glyph name="y" format="2">
  <advance width="1228"/>
  <unicode hex="0079"/>
  <outline>
    <contour>
      <point x="1071.7998373335276" y="905.1574479106386" type="curve" smooth="yes"/>
      <point x="652.2049929294861" y="231.0" type="line"/>
      <point x="477.30373653684046" y="900.1588793124494" type="line" smooth="yes"/>
      <point x="456.74362955295766" y="948.3479893043218"/>
      <point x="387.8438937854247" y="965.7229756782147"/>
      <point x="322.3419592436522" y="942.6096456688985" type="curve" smooth="yes"/>
      <point x="258.0405697405761" y="918.810157740721"/>
      <point x="217.54970871835755" y="877.2055031956284"/>
      <point x="234.2510364059301" y="826.7923173461503" type="curve" smooth="yes"/>
      <point x="489.44007195230387" y="42.583923201400516" type="line"/>
      <point x="266.9335420306525" y="-285.75678581310297" type="line" smooth="yes"/>
      <point x="231.3491388827561" y="-333.88282037966843"/>
      <point x="253.07677994160315" y="-381.131495456707"/>
      <point x="312.62722450345746" y="-406.18921550190964" type="curve" smooth="yes"/>
      <point x="372.14352069192466" y="-429.67922009040524"/>
      <point x="437.8546613616971" y="-415.29844883551283"/>
      <point x="473.60528791330717" y="-369.22295767355547" type="curve" smooth="yes"/>
      <point x="1280.610721937089" y="821.7770423264445" type="line" smooth="yes"/>
      <point x="1316.3518136881764" y="870.1345388778963"/>
      <point x="1293.1130671491762" y="917.2462172712976"/>
      <point x="1233.8840371562799" y="942.1892155019096" type="curve" smooth="yes"/>
      <point x="1174.1425106608212" y="965.6960026366811"/>
      <point x="1106.9775993012995" y="951.4280448664124"/>
    </contour>
  </outline>
</glyph>
<glyph name="z" format="2">
  <advance width="1228"/>
  <unicode hex="007A"/>
  <outline>
    <contour>
      <point x="423.9261301746217" y="944.0" type="line" smooth="yes"/>
      <point x="365.1067853965001" y="943.1531914129911"/>
      <point x="313.24482641796186" y="911.8434863669843"/>
      <point x="300.9598154190262" y="855.4729635533386" type="curve" smooth="yes"/>
      <point x="291.19132180308384" y="798.5305221699666"/>
      <point x="338.23532701403315" y="761.0431839847105"/>
      <point x="398.5350449526027" y="760.0" type="curve" smooth="yes"/>
      <point x="887.0686205542339" y="785.3885844381401" type="line"/>
      <point x="179.3389668633855" y="127.6850841980117" type="line" smooth="yes"/>
      <point x="160.93543416096907" y="113.630180403722"/>
      <point x="147.28911341904688" y="92.64079027215871"/>
      <point x="142.71946254358966" y="71.4729635533386" type="curve" smooth="yes"/>
      <point x="133.36025451510704" y="16.23928491517533"/>
      <point x="182.17053609721006" y="-19.151923352070455"/>
      <point x="241.0" y="-20.0" type="curve" smooth="yes"/>
      <point x="987.0" y="-20.0" type="line" smooth="yes"/>
      <point x="1045.8193447781216" y="-19.15319141299105"/>
      <point x="1097.6813037566596" y="12.156513633015702"/>
      <point x="1109.9663147555955" y="68.5270364466614" type="curve" smooth="yes"/>
      <point x="1119.7348083715378" y="125.46947783003331"/>
      <point x="1072.6908031605885" y="162.95681601528952"/>
      <point x="1012.391085222019" y="164.0" type="curve" smooth="yes"/>
      <point x="494.37529520743266" y="139.45447113337124" type="line"/>
      <point x="1200.415363692557" y="795.316660149762" type="line" smooth="yes"/>
      <point x="1216.5036727229653" y="807.7354736160272"/>
      <point x="1232.6365325199954" y="828.5112027861983"/>
      <point x="1238.2066676310321" y="852.5270364466614" type="curve" smooth="yes"/>
      <point x="1247.5658756595146" y="907.7607150848247"/>
      <point x="1198.7555940774116" y="943.1519233520704"/>
      <point x="1139.9261301746217" y="944.0" type="curve" smooth="yes"/>
    </contour>
  </outline>
</glyph>
